<svg width="46" height="46" viewBox="0 0 46 46" fill="none" xmlns="http://www.w3.org/2000/svg">
<g filter="url(#filter0_d_102_237)">
<circle cx="23" cy="19" r="15" fill="#236DC8"/>
</g>
<g filter="url(#filter1_d_102_237)">
<path d="M23 4C20.0333 4 17.1332 4.87973 14.6665 6.52796C12.1997 8.17618 10.2771 10.5189 9.14181 13.2597C8.0065 16.0006 7.70945 19.0166 8.28823 21.9263C8.86701 24.8361 10.2956 27.5088 12.3934 29.6066C14.4912 31.7044 17.1639 33.133 20.0737 33.7118C22.9834 34.2906 25.9994 33.9935 28.7403 32.8582C31.4811 31.7229 33.8238 29.8003 35.472 27.3335C37.1203 24.8668 38 21.9667 38 19C38 17.0302 37.612 15.0796 36.8582 13.2597C36.1044 11.4399 34.9995 9.78628 33.6066 8.3934C32.2137 7.00052 30.5601 5.89563 28.7403 5.14181C26.9204 4.38799 24.9698 4 23 4ZM23 31C20.6266 31 18.3066 30.2962 16.3332 28.9776C14.3598 27.6591 12.8217 25.7849 11.9135 23.5922C11.0052 21.3995 10.7676 18.9867 11.2306 16.6589C11.6936 14.3311 12.8365 12.1929 14.5147 10.5147C16.193 8.83649 18.3312 7.6936 20.6589 7.23058C22.9867 6.76755 25.3995 7.00519 27.5922 7.91344C29.7849 8.8217 31.6591 10.3598 32.9776 12.3332C34.2962 14.3065 35 16.6266 35 19C35 22.1826 33.7357 25.2348 31.4853 27.4853C29.2348 29.7357 26.1826 31 23 31ZM29 17.5H24.5V13C24.5 12.6022 24.342 12.2206 24.0607 11.9393C23.7794 11.658 23.3978 11.5 23 11.5C22.6022 11.5 22.2206 11.658 21.9393 11.9393C21.658 12.2206 21.5 12.6022 21.5 13V17.5H17C16.6022 17.5 16.2206 17.658 15.9393 17.9393C15.658 18.2206 15.5 18.6022 15.5 19C15.5 19.3978 15.658 19.7794 15.9393 20.0607C16.2206 20.342 16.6022 20.5 17 20.5H21.5V25C21.5 25.3978 21.658 25.7794 21.9393 26.0607C22.2206 26.342 22.6022 26.5 23 26.5C23.3978 26.5 23.7794 26.342 24.0607 26.0607C24.342 25.7794 24.5 25.3978 24.5 25V20.5H29C29.3978 20.5 29.7794 20.342 30.0607 20.0607C30.342 19.7794 30.5 19.3978 30.5 19C30.5 18.6022 30.342 18.2206 30.0607 17.9393C29.7794 17.658 29.3978 17.5 29 17.5Z" fill="white"/>
</g>
<defs>
<filter id="filter0_d_102_237" x="0" y="0" width="46" height="46" filterUnits="userSpaceOnUse" color-interpolation-filters="sRGB">
<feFlood flood-opacity="0" result="BackgroundImageFix"/>
<feColorMatrix in="SourceAlpha" type="matrix" values="0 0 0 0 0 0 0 0 0 0 0 0 0 0 0 0 0 0 127 0" result="hardAlpha"/>
<feOffset dy="4"/>
<feGaussianBlur stdDeviation="4"/>
<feComposite in2="hardAlpha" operator="out"/>
<feColorMatrix type="matrix" values="0 0 0 0 0 0 0 0 0 0 0 0 0 0 0 0 0 0 0.25 0"/>
<feBlend mode="normal" in2="BackgroundImageFix" result="effect1_dropShadow_102_237"/>
<feBlend mode="normal" in="SourceGraphic" in2="effect1_dropShadow_102_237" result="shape"/>
</filter>
<filter id="filter1_d_102_237" x="3.69892" y="4" width="38.6022" height="38.6022" filterUnits="userSpaceOnUse" color-interpolation-filters="sRGB">
<feFlood flood-opacity="0" result="BackgroundImageFix"/>
<feColorMatrix in="SourceAlpha" type="matrix" values="0 0 0 0 0 0 0 0 0 0 0 0 0 0 0 0 0 0 127 0" result="hardAlpha"/>
<feOffset dy="4.30108"/>
<feGaussianBlur stdDeviation="2.15054"/>
<feComposite in2="hardAlpha" operator="out"/>
<feColorMatrix type="matrix" values="0 0 0 0 0 0 0 0 0 0 0 0 0 0 0 0 0 0 0.25 0"/>
<feBlend mode="normal" in2="BackgroundImageFix" result="effect1_dropShadow_102_237"/>
<feBlend mode="normal" in="SourceGraphic" in2="effect1_dropShadow_102_237" result="shape"/>
</filter>
</defs>
</svg>
