<svg width="29" height="29" viewBox="0 0 29 29" fill="none" xmlns="http://www.w3.org/2000/svg">
<path d="M13.548 14.4L17.796 10.152C18.0195 9.92716 18.1449 9.62302 18.1449 9.306C18.1449 8.98898 18.0195 8.68483 17.796 8.46C17.6844 8.34753 17.5517 8.25825 17.4055 8.19733C17.2593 8.13641 17.1024 8.10504 16.944 8.10504C16.7856 8.10504 16.6287 8.13641 16.4825 8.19733C16.3363 8.25825 16.2036 8.34753 16.092 8.46L11.004 13.548C10.8915 13.6596 10.8023 13.7923 10.7413 13.9385C10.6804 14.0847 10.649 14.2416 10.649 14.4C10.649 14.5584 10.6804 14.7153 10.7413 14.8615C10.8023 15.0077 10.8915 15.1404 11.004 15.252L16.092 20.4C16.2041 20.5112 16.3371 20.5992 16.4833 20.6589C16.6295 20.7186 16.7861 20.7489 16.944 20.748C17.1019 20.7489 17.2585 20.7186 17.4047 20.6589C17.5509 20.5992 17.6839 20.5112 17.796 20.4C18.0195 20.1752 18.1449 19.871 18.1449 19.554C18.1449 19.237 18.0195 18.9328 17.796 18.708L13.548 14.4Z" fill="#2E3033"/>
</svg>
