<svg width="26" height="50" viewBox="0 0 26 50" fill="none" xmlns="http://www.w3.org/2000/svg">
<path d="M12.9032 2.15051C11.4912 2.15051 10.0929 2.42864 8.78836 2.96901C7.48378 3.50939 6.29842 4.30142 5.29994 5.2999C3.28342 7.31642 2.15055 10.0514 2.15055 12.9032C2.14115 15.3861 3.00086 17.7941 4.58066 19.7097L2.43012 21.8602C2.28092 22.0114 2.17984 22.2034 2.13966 22.412C2.09947 22.6206 2.12197 22.8364 2.20431 23.0322C2.29362 23.2257 2.4384 23.3883 2.62027 23.4993C2.80215 23.6104 3.01291 23.6649 3.22582 23.6559H12.9032C15.755 23.6559 18.49 22.523 20.5065 20.5065C22.5231 18.49 23.6559 15.755 23.6559 12.9032C23.6559 10.0514 22.5231 7.31642 20.5065 5.2999C18.49 3.28338 15.755 2.15051 12.9032 2.15051V2.15051ZM12.9032 21.5054H5.81721L6.81721 20.5054C7.01748 20.3039 7.12989 20.0314 7.12989 19.7473C7.12989 19.4632 7.01748 19.1907 6.81721 18.9892C5.40924 17.5828 4.53246 15.7317 4.33624 13.7514C4.14002 11.771 4.63651 9.78385 5.74111 8.12849C6.84572 6.47313 8.49011 5.25197 10.3941 4.67306C12.2981 4.09416 14.3439 4.19331 16.183 4.95365C18.0221 5.71398 19.5407 7.08844 20.4801 8.84287C21.4194 10.5973 21.7214 12.6231 21.3346 14.5753C20.9477 16.5274 19.896 18.285 18.3587 19.5486C16.8213 20.8123 14.8933 21.5038 12.9032 21.5054V21.5054ZM18.2796 11.8279H7.52689C7.24171 11.8279 6.96821 11.9412 6.76656 12.1429C6.56491 12.3445 6.45162 12.618 6.45162 12.9032C6.45162 13.1884 6.56491 13.4619 6.76656 13.6635C6.96821 13.8652 7.24171 13.9785 7.52689 13.9785H18.2796C18.5648 13.9785 18.8383 13.8652 19.0399 13.6635C19.2416 13.4619 19.3548 13.1884 19.3548 12.9032C19.3548 12.618 19.2416 12.3445 19.0399 12.1429C18.8383 11.9412 18.5648 11.8279 18.2796 11.8279ZM16.129 16.129H9.67743C9.39225 16.129 9.11875 16.2423 8.9171 16.4439C8.71545 16.6456 8.60216 16.9191 8.60216 17.2043C8.60216 17.4895 8.71545 17.763 8.9171 17.9646C9.11875 18.1663 9.39225 18.2795 9.67743 18.2795H16.129C16.4142 18.2795 16.6877 18.1663 16.8894 17.9646C17.091 17.763 17.2043 17.4895 17.2043 17.2043C17.2043 16.9191 17.091 16.6456 16.8894 16.4439C16.6877 16.2423 16.4142 16.129 16.129 16.129ZM9.67743 9.67739H16.129C16.4142 9.67739 16.6877 9.56411 16.8894 9.36246C17.091 9.1608 17.2043 8.8873 17.2043 8.60213C17.2043 8.31695 17.091 8.04345 16.8894 7.8418C16.6877 7.64014 16.4142 7.52686 16.129 7.52686H9.67743C9.39225 7.52686 9.11875 7.64014 8.9171 7.8418C8.71545 8.04345 8.60216 8.31695 8.60216 8.60213C8.60216 8.8873 8.71545 9.1608 8.9171 9.36246C9.11875 9.56411 9.39225 9.67739 9.67743 9.67739V9.67739Z" fill="#C1C3C5"/>
<path d="M4.6418 46.6236C4.07549 46.6236 3.55219 46.5304 3.07191 46.344C2.59162 46.1505 2.17585 45.8817 1.8246 45.5376C1.47334 45.1935 1.19736 44.7885 0.996639 44.3225C0.803091 43.8566 0.706317 43.3476 0.706317 42.7956C0.706317 42.2437 0.803091 41.7347 0.996639 41.2688C1.19736 40.8028 1.47334 40.3978 1.8246 40.0537C2.18302 39.7096 2.60237 39.4444 3.08266 39.258C3.56295 39.0645 4.08625 38.9677 4.65255 38.9677C5.19736 38.9677 5.7099 39.0609 6.19019 39.2473C6.67047 39.4265 7.07549 39.6989 7.40524 40.0645L6.89987 40.5698C6.59162 40.2544 6.25112 40.0286 5.87836 39.8924C5.5056 39.749 5.10417 39.6774 4.67406 39.6774C4.22245 39.6774 3.80309 39.7562 3.41599 39.9139C3.0289 40.0645 2.69198 40.2831 2.40524 40.5698C2.1185 40.8494 1.8927 41.1792 1.72782 41.5591C1.57012 41.9318 1.49126 42.344 1.49126 42.7956C1.49126 43.2473 1.57012 43.663 1.72782 44.043C1.8927 44.4157 2.1185 44.7455 2.40524 45.0322C2.69198 45.3118 3.0289 45.5304 3.41599 45.6881C3.80309 45.8387 4.22245 45.9139 4.67406 45.9139C5.10417 45.9139 5.5056 45.8422 5.87836 45.6989C6.25112 45.5555 6.59162 45.3261 6.89987 45.0107L7.40524 45.5161C7.07549 45.8817 6.67047 46.1576 6.19019 46.344C5.7099 46.5304 5.19377 46.6236 4.6418 46.6236ZM11.8219 40.8602C12.2807 40.8602 12.6821 40.9498 13.0262 41.129C13.3775 41.301 13.6499 41.5663 13.8434 41.9247C14.0441 42.2831 14.1445 42.7347 14.1445 43.2795V46.5591H13.381V43.3548C13.381 42.7598 13.2305 42.3118 12.9294 42.0107C12.6355 41.7025 12.2198 41.5483 11.6821 41.5483C11.2807 41.5483 10.9294 41.6308 10.6284 41.7956C10.3345 41.9533 10.1051 42.1863 9.94019 42.4946C9.78248 42.7956 9.70363 43.1612 9.70363 43.5913V46.5591H8.94019V38.5806H9.70363V42.4623L9.55309 42.172C9.7323 41.7634 10.019 41.4444 10.4133 41.215C10.8076 40.9784 11.2771 40.8602 11.8219 40.8602ZM19.7443 46.5591V45.3118L19.712 45.1075V43.0214C19.712 42.5412 19.5758 42.172 19.3034 41.9139C19.0382 41.6559 18.6403 41.5268 18.1099 41.5268C17.7443 41.5268 17.3966 41.5878 17.0669 41.7096C16.7371 41.8315 16.4575 41.9928 16.2282 42.1935L15.8841 41.6236C16.1708 41.3799 16.5149 41.1935 16.9163 41.0645C17.3178 40.9283 17.7407 40.8602 18.1851 40.8602C18.9163 40.8602 19.4791 41.043 19.8733 41.4085C20.2748 41.767 20.4755 42.3154 20.4755 43.0537V46.5591H19.7443ZM17.7981 46.6128C17.3751 46.6128 17.0059 46.5447 16.6905 46.4085C16.3823 46.2652 16.1457 46.0716 15.9808 45.8279C15.816 45.577 15.7335 45.2903 15.7335 44.9677C15.7335 44.6738 15.8016 44.4085 15.9378 44.172C16.0812 43.9283 16.3106 43.7347 16.626 43.5913C16.9486 43.4408 17.3787 43.3655 17.9163 43.3655H19.8626V43.9354H17.9378C17.393 43.9354 17.0131 44.0322 16.7981 44.2257C16.5902 44.4193 16.4862 44.6594 16.4862 44.9462C16.4862 45.2688 16.6117 45.5268 16.8626 45.7204C17.1135 45.9139 17.4647 46.0107 17.9163 46.0107C18.3464 46.0107 18.7156 45.9139 19.0239 45.7204C19.3393 45.5197 19.5687 45.2329 19.712 44.8602L19.8841 45.387C19.7407 45.7598 19.4898 46.0573 19.1314 46.2795C18.7801 46.5017 18.3357 46.6128 17.7981 46.6128ZM24.334 46.6128C23.8035 46.6128 23.3949 46.4695 23.1082 46.1827C22.8215 45.896 22.6781 45.491 22.6781 44.9677V39.6666H23.4415V44.9247C23.4415 45.2544 23.524 45.5089 23.6888 45.6881C23.8609 45.8673 24.1046 45.9569 24.42 45.9569C24.7569 45.9569 25.0365 45.8602 25.2587 45.6666L25.5276 46.215C25.377 46.3512 25.1942 46.4516 24.9792 46.5161C24.7713 46.5806 24.5562 46.6128 24.334 46.6128ZM21.6673 41.5483V40.9139H25.162V41.5483H21.6673Z" fill="#C1C3C5"/>
</svg>
