<svg width="65" height="50" viewBox="0 0 65 50" fill="none" xmlns="http://www.w3.org/2000/svg">
<path d="M32.5807 13.1398C33.1544 12.6431 33.6146 12.0289 33.93 11.3387C34.2454 10.6485 34.4086 9.8986 34.4086 9.13977C34.4086 7.71388 33.8422 6.34638 32.8339 5.33812C31.8257 4.32986 30.4582 3.76343 29.0323 3.76343C27.6064 3.76343 26.2389 4.32986 25.2306 5.33812C24.2224 6.34638 23.6559 7.71388 23.6559 9.13977C23.6559 9.8986 23.8191 10.6485 24.1346 11.3387C24.45 12.0289 24.9101 12.6431 25.4839 13.1398C23.9787 13.8214 22.7016 14.9221 21.8054 16.3103C20.9091 17.6984 20.4317 19.3154 20.4301 20.9677C20.4301 21.2529 20.5434 21.5264 20.7451 21.7281C20.9467 21.9297 21.2202 22.043 21.5054 22.043C21.7906 22.043 22.0641 21.9297 22.2657 21.7281C22.4674 21.5264 22.5807 21.2529 22.5807 20.9677C22.5807 19.2567 23.2604 17.6157 24.4703 16.4058C25.6802 15.1958 27.3212 14.5161 29.0323 14.5161C30.7433 14.5161 32.3843 15.1958 33.5942 16.4058C34.8042 17.6157 35.4839 19.2567 35.4839 20.9677C35.4839 21.2529 35.5972 21.5264 35.7988 21.7281C36.0005 21.9297 36.274 22.043 36.5591 22.043C36.8443 22.043 37.1178 21.9297 37.3195 21.7281C37.5211 21.5264 37.6344 21.2529 37.6344 20.9677C37.6328 19.3154 37.1554 17.6984 36.2592 16.3103C35.3629 14.9221 34.0859 13.8214 32.5807 13.1398V13.1398ZM29.0323 12.3656C28.3943 12.3656 27.7706 12.1764 27.2401 11.8219C26.7096 11.4675 26.2962 10.9637 26.052 10.3742C25.8079 9.7848 25.744 9.13619 25.8684 8.51045C25.9929 7.8847 26.3001 7.30992 26.7513 6.85878C27.2024 6.40765 27.7772 6.10042 28.4029 5.97595C29.0287 5.85148 29.6773 5.91536 30.2667 6.15952C30.8562 6.40367 31.36 6.81713 31.7144 7.34761C32.0689 7.87809 32.2581 8.50177 32.2581 9.13977C32.2581 9.99531 31.9182 10.8158 31.3133 11.4208C30.7083 12.0257 29.8878 12.3656 29.0323 12.3656ZM39.5054 12.7097C40.1935 11.9348 40.643 10.9775 40.7998 9.95304C40.9566 8.92861 40.8139 7.88071 40.389 6.93547C39.9641 5.99023 39.2751 5.18794 38.4048 4.62517C37.5346 4.06241 36.5202 3.76315 35.4839 3.76343C35.1987 3.76343 34.9252 3.87671 34.7235 4.07837C34.5219 4.28002 34.4086 4.55352 34.4086 4.8387C34.4086 5.12388 34.5219 5.39737 34.7235 5.59903C34.9252 5.80068 35.1987 5.91397 35.4839 5.91397C36.3394 5.91397 37.1599 6.25383 37.7649 6.85878C38.3698 7.46374 38.7097 8.28423 38.7097 9.13977C38.7082 9.70455 38.5584 10.259 38.2753 10.7478C37.9923 11.2365 37.5859 11.6423 37.0968 11.9247C36.9374 12.0167 36.8042 12.148 36.7101 12.3062C36.6159 12.4643 36.564 12.644 36.5591 12.8279C36.5546 13.0105 36.5967 13.1912 36.6814 13.353C36.766 13.5147 36.8905 13.6523 37.043 13.7527L37.4624 14.0322L37.6022 14.1075C38.8983 14.7223 39.9917 15.6946 40.7537 16.91C41.5158 18.1254 41.9146 19.5333 41.9032 20.9677C41.9032 21.2529 42.0165 21.5264 42.2182 21.7281C42.4198 21.9297 42.6933 22.043 42.9785 22.043C43.2637 22.043 43.5372 21.9297 43.7388 21.7281C43.9405 21.5264 44.0538 21.2529 44.0538 20.9677C44.0626 19.3177 43.6493 17.6927 42.8532 16.2474C42.0571 14.802 40.9047 13.5842 39.5054 12.7097V12.7097Z" fill="#C1C3C5"/>
<path d="M4.74706 46.6236C4.18075 46.6236 3.65745 46.5304 3.17717 46.344C2.69688 46.1505 2.28111 45.8817 1.92985 45.5376C1.5786 45.1935 1.30261 44.7885 1.1019 44.3225C0.908348 43.8566 0.811574 43.3476 0.811574 42.7956C0.811574 42.2437 0.908348 41.7347 1.1019 41.2688C1.30261 40.8028 1.5786 40.3978 1.92985 40.0537C2.28828 39.7096 2.70763 39.4444 3.18792 39.258C3.6682 39.0645 4.1915 38.9677 4.75781 38.9677C5.30261 38.9677 5.81516 39.0609 6.29545 39.2473C6.77573 39.4265 7.18075 39.6989 7.5105 40.0645L7.00512 40.5698C6.69688 40.2544 6.35638 40.0286 5.98362 39.8924C5.61086 39.749 5.20942 39.6774 4.77932 39.6774C4.3277 39.6774 3.90835 39.7562 3.52125 39.9139C3.13415 40.0645 2.79724 40.2831 2.5105 40.5698C2.22376 40.8494 1.99795 41.1792 1.83308 41.5591C1.67537 41.9318 1.59652 42.344 1.59652 42.7956C1.59652 43.2473 1.67537 43.663 1.83308 44.043C1.99795 44.4157 2.22376 44.7455 2.5105 45.0322C2.79724 45.3118 3.13415 45.5304 3.52125 45.6881C3.90835 45.8387 4.3277 45.9139 4.77932 45.9139C5.20942 45.9139 5.61086 45.8422 5.98362 45.6989C6.35638 45.5555 6.69688 45.3261 7.00512 45.0107L7.5105 45.5161C7.18075 45.8817 6.77573 46.1576 6.29545 46.344C5.81516 46.5304 5.29903 46.6236 4.74706 46.6236ZM11.0945 46.6128C10.5497 46.6128 10.0587 46.491 9.62139 46.2473C9.19128 45.9964 8.85078 45.6559 8.59988 45.2257C8.34898 44.7885 8.22354 44.2903 8.22354 43.7311C8.22354 43.1648 8.34898 42.6666 8.59988 42.2365C8.85078 41.8064 9.19128 41.4695 9.62139 41.2257C10.0515 40.982 10.5425 40.8602 11.0945 40.8602C11.6536 40.8602 12.1483 40.982 12.5784 41.2257C13.0157 41.4695 13.3562 41.8064 13.5999 42.2365C13.8508 42.6666 13.9762 43.1648 13.9762 43.7311C13.9762 44.2903 13.8508 44.7885 13.5999 45.2257C13.3562 45.6559 13.0157 45.9964 12.5784 46.2473C12.1411 46.491 11.6465 46.6128 11.0945 46.6128ZM11.0945 45.9354C11.5031 45.9354 11.8651 45.8458 12.1805 45.6666C12.4959 45.4802 12.7432 45.2222 12.9225 44.8924C13.1088 44.5555 13.202 44.1684 13.202 43.7311C13.202 43.2867 13.1088 42.8996 12.9225 42.5698C12.7432 42.2401 12.4959 41.9856 12.1805 41.8064C11.8651 41.62 11.5067 41.5268 11.1053 41.5268C10.7038 41.5268 10.3454 41.62 10.03 41.8064C9.71458 41.9856 9.46368 42.2401 9.2773 42.5698C9.09092 42.8996 8.99773 43.2867 8.99773 43.7311C8.99773 44.1684 9.09092 44.5555 9.2773 44.8924C9.46368 45.2222 9.71458 45.4802 10.03 45.6666C10.3454 45.8458 10.7002 45.9354 11.0945 45.9354ZM22.5886 40.8602C23.0474 40.8602 23.4453 40.9498 23.7822 41.129C24.1263 41.301 24.3915 41.5663 24.5779 41.9247C24.7714 42.2831 24.8682 42.7347 24.8682 43.2795V46.5591H24.1048V43.3548C24.1048 42.7598 23.9614 42.3118 23.6746 42.0107C23.3951 41.7025 22.9972 41.5483 22.4811 41.5483C22.094 41.5483 21.7571 41.6308 21.4703 41.7956C21.1908 41.9533 20.9721 42.1863 20.8144 42.4946C20.6639 42.7956 20.5886 43.1612 20.5886 43.5913V46.5591H19.8252V43.3548C19.8252 42.7598 19.6818 42.3118 19.3951 42.0107C19.1083 41.7025 18.7069 41.5483 18.1908 41.5483C17.8108 41.5483 17.4775 41.6308 17.1908 41.7956C16.904 41.9533 16.6818 42.1863 16.5241 42.4946C16.3736 42.7956 16.2983 43.1612 16.2983 43.5913V46.5591H15.5349V40.9139H16.266V42.4408L16.1478 42.172C16.3198 41.7634 16.5958 41.4444 16.9757 41.215C17.3628 40.9784 17.818 40.8602 18.3413 40.8602C18.8933 40.8602 19.3628 40.9999 19.7499 41.2795C20.137 41.5519 20.3879 41.9641 20.5026 42.5161L20.2015 42.3978C20.3664 41.939 20.6567 41.5698 21.0725 41.2903C21.4954 41.0035 22.0008 40.8602 22.5886 40.8602ZM33.9924 40.8602C34.4511 40.8602 34.849 40.9498 35.1859 41.129C35.53 41.301 35.7952 41.5663 35.9816 41.9247C36.1752 42.2831 36.2719 42.7347 36.2719 43.2795V46.5591H35.5085V43.3548C35.5085 42.7598 35.3651 42.3118 35.0784 42.0107C34.7988 41.7025 34.401 41.5483 33.8848 41.5483C33.4977 41.5483 33.1608 41.6308 32.8741 41.7956C32.5945 41.9533 32.3759 42.1863 32.2182 42.4946C32.0676 42.7956 31.9924 43.1612 31.9924 43.5913V46.5591H31.2289V43.3548C31.2289 42.7598 31.0855 42.3118 30.7988 42.0107C30.5121 41.7025 30.1106 41.5483 29.5945 41.5483C29.2146 41.5483 28.8812 41.6308 28.5945 41.7956C28.3078 41.9533 28.0855 42.1863 27.9278 42.4946C27.7773 42.7956 27.702 43.1612 27.702 43.5913V46.5591H26.9386V40.9139H27.6698V42.4408L27.5515 42.172C27.7235 41.7634 27.9995 41.4444 28.3795 41.215C28.7665 40.9784 29.2217 40.8602 29.745 40.8602C30.297 40.8602 30.7665 40.9999 31.1536 41.2795C31.5407 41.5519 31.7916 41.9641 31.9063 42.5161L31.6053 42.3978C31.7701 41.939 32.0605 41.5698 32.4762 41.2903C32.8992 41.0035 33.4045 40.8602 33.9924 40.8602ZM40.6757 46.6128C40.1954 46.6128 39.776 46.5232 39.4176 46.344C39.0592 46.1648 38.7796 45.896 38.5789 45.5376C38.3853 45.1792 38.2886 44.7311 38.2886 44.1935V40.9139H39.052V44.1075C39.052 44.7096 39.199 45.1648 39.4929 45.4731C39.7939 45.7741 40.2133 45.9247 40.7509 45.9247C41.1452 45.9247 41.4857 45.8458 41.7724 45.6881C42.0663 45.5232 42.2886 45.2867 42.4391 44.9784C42.5968 44.6702 42.6757 44.301 42.6757 43.8709V40.9139H43.4391V46.5591H42.7079V45.0107L42.8262 45.2903C42.647 45.706 42.3674 46.0322 41.9875 46.2688C41.6147 46.4982 41.1774 46.6128 40.6757 46.6128ZM48.4485 40.8602C48.9073 40.8602 49.3087 40.9498 49.6528 41.129C50.0041 41.301 50.2765 41.5663 50.47 41.9247C50.6707 42.2831 50.7711 42.7347 50.7711 43.2795V46.5591H50.0076V43.3548C50.0076 42.7598 49.8571 42.3118 49.556 42.0107C49.2621 41.7025 48.8464 41.5483 48.3087 41.5483C47.9073 41.5483 47.556 41.6308 47.255 41.7956C46.961 41.9533 46.7317 42.1863 46.5668 42.4946C46.4091 42.7956 46.3302 43.1612 46.3302 43.5913V46.5591H45.5668V40.9139H46.298V42.4623L46.1797 42.172C46.3589 41.7634 46.6456 41.4444 47.0399 41.215C47.4342 40.9784 47.9037 40.8602 48.4485 40.8602ZM52.8333 46.5591V40.9139H53.5967V46.5591H52.8333ZM53.2203 39.6666C53.0626 39.6666 52.93 39.6128 52.8225 39.5053C52.715 39.3978 52.6612 39.2688 52.6612 39.1182C52.6612 38.9677 52.715 38.8422 52.8225 38.7419C52.93 38.6344 53.0626 38.5806 53.2203 38.5806C53.3781 38.5806 53.5107 38.6308 53.6182 38.7311C53.7257 38.8315 53.7795 38.9569 53.7795 39.1075C53.7795 39.2652 53.7257 39.3978 53.6182 39.5053C53.5178 39.6128 53.3852 39.6666 53.2203 39.6666ZM57.5059 46.6128C56.9754 46.6128 56.5668 46.4695 56.2801 46.1827C55.9933 45.896 55.85 45.491 55.85 44.9677V39.6666H56.6134V44.9247C56.6134 45.2544 56.6958 45.5089 56.8607 45.6881C57.0328 45.8673 57.2765 45.9569 57.5919 45.9569C57.9288 45.9569 58.2084 45.8602 58.4306 45.6666L58.6994 46.215C58.5489 46.3512 58.3661 46.4516 58.151 46.5161C57.9432 46.5806 57.7281 46.6128 57.5059 46.6128ZM54.8392 41.5483V40.9139H58.3338V41.5483H54.8392ZM60.0272 48.6989C59.762 48.6989 59.5075 48.6559 59.2638 48.5698C59.0272 48.4838 58.8229 48.3548 58.6509 48.1827L59.0057 47.6128C59.1491 47.749 59.3032 47.853 59.4681 47.9247C59.6401 48.0035 59.8301 48.043 60.038 48.043C60.2889 48.043 60.5039 47.9713 60.6831 47.8279C60.8695 47.6917 61.0451 47.448 61.21 47.0967L61.5756 46.2688L61.6616 46.1505L63.9842 40.9139H64.7369L61.9089 47.2365C61.7512 47.6021 61.5756 47.8924 61.3821 48.1075C61.1957 48.3225 60.9914 48.4731 60.7692 48.5591C60.5469 48.6523 60.2996 48.6989 60.0272 48.6989ZM61.5326 46.7204L58.9304 40.9139H59.7261L62.0272 46.0967L61.5326 46.7204Z" fill="#C1C3C5"/>
</svg>
