<svg width="79" height="36" viewBox="0 0 79 36" fill="none" xmlns="http://www.w3.org/2000/svg">
<g filter="url(#filter0_d_102_238)">
<rect x="4" width="71" height="28" rx="14" fill="white"/>
</g>
<path d="M18.7193 20.16C17.8659 20.16 17.0713 20.0213 16.3353 19.744C15.6099 19.456 14.9753 19.056 14.4313 18.544C13.8979 18.0213 13.4819 17.408 13.1833 16.704C12.8846 16 12.7353 15.232 12.7353 14.4C12.7353 13.568 12.8846 12.8 13.1833 12.096C13.4819 11.392 13.9033 10.784 14.4473 10.272C14.9913 9.74933 15.6259 9.34933 16.3513 9.072C17.0766 8.784 17.8713 8.64 18.7353 8.64C19.6526 8.64 20.4899 8.8 21.2473 9.12C22.0046 9.42933 22.6446 9.89333 23.1673 10.512L21.8233 11.776C21.4179 11.3387 20.9646 11.0133 20.4633 10.8C19.9619 10.576 19.4179 10.464 18.8313 10.464C18.2446 10.464 17.7059 10.56 17.2153 10.752C16.7353 10.944 16.3139 11.216 15.9513 11.568C15.5993 11.92 15.3219 12.336 15.1193 12.816C14.9273 13.296 14.8313 13.824 14.8313 14.4C14.8313 14.976 14.9273 15.504 15.1193 15.984C15.3219 16.464 15.5993 16.88 15.9513 17.232C16.3139 17.584 16.7353 17.856 17.2153 18.048C17.7059 18.24 18.2446 18.336 18.8313 18.336C19.4179 18.336 19.9619 18.2293 20.4633 18.016C20.9646 17.792 21.4179 17.456 21.8233 17.008L23.1673 18.288C22.6446 18.896 22.0046 19.36 21.2473 19.68C20.4899 20 19.6473 20.16 18.7193 20.16ZM29.8163 11.36C30.4989 11.36 31.1069 11.4933 31.6403 11.76C32.1843 12.0267 32.6109 12.4373 32.9203 12.992C33.2296 13.536 33.3843 14.24 33.3843 15.104V20H31.3843V15.36C31.3843 14.6027 31.2029 14.0373 30.8403 13.664C30.4883 13.2907 29.9923 13.104 29.3523 13.104C28.8829 13.104 28.4669 13.2 28.1043 13.392C27.7416 13.584 27.4589 13.872 27.2563 14.256C27.0643 14.6293 26.9683 15.104 26.9683 15.68V20H24.9683V8.128H26.9683V13.76L26.5363 13.056C26.8349 12.512 27.2669 12.096 27.8323 11.808C28.4083 11.5093 29.0696 11.36 29.8163 11.36ZM39.953 20.112C39.0037 20.112 38.1717 19.9253 37.457 19.552C36.753 19.168 36.2037 18.6453 35.809 17.984C35.425 17.3227 35.233 16.5707 35.233 15.728C35.233 14.8747 35.4197 14.1227 35.793 13.472C36.177 12.8107 36.6997 12.2933 37.361 11.92C38.033 11.5467 38.7957 11.36 39.649 11.36C40.481 11.36 41.2223 11.5413 41.873 11.904C42.5237 12.2667 43.0357 12.7787 43.409 13.44C43.7823 14.1013 43.969 14.88 43.969 15.776C43.969 15.8613 43.9637 15.9573 43.953 16.064C43.953 16.1707 43.9477 16.272 43.937 16.368H36.817V15.04H42.881L42.097 15.456C42.1077 14.9653 42.0063 14.5333 41.793 14.16C41.5797 13.7867 41.2863 13.4933 40.913 13.28C40.5503 13.0667 40.129 12.96 39.649 12.96C39.1583 12.96 38.7263 13.0667 38.353 13.28C37.9903 13.4933 37.7023 13.792 37.489 14.176C37.2863 14.5493 37.185 14.992 37.185 15.504V15.824C37.185 16.336 37.3023 16.7893 37.537 17.184C37.7717 17.5787 38.1023 17.8827 38.529 18.096C38.9557 18.3093 39.4463 18.416 40.001 18.416C40.481 18.416 40.913 18.3413 41.297 18.192C41.681 18.0427 42.0223 17.808 42.321 17.488L43.393 18.72C43.009 19.168 42.5237 19.5147 41.937 19.76C41.361 19.9947 40.6997 20.112 39.953 20.112ZM49.8101 20.112C48.9141 20.112 48.1141 19.9253 47.4101 19.552C46.7168 19.168 46.1728 18.6453 45.7781 17.984C45.3835 17.3227 45.1861 16.5707 45.1861 15.728C45.1861 14.8747 45.3835 14.1227 45.7781 13.472C46.1728 12.8107 46.7168 12.2933 47.4101 11.92C48.1141 11.5467 48.9141 11.36 49.8101 11.36C50.6421 11.36 51.3728 11.5307 52.0021 11.872C52.6421 12.2027 53.1275 12.6933 53.4581 13.344L51.9221 14.24C51.6661 13.8347 51.3515 13.536 50.9781 13.344C50.6155 13.152 50.2208 13.056 49.7941 13.056C49.3035 13.056 48.8608 13.1627 48.4661 13.376C48.0715 13.5893 47.7621 13.8987 47.5381 14.304C47.3141 14.6987 47.2021 15.1733 47.2021 15.728C47.2021 16.2827 47.3141 16.7627 47.5381 17.168C47.7621 17.5627 48.0715 17.8667 48.4661 18.08C48.8608 18.2933 49.3035 18.4 49.7941 18.4C50.2208 18.4 50.6155 18.304 50.9781 18.112C51.3515 17.92 51.6661 17.6213 51.9221 17.216L53.4581 18.112C53.1275 18.752 52.6421 19.248 52.0021 19.6C51.3728 19.9413 50.6421 20.112 49.8101 20.112ZM56.7409 18.096L56.7889 15.584L61.2529 11.456H63.6529L59.8609 15.264L58.8049 16.144L56.7409 18.096ZM55.1089 20V8.128H57.1089V20H55.1089ZM61.5569 20L58.4369 16.144L59.7009 14.544L63.9889 20H61.5569Z" fill="#2E3033"/>
<defs>
<filter id="filter0_d_102_238" x="0" y="0" width="79" height="36" filterUnits="userSpaceOnUse" color-interpolation-filters="sRGB">
<feFlood flood-opacity="0" result="BackgroundImageFix"/>
<feColorMatrix in="SourceAlpha" type="matrix" values="0 0 0 0 0 0 0 0 0 0 0 0 0 0 0 0 0 0 127 0" result="hardAlpha"/>
<feOffset dy="4"/>
<feGaussianBlur stdDeviation="2"/>
<feComposite in2="hardAlpha" operator="out"/>
<feColorMatrix type="matrix" values="0 0 0 0 0 0 0 0 0 0 0 0 0 0 0 0 0 0 0.25 0"/>
<feBlend mode="normal" in2="BackgroundImageFix" result="effect1_dropShadow_102_238"/>
<feBlend mode="normal" in="SourceGraphic" in2="effect1_dropShadow_102_238" result="shape"/>
</filter>
</defs>
</svg>
