<svg width="23" height="23" viewBox="0 0 23 23" fill="none" xmlns="http://www.w3.org/2000/svg">
<path d="M18.2083 3.83333H4.79163C4.02913 3.83333 3.29786 4.13623 2.75869 4.6754C2.21953 5.21456 1.91663 5.94583 1.91663 6.70833V16.2917C1.91663 17.0542 2.21953 17.7854 2.75869 18.3246C3.29786 18.8638 4.02913 19.1667 4.79163 19.1667H18.2083C18.9708 19.1667 19.7021 18.8638 20.2412 18.3246C20.7804 17.7854 21.0833 17.0542 21.0833 16.2917V6.70833C21.0833 5.94583 20.7804 5.21456 20.2412 4.6754C19.7021 4.13623 18.9708 3.83333 18.2083 3.83333V3.83333ZM17.8154 5.74999L12.1804 11.385C12.0913 11.4748 11.9853 11.5461 11.8685 11.5948C11.7517 11.6434 11.6265 11.6685 11.5 11.6685C11.3734 11.6685 11.2482 11.6434 11.1314 11.5948C11.0146 11.5461 10.9086 11.4748 10.8195 11.385L5.18454 5.74999H17.8154ZM19.1666 16.2917C19.1666 16.5458 19.0657 16.7896 18.8859 16.9693C18.7062 17.149 18.4625 17.25 18.2083 17.25H4.79163C4.53746 17.25 4.2937 17.149 4.11398 16.9693C3.93426 16.7896 3.83329 16.5458 3.83329 16.2917V7.10124L9.46829 12.7362C10.0074 13.2746 10.7381 13.577 11.5 13.577C12.2618 13.577 12.9926 13.2746 13.5316 12.7362L19.1666 7.10124V16.2917Z" fill="#C1C3C5"/>
</svg>
