<svg xmlns="http://www.w3.org/2000/svg" xmlns:xlink="http://www.w3.org/1999/xlink" viewBox="0 0 500 500"><defs><clipPath id="freepik--clip-path--inject-48"><path d="M396.45,401.13s3.08-5.2,7.86-4.88,6.92-.4,6.92-.4S406.84,404,396.45,401.13Z" style="fill:#407BFF"></path></clipPath></defs><g id="freepik--background-simple--inject-48"><path d="M437,191.76v49.58c-.1,179.62-362.43,191-372.27,74.07,0,0-19.69-97.12,77.77-99.84h6.32c50.42,0,70.6-40.87,70.6-91.3h0C219.37,48.13,437,24.6,437,191.76Z" style="fill:#407BFF"></path><path d="M437,191.76v49.58c-.1,179.62-362.43,191-372.27,74.07,0,0-19.69-97.12,77.77-99.84h6.32c50.42,0,70.6-40.87,70.6-91.3h0C219.37,48.13,437,24.6,437,191.76Z" style="fill:#fff;opacity:0.9"></path></g><g id="freepik--Shadow--inject-48"><ellipse id="freepik--path--inject-48" cx="250" cy="412.39" rx="193.89" ry="11.32" style="fill:#f5f5f5"></ellipse></g><g id="freepik--Plant--inject-48"><path d="M412.28,364.12a9.14,9.14,0,0,0-6.71,4.92c-2.61,4.64-8.69,6.8-12.27,6-1.44-.3-2.91.17-4.66.85l-1.51.59c.14-.48.26-1,.37-1.5.44-.24.87-.5,1.3-.78l.29-.2c5-3.5,5.83-7.87,11.52-11S412.28,364.12,412.28,364.12Z" style="fill:#407BFF"></path><path d="M370.8,353.11a9.14,9.14,0,0,1,3.87,7.36c.31,5.31,4.83,9.92,8.37,10.82,1.43.37,2.54,1.43,3.82,2.81l1.1,1.19c.09-.49.19-1,.32-1.51a14.57,14.57,0,0,1-.82-1.27l-.18-.31c-3-5.33-1.78-9.62-5.51-15S370.8,353.11,370.8,353.11Z" style="fill:#407BFF"></path><path d="M386.86,374.1a28,28,0,0,0-.44,8.3c.94,9.87,4.61,27.92,4.61,27.92s-3.82-30.8-3.07-35c.09-.49.19-1,.32-1.51a22.32,22.32,0,0,1,2-5.35c3.75-7.05,9.26-8.54,12.56-16.22S400,337.73,400,337.73s.16,5.17-5.31,9-7.41,11.75-6,16.13c.82,2.56-.41,5.41-1.38,9.31C387.13,372.81,387,373.44,386.86,374.1Z" style="fill:#407BFF"></path><g style="opacity:0.4"><path d="M412.28,364.12a9.14,9.14,0,0,0-6.71,4.92c-2.61,4.64-8.69,6.8-12.27,6-1.44-.3-2.91.17-4.66.85l-1.51.59c.14-.48.26-1,.37-1.5.44-.24.87-.5,1.3-.78l.29-.2c5-3.5,5.83-7.87,11.52-11S412.28,364.12,412.28,364.12Z" style="fill:#fff"></path><path d="M370.8,353.11a9.14,9.14,0,0,1,3.87,7.36c.31,5.31,4.83,9.92,8.37,10.82,1.43.37,2.54,1.43,3.82,2.81l1.1,1.19c.09-.49.19-1,.32-1.51a14.57,14.57,0,0,1-.82-1.27l-.18-.31c-3-5.33-1.78-9.62-5.51-15S370.8,353.11,370.8,353.11Z" style="fill:#fff"></path><path d="M386.86,374.1a28,28,0,0,0-.44,8.3c.94,9.87,4.61,27.92,4.61,27.92s-3.82-30.8-3.07-35c.09-.49.19-1,.32-1.51a22.32,22.32,0,0,1,2-5.35c3.75-7.05,9.26-8.54,12.56-16.22S400,337.73,400,337.73s.16,5.17-5.31,9-7.41,11.75-6,16.13c.82,2.56-.41,5.41-1.38,9.31C387.13,372.81,387,373.44,386.86,374.1Z" style="fill:#fff"></path></g><path d="M396.45,401.13s3.08-5.2,7.86-4.88,6.92-.4,6.92-.4S406.84,404,396.45,401.13Z" style="fill:#407BFF"></path><g style="clip-path:url(#freepik--clip-path--inject-48)"><path d="M396.45,401.13s3.08-5.2,7.86-4.88,6.92-.4,6.92-.4S406.84,404,396.45,401.13Z" style="fill:#fff;opacity:0.2"></path></g><path d="M396.59,401.14a.38.38,0,0,1-.18-.15.34.34,0,0,1,.13-.45,23.1,23.1,0,0,1,10-2.75.33.33,0,0,1,.34.31.33.33,0,0,1-.31.35,22.27,22.27,0,0,0-9.72,2.67A.36.36,0,0,1,396.59,401.14Z" style="fill:#407BFF"></path><path d="M395.4,405.34s3.48-8.8-1.48-14.39-6.14-8.94-6.14-8.94S381.88,395.26,395.4,405.34Z" style="fill:#407BFF"></path><g style="opacity:0.2"><path d="M395.4,405.34s3.48-8.8-1.48-14.39-6.14-8.94-6.14-8.94S381.88,395.26,395.4,405.34Z" style="fill:#fff"></path></g><path d="M395,404.9a.3.3,0,0,1-.21-.25,41.1,41.1,0,0,0-7.07-16.52.33.33,0,0,1,.08-.46.33.33,0,0,1,.46.08,41.43,41.43,0,0,1,7.17,16.79.33.33,0,0,1-.27.38A.3.3,0,0,1,395,404.9Z" style="fill:#407BFF"></path><path d="M395,406.32a.33.33,0,0,1-.2-.41c4.46-14.47,6.3-17.46,6.38-17.58a.33.33,0,0,1,.45-.1.33.33,0,0,1,.11.45s-1.89,3.1-6.31,17.43a.33.33,0,0,1-.42.21Z" style="fill:#407BFF"></path><path d="M401.11,377.81c-.2,1.16.05,5.42,1.21,5.62s2.78-3.76,3-4.92a2.12,2.12,0,0,0-4.18-.7Z" style="fill:#407BFF"></path><path d="M403.1,391.61c.19-1.15-.05-5.42-1.21-5.61s-2.78,3.76-3,4.91a2.12,2.12,0,1,0,4.19.7Z" style="fill:#407BFF"></path><path d="M395.2,385.71c1.16.19,5.43-.06,5.62-1.21s-3.76-2.79-4.92-3a2.12,2.12,0,0,0-.7,4.19Z" style="fill:#407BFF"></path><path d="M409,383.71c-1.16-.19-5.43.06-5.62,1.22s3.76,2.78,4.91,3a2.12,2.12,0,0,0,.71-4.19Z" style="fill:#407BFF"></path><path d="M396.52,380.54c.68.95,3.87,3.79,4.83,3.11s-.69-4.63-1.38-5.58a2.12,2.12,0,1,0-3.45,2.47Z" style="fill:#407BFF"></path><path d="M407.69,388.89c-.68-1-3.88-3.8-4.83-3.12s.69,4.63,1.37,5.58a2.12,2.12,0,0,0,3.46-2.46Z" style="fill:#407BFF"></path><path d="M397.93,390.3c.95-.68,3.79-3.88,3.11-4.83s-4.62.69-5.58,1.37a2.13,2.13,0,0,0,2.47,3.46Z" style="fill:#407BFF"></path><path d="M406.28,379.13c-1,.68-3.8,3.87-3.12,4.83s4.63-.7,5.58-1.38a2.12,2.12,0,1,0-2.46-3.45Z" style="fill:#407BFF"></path><g style="opacity:0.6000000000000001;isolation:isolate"><path d="M401.11,377.81c-.2,1.16.05,5.42,1.21,5.62s2.78-3.76,3-4.92a2.12,2.12,0,0,0-4.18-.7Z" style="fill:#fff"></path><path d="M403.1,391.61c.19-1.15-.05-5.42-1.21-5.61s-2.78,3.76-3,4.91a2.12,2.12,0,1,0,4.19.7Z" style="fill:#fff"></path><path d="M395.2,385.71c1.16.19,5.43-.06,5.62-1.21s-3.76-2.79-4.92-3a2.12,2.12,0,0,0-.7,4.19Z" style="fill:#fff"></path><path d="M409,383.71c-1.16-.19-5.43.06-5.62,1.22s3.76,2.78,4.91,3a2.12,2.12,0,0,0,.71-4.19Z" style="fill:#fff"></path><path d="M396.52,380.54c.68.95,3.87,3.79,4.83,3.11s-.69-4.63-1.38-5.58a2.12,2.12,0,1,0-3.45,2.47Z" style="fill:#fff"></path><path d="M407.69,388.89c-.68-1-3.88-3.8-4.83-3.12s.69,4.63,1.37,5.58a2.12,2.12,0,0,0,3.46-2.46Z" style="fill:#fff"></path><path d="M397.93,390.3c.95-.68,3.79-3.88,3.11-4.83s-4.62.69-5.58,1.37a2.13,2.13,0,0,0,2.47,3.46Z" style="fill:#fff"></path><path d="M406.28,379.13c-1,.68-3.8,3.87-3.12,4.83s4.63-.7,5.58-1.38a2.12,2.12,0,1,0-2.46-3.45Z" style="fill:#fff"></path></g><path d="M399.62,384.3a2.51,2.51,0,1,0,2.9-2.07A2.51,2.51,0,0,0,399.62,384.3Z" style="fill:#407BFF"></path><path d="M391.89,412.37c1.07-9.07-2.2-19.76-8.62-26.26a14.45,14.45,0,0,1,3.13,7.16,25,25,0,0,0-11.3-11.62,36.94,36.94,0,0,1,5.83,10.09,18.19,18.19,0,0,0-8.31-5.67,52.61,52.61,0,0,1,11.23,23.41c.06.32-.12,1.88,0,2.19C386.67,412.05,389,412,391.89,412.37Z" style="fill:#407BFF"></path><path d="M391.89,412.37c1.07-9.07-2.2-19.76-8.62-26.26a14.45,14.45,0,0,1,3.13,7.16,25,25,0,0,0-11.3-11.62,36.94,36.94,0,0,1,5.83,10.09,18.19,18.19,0,0,0-8.31-5.67,52.61,52.61,0,0,1,11.23,23.41c.06.32-.12,1.88,0,2.19C386.67,412.05,389,412,391.89,412.37Z" style="fill:#fff;opacity:0.2"></path><path d="M391.52,412.37a16.25,16.25,0,0,1,4.16-12.67,7,7,0,0,0-1.51,3.46,12.14,12.14,0,0,1,5.45-5.61,17.92,17.92,0,0,0-2.81,4.87,8.79,8.79,0,0,1,4-2.74A25.51,25.51,0,0,0,395.4,411c0,.15.06.9,0,1C394,412.21,392.9,412.19,391.52,412.37Z" style="fill:#407BFF"></path></g><g id="freepik--Lines--inject-48"><path d="M314.15,175.83a.5.5,0,0,1-.49-.38c-10-41.13-31.72-90.54-78.66-92.39l-5.73-.35c-49.14,1.77-73.89,51.08-86,92.14a.5.5,0,0,1-1-.28c12.2-41.38,37.18-91.07,87-92.86l5.76.36c47.56,1.86,69.53,51.68,79.58,93.14a.51.51,0,0,1-.36.61Z" style="fill:#407BFF"></path><g style="opacity:0.6000000000000001"><path d="M314.15,175.83a.5.5,0,0,1-.49-.38c-10-41.13-31.72-90.54-78.66-92.39l-5.73-.35c-49.14,1.77-73.89,51.08-86,92.14a.5.5,0,0,1-1-.28c12.2-41.38,37.18-91.07,87-92.86l5.76.36c47.56,1.86,69.53,51.68,79.58,93.14a.51.51,0,0,1-.36.61Z" style="fill:#fff"></path></g><path d="M323.55,189.28a.51.51,0,0,1-.5-.42,301,301,0,0,0-11.59-48.4.5.5,0,1,1,1-.32A303,303,0,0,1,324,188.7a.5.5,0,0,1-.42.57Z" style="fill:#407BFF"></path><path d="M134.16,191.38h-.07a.5.5,0,0,1-.43-.56c4.22-31.27,11.71-54,22.27-73.39C171.75,88.34,194.45,73,223.4,72h11.09c34.83,0,60.53,19.51,76.41,63.84a.49.49,0,0,1-.3.64.5.5,0,0,1-.64-.3C294.24,92.23,268.85,73,234.49,73H223.42c-28.56,1.08-51,16.2-66.62,45-10.49,19.29-18,41.9-22.14,73A.51.51,0,0,1,134.16,191.38Z" style="fill:#407BFF"></path><path d="M132.91,201.49h0a.49.49,0,0,1-.44-.56q.29-2.58.64-5.45a.5.5,0,0,1,.56-.43.49.49,0,0,1,.43.56c-.23,1.9-.45,3.72-.64,5.44A.51.51,0,0,1,132.91,201.49Z" style="fill:#407BFF"></path><g style="opacity:0.6000000000000001"><path d="M323.55,189.28a.51.51,0,0,1-.5-.42,301,301,0,0,0-11.59-48.4.5.5,0,1,1,1-.32A303,303,0,0,1,324,188.7a.5.5,0,0,1-.42.57Z" style="fill:#fff"></path><path d="M134.16,191.38h-.07a.5.5,0,0,1-.43-.56c4.22-31.27,11.71-54,22.27-73.39C171.75,88.34,194.45,73,223.4,72h11.09c34.83,0,60.53,19.51,76.41,63.84a.49.49,0,0,1-.3.64.5.5,0,0,1-.64-.3C294.24,92.23,268.85,73,234.49,73H223.42c-28.56,1.08-51,16.2-66.62,45-10.49,19.29-18,41.9-22.14,73A.51.51,0,0,1,134.16,191.38Z" style="fill:#fff"></path><path d="M132.91,201.49h0a.49.49,0,0,1-.44-.56q.29-2.58.64-5.45a.5.5,0,0,1,.56-.43.49.49,0,0,1,.43.56c-.23,1.9-.45,3.72-.64,5.44A.51.51,0,0,1,132.91,201.49Z" style="fill:#fff"></path></g></g><g id="freepik--Character--inject-48"><path d="M243.59,166.77a9.2,9.2,0,0,1,15.16-6.36l.12.1c3.86,3.46,6,8.39,8.06,13.16,2.83,6.62,2.06,5.42,4.89,12,.58,1.35,3.16,8.71,3.6,10.11,8.16,5.67,18.36,15.06,27.1,19.46-.32,3.36.17,5.13-.15,8.49-14.36-1.83-24.85-4.77-32-8.76a43.65,43.65,0,0,1-17-17c-4-7.65-6.57-15.95-9.11-24.2A19,19,0,0,1,243.59,166.77Z" style="fill:#dd8c6a"></path><path d="M302.27,215.25l8.49-1.14a6.22,6.22,0,0,1,5.24,1.78l2.77,2.79a4.27,4.27,0,0,1,.52,5.38l-.37.55a4.26,4.26,0,0,1-5.3,1.51l-4.87-2.19-6.63-.19Z" style="fill:#dd8c6a"></path><g id="freepik--character--inject-48"><polygon points="258.21 356.03 244.05 355.79 245.23 382.98 255.55 383.89 258.21 356.03" style="fill:#dd8c6a"></polygon><polygon points="258.2 356.04 244.04 355.8 244.55 366.26 257.28 366.6 258.2 356.04" style="opacity:0.2;isolation:isolate"></polygon><path d="M242,316.86c-5.8-21.14-19.13-57.15-10.31-77.71l39.5-.68s1.94,53,.71,72.8C270.68,331.89,259.12,363,259.12,363l-16.22.27S239.67,340,242,316.86Z" style="fill:#263238"></path><path d="M228.65,274.51c.75,1.95,11,31.49,11,31.49a121.23,121.23,0,0,0,2.83-26.35c-.06-14.56-1.28-26.47-1.28-26.47l-17.36-5.94Z" style="opacity:0.2;isolation:isolate"></path><polygon points="210.73 357.48 197.38 352.73 192.73 368.84 200.15 381.15 210.73 357.48" style="fill:#dd8c6a"></polygon><polygon points="210.72 357.48 197.37 352.74 194.77 361.75 206.89 366.08 210.72 357.48" style="opacity:0.2;isolation:isolate"></polygon><path d="M201.24,314c-1.34-21.88-10.1-60,2.74-78.29l44.44,8.53s-11.51,51.26-16.77,70.41c-5.44,19.92-21.94,47.06-21.94,47.06l-15.93-3.06S194.19,336.15,201.24,314Z" style="fill:#263238"></path><path d="M202.08,378a.29.29,0,0,1,0-.3.26.26,0,0,1,.27-.13c.19,0,4.49.64,5.61,2.14a1.36,1.36,0,0,1,.27,1,1,1,0,0,1-.67.89c-.71.19-2-.47-3-1.3A19.24,19.24,0,0,1,202.08,378Zm.86.24c1.44,1.43,3.61,3.09,4.44,2.84.11,0,.25-.1.3-.47a.7.7,0,0,0-.18-.59,1.45,1.45,0,0,0-.35-.35A11.62,11.62,0,0,0,202.94,378.22Z" style="fill:#407BFF"></path><path d="M202,377.88a.26.26,0,0,1,.05-.25c.1-.1,2.12-2.23,3.9-2.27a1.84,1.84,0,0,1,1.39.53c.52.48.47.9.31,1.15-.56,1.1-4,1.36-5.43,1a.18.18,0,0,1-.09-.06A.22.22,0,0,1,202,377.88Zm4.91-1.72a1.37,1.37,0,0,0-.9-.29,6.11,6.11,0,0,0-3.17,1.74c1.55.2,4-.2,4.42-.82,0-.07.11-.23-.23-.55l-.12-.08Z" style="fill:#407BFF"></path><path d="M202.14,376.1l-9.33-7.25a1,1,0,0,0-1.19,0L184,375.15a1.57,1.57,0,0,0-.23,2.22,1.36,1.36,0,0,0,.24.24c3.4,2.55,6.54,4.69,10.72,7.95,4.94,3.84,3.22,3.46,9,8.06,3.46,2.76,7.19-.72,5.86-2.06-6.12-6.14-5.24-8.74-6-13.2A3.84,3.84,0,0,0,202.14,376.1Z" style="fill:#407BFF"></path><path d="M247.16,154.34a178.91,178.91,0,0,0-39.39.63c-7.57,1.06-12.89,5.76-12,21.24,1.5,25.33-1.06,41.42,0,54.52a10.44,10.44,0,0,0,8.5,9.4c12.76,2.4,40,6.8,56.71,4.33a15.29,15.29,0,0,0,13.12-14.61c1.16-33.6-10.7-56-16.37-68A13.24,13.24,0,0,0,247.16,154.34Z" style="fill:#407BFF"></path><path d="M242.79,157.92c-1.5-1.48-3.07-.62-3.81-2.84a7.68,7.68,0,0,1,.85-5.12L221.9,140.3c.35,6.59.61,11.76-2.31,14.42-.84,4.92,7.19,12.1,19.42,11.55C247.72,165.88,245,160.05,242.79,157.92Z" style="fill:#dd8c6a"></path><path d="M239.55,150.53,225.39,147c3.58,5.62,10,8.71,13.45,7.34A7.68,7.68,0,0,1,239.55,150.53Z" style="opacity:0.2;isolation:isolate"></path><path d="M220,129.88c.56,9.24,1.13,15.58,6.51,19.51,10.69,7.83,17.13,2.78,19.33-6.52,2-8.41.78-22.15-8.32-25.79A12.83,12.83,0,0,0,220,129.88Z" style="fill:#dd8c6a"></path><path d="M219.16,121.36q-.48,6.58-.95,13.18c1.65.69,3,2,4.63,2.66.79-4.44,1.43-8.7,2.23-13.15,6.45-1.34,13.17-2.42,19.37-.16a13.12,13.12,0,0,0-11.14-11.67C227.48,111.56,219.59,115.52,219.16,121.36Z" style="fill:#263238"></path><path d="M215.64,138.63a8.78,8.78,0,0,0,5.15,4.35c3,.92,3.46-1.51,2.73-4.35-.66-2.52-1.91-6.32-4.93-6S214.36,136.08,215.64,138.63Z" style="fill:#dd8c6a"></path><path d="M233.15,133c0,.76.41,1.36.9,1.36s.9-.62.9-1.38-.4-1.36-.9-1.36S233.16,132.21,233.15,133Z" style="fill:#263238"></path><path d="M241.44,132.93c0,.76.4,1.36.9,1.36s.9-.62.9-1.38-.41-1.37-.9-1.36S241.45,132.17,241.44,132.93Z" style="fill:#263238"></path><path d="M238.53,132.92l1.52,6.35a4,4,0,0,0,4.2-1s-2.17-1.64-2.92-2.38C239.56,134.16,238.53,132.92,238.53,132.92Z" style="fill:#ff5652"></path><path d="M231,130.26a.43.43,0,0,1-.22-.06.45.45,0,0,1-.14-.62h0a4.49,4.49,0,0,1,3.45-2.17.45.45,0,0,1,.45.44.45.45,0,0,1-.45.45h0a3.52,3.52,0,0,0-2.71,1.75A.47.47,0,0,1,231,130.26Z" style="fill:#263238"></path><path d="M245,130.35a.44.44,0,0,1-.34-.23,3.52,3.52,0,0,0-2.52-1.94.45.45,0,1,1-.19-.87.45.45,0,0,1,.28,0,4.37,4.37,0,0,1,3.25,2.41.44.44,0,0,1-.19.59A.41.41,0,0,1,245,130.35Z" style="fill:#263238"></path><path d="M239.24,142.48a5.93,5.93,0,0,1-4.34-1.85.22.22,0,0,1,0-.29.23.23,0,0,1,.3,0A5.72,5.72,0,0,0,240,142a.21.21,0,1,1,.08.41h0A5.49,5.49,0,0,1,239.24,142.48Z" style="fill:#263238"></path><path d="M213.06,165.33A9.21,9.21,0,0,0,197.9,159l-.11.11c-3.87,3.46-6,8.39-8.07,13.16-2.83,6.62-2.06,5.42-4.89,12-.58,1.36-3.15,8.72-3.6,10.12-8.16,5.66-16.35,16.5-25.09,20.9.31,3.36-.17,5.13.15,8.49,14.36-1.83,24.85-4.77,32-8.76,6.15-3.43,11-10.83,15-18.48s6.56-16,9.11-24.2A19.24,19.24,0,0,0,213.06,165.33Z" style="fill:#dd8c6a"></path><path d="M156.39,215.25l-8.49-1.14a6.25,6.25,0,0,0-5.25,1.78l-2.76,2.79a4.27,4.27,0,0,0-.52,5.38l.37.55a4.26,4.26,0,0,0,5.3,1.51l4.87-2.19,6.63-.19Z" style="fill:#dd8c6a"></path></g><g style="opacity:0.6000000000000001"><path d="M247.45,184.78s5.88,15.16,4.72,31.93l-.24,3.37H240.88l.77-7.37a76.91,76.91,0,0,0-.77-21.37h-7.06v-6.56Z" style="fill:#fff"></path></g><path d="M256.09,382.49a.26.26,0,0,1-.11-.27.27.27,0,0,1,.22-.2c.19,0,4.5-.57,6,.58a1.36,1.36,0,0,1,.52.87,1,1,0,0,1-.41,1c-.64.37-2,.06-3.26-.45A18.39,18.39,0,0,1,256.09,382.49Zm.9,0c1.76,1,4.29,2,5,1.57.1-.05.22-.17.16-.54a.69.69,0,0,0-.32-.52,1.86,1.86,0,0,0-.43-.25A11.66,11.66,0,0,0,257,382.5Z" style="fill:#407BFF"></path><path d="M256,382.43a.27.27,0,0,1,0-.26c.07-.12,1.45-2.7,3.16-3.22a1.89,1.89,0,0,1,1.49.14c.62.34.69.75.6,1-.25,1.21-3.55,2.38-5,2.42a.19.19,0,0,1-.1,0A.3.3,0,0,1,256,382.43Zm4.28-3a1.38,1.38,0,0,0-.94,0,6,6,0,0,0-2.6,2.52c1.55-.22,3.82-1.27,4-2,0-.07.05-.25-.36-.46l-.14,0Z" style="fill:#407BFF"></path><path d="M255.65,380.67l-10.91-4.52a.94.94,0,0,0-1.14.33l-5.66,8.06a1.58,1.58,0,0,0,.37,2.2,1.69,1.69,0,0,0,.29.17c4,1.56,7.55,2.79,12.45,4.83,5.78,2.4,4,2.48,10.78,5.4,4.07,1.75,6.75-2.59,5.11-3.54-7.53-4.3-7.36-7-9.25-11.15A3.79,3.79,0,0,0,255.65,380.67Z" style="fill:#407BFF"></path><path d="M218.63,131.24a2.52,2.52,0,0,1-2.27-3.55c2.9-6.29,13.9-10.19,22-9.76,6,.32,10.11,2.84,11.55,7.08a2.5,2.5,0,1,1-4.74,1.6c-1-2.93-4.86-3.57-7.08-3.69-6.87-.37-15.38,3-17.15,6.86A2.5,2.5,0,0,1,218.63,131.24Z" style="fill:#407BFF"></path><g style="opacity:0.5"><path d="M218.63,131.24a2.52,2.52,0,0,1-2.27-3.55c2.9-6.29,13.9-10.19,22-9.76,6,.32,10.11,2.84,11.55,7.08a2.5,2.5,0,1,1-4.74,1.6c-1-2.93-4.86-3.57-7.08-3.69-6.87-.37-15.38,3-17.15,6.86A2.5,2.5,0,0,1,218.63,131.24Z" style="fill:#fff"></path></g><path d="M144.61,223.86l-4.49,1.52a3.19,3.19,0,0,1-1,.15,3,3,0,0,1-.94-5.75l4.68-1.58A6.85,6.85,0,0,1,144.61,223.86Z" style="fill:#263238"></path><path d="M137.53,224.42l-.78-2.31c-.12-.36-.33-.63-.47-.61l-5.17.79c-.32,0-.43.53-.25,1.09l1.22,3.6c.19.55.57.87.86.72l4.58-2.51C137.65,225.12,137.65,224.78,137.53,224.42Z" style="fill:#263238"></path><path d="M313.42,223.67l4.49,1.52a2.92,2.92,0,0,0,.95.16,3,3,0,0,0,.94-5.76L315.12,218A6.84,6.84,0,0,0,313.42,223.67Z" style="fill:#263238"></path><path d="M320.5,224.23l.78-2.31c.12-.36.33-.63.47-.61l5.17.79c.31.05.43.54.24,1.09l-1.21,3.6c-.19.55-.58.87-.86.72L320.51,225C320.38,224.93,320.38,224.59,320.5,224.23Z" style="fill:#263238"></path><path d="M238.1,417.5H227c-23.12-.44-42.49-9.15-57.58-25.88-24.61-27.28-33.6-71.52-36.8-103.82a394.77,394.77,0,0,1-1.09-64.17.5.5,0,0,1,1,.09c-.1,1.14-9.14,115.37,37.63,167.23,14.9,16.52,34,25.12,56.85,25.55H238.1c21.7,0,39.81-7.88,53.85-23.42,45.87-50.81,34.46-168.18,34.34-169.36a.49.49,0,0,1,.44-.54.5.5,0,0,1,.55.44,411.73,411.73,0,0,1,.23,65.62C325,322.16,316.84,367,292.69,393.75,278.46,409.51,260.09,417.5,238.1,417.5Z" style="fill:#407BFF"></path></g><g id="freepik--Dust--inject-48"><path d="M178.85,416.36l-14-5c-2.71-1-5.51-2-7.63-3.93s-4.1-6.32-2.12-8.42a7.92,7.92,0,0,0,.59-9.81,7.5,7.5,0,0,0-9.3-2.11A17.57,17.57,0,0,0,126,362.8a16.36,16.36,0,0,0-12.15,13,6.65,6.65,0,0,0-9.06-1.89,6,6,0,0,0-1,8.67,12.08,12.08,0,0,0-19.61,5.49c-1.57,5.18.49,10.79,3.28,15.44a24.65,24.65,0,0,0,6.85,7.85,12.2,12.2,0,0,0,10,2.05C113.09,418.61,178.85,416.36,178.85,416.36Z" style="fill:#407BFF"></path><path d="M178.85,416.36l-14-5c-2.71-1-5.51-2-7.63-3.93s-4.1-6.32-2.12-8.42a7.92,7.92,0,0,0,.59-9.81,7.5,7.5,0,0,0-9.3-2.11A17.57,17.57,0,0,0,126,362.8a16.36,16.36,0,0,0-12.15,13,6.65,6.65,0,0,0-9.06-1.89,6,6,0,0,0-1,8.67,12.08,12.08,0,0,0-19.61,5.49c-1.57,5.18.49,10.79,3.28,15.44a24.65,24.65,0,0,0,6.85,7.85,12.2,12.2,0,0,0,10,2.05C113.09,418.61,178.85,416.36,178.85,416.36Z" style="fill:#fff;opacity:0.8"></path><path d="M348.59,383.44a15.31,15.31,0,0,0-30-3.34,13.82,13.82,0,0,0-9.51,5.67,12.31,12.31,0,0,0-1.45,10.31c-2.24-1.65-6,1.57-7.37,4s-1.63,5.31-2.68,7.9a13.55,13.55,0,0,1-9.88,8.05c12.19-.15,24.88-.22,37.08-.36,6.7-.08,13-.24,19.69-.76a15.46,15.46,0,0,0,14.56-14C359.63,393.84,354.78,385.84,348.59,383.44Z" style="fill:#407BFF"></path><path d="M348.59,383.44a15.31,15.31,0,0,0-30-3.34,13.82,13.82,0,0,0-9.51,5.67,12.31,12.31,0,0,0-1.45,10.31c-2.24-1.65-6,1.57-7.37,4s-1.63,5.31-2.68,7.9a13.55,13.55,0,0,1-9.88,8.05c12.19-.15,24.88-.22,37.08-.36,6.7-.08,13-.24,19.69-.76a15.46,15.46,0,0,0,14.56-14C359.63,393.84,354.78,385.84,348.59,383.44Z" style="fill:#fff;opacity:0.8"></path></g></svg>