<svg width="300" height="300" viewBox="0 0 300 300" fill="none" xmlns="http://www.w3.org/2000/svg">
<g filter="url(#filter0_d_81_191)">
<path d="M248.196 142.938C243.6 120.858 227.058 101.4 207.828 90.6C198.162 85.2 188.088 84 177.324 81.732C162.246 78.54 156.096 71.112 145.254 61.584C113.7 33.876 72.996 57.15 53.844 82.338C30.552 112.968 31.032 156 54.96 184.536C71.07 203.736 90.144 217.332 112.482 222.774C129.93 227.022 141.666 217.89 155.604 207.66C166.248 199.86 177.48 190.482 190.578 187.626C202.578 185.01 205.02 195.93 215.934 196.872C243.726 199.266 252.042 161.538 248.196 142.938Z" fill="#236DC8"/>
<path opacity="0.9" d="M248.196 142.938C243.6 120.858 227.058 101.4 207.828 90.6C198.162 85.2 188.088 84 177.324 81.732C162.246 78.54 156.096 71.112 145.254 61.584C113.7 33.876 72.996 57.15 53.844 82.338C30.552 112.968 31.032 156 54.96 184.536C71.07 203.736 90.144 217.332 112.482 222.774C129.93 227.022 141.666 217.89 155.604 207.66C166.248 199.86 177.48 190.482 190.578 187.626C202.578 185.01 205.02 195.93 215.934 196.872C243.726 199.266 252.042 161.538 248.196 142.938Z" fill="white"/>
<path d="M150 256.536C214.249 256.536 266.334 253.495 266.334 249.744C266.334 245.993 214.249 242.952 150 242.952C85.7505 242.952 33.666 245.993 33.666 249.744C33.666 253.495 85.7505 256.536 150 256.536Z" fill="#F5F5F5"/>
<path d="M263.34 106.314C264.276 108.252 265.14 110.19 265.926 112.17C266.712 114.15 267.48 116.154 268.134 118.248C268.218 118.512 268.296 118.776 268.374 119.046L268.488 119.442L268.548 119.658L268.626 119.994C268.809 120.847 268.784 121.732 268.554 122.574C268.169 123.891 267.48 125.099 266.544 126.102C264.983 127.798 263.127 129.197 261.066 130.23L259.638 128.124C261.044 126.787 262.3 125.301 263.382 123.69C263.801 123.07 264.085 122.369 264.216 121.632C264.238 121.447 264.214 121.259 264.144 121.086L263.928 120.534C263.844 120.3 263.754 120.072 263.652 119.832C262.902 117.96 262.062 116.064 261.216 114.174L258.684 108.486L263.34 106.314Z" fill="#7F3E3B"/>
<path d="M259.53 127.8L256.092 129.906L259.758 133.05C259.758 133.05 262.248 131.034 262.206 128.67L260.586 127.776C260.424 127.685 260.24 127.639 260.055 127.644C259.869 127.648 259.688 127.702 259.53 127.8V127.8Z" fill="#7F3E3B"/>
<path d="M255.378 134.016L258.282 135.378L259.758 133.068L256.092 129.924L255.378 134.016Z" fill="#7F3E3B"/>
<path d="M251.496 244.908C251.943 244.897 252.388 244.836 252.822 244.728C252.845 244.723 252.866 244.711 252.882 244.694C252.898 244.677 252.909 244.655 252.912 244.632C252.917 244.609 252.915 244.585 252.905 244.563C252.896 244.541 252.879 244.523 252.858 244.512C252.69 244.398 251.16 243.414 250.578 243.678C250.512 243.707 250.455 243.754 250.414 243.813C250.373 243.873 250.349 243.942 250.344 244.014C250.318 244.127 250.322 244.244 250.356 244.355C250.39 244.465 250.452 244.565 250.536 244.644C250.814 244.843 251.155 244.937 251.496 244.908V244.908ZM252.486 244.56C251.61 244.734 250.956 244.704 250.686 244.47C250.63 244.416 250.59 244.348 250.569 244.273C250.548 244.198 250.547 244.119 250.566 244.044C250.567 244.013 250.576 243.982 250.593 243.956C250.61 243.929 250.634 243.908 250.662 243.894C250.986 243.756 251.862 244.2 252.486 244.56Z" fill="#236DC8"/>
<path d="M252.798 244.728H252.858C252.875 244.717 252.889 244.702 252.898 244.684C252.908 244.666 252.912 244.646 252.912 244.626C252.912 244.56 252.912 243.114 252.36 242.634C252.294 242.57 252.214 242.523 252.127 242.494C252.039 242.466 251.947 242.459 251.856 242.472C251.762 242.473 251.671 242.506 251.599 242.567C251.527 242.627 251.478 242.71 251.46 242.802C251.346 243.402 252.258 244.452 252.738 244.728C252.757 244.734 252.779 244.734 252.798 244.728ZM251.94 242.694C252.037 242.695 252.131 242.731 252.204 242.796C252.518 243.264 252.681 243.817 252.672 244.38C252.192 243.996 251.622 243.18 251.688 242.838C251.688 242.784 251.736 242.712 251.886 242.694H251.94Z" fill="#236DC8"/>
<path d="M252.354 88.842C251.754 91.842 250.554 97.842 252.624 99.852C252.624 99.852 251.808 102.852 246.264 102.852C240.174 102.852 243.354 99.852 243.354 99.852C246.678 99.06 246.594 96.594 246.018 94.272L252.354 88.842Z" fill="#7F3E3B"/>
<path d="M246.114 97.2C245.736 97.722 245.43 98.472 245.724 98.46C250.764 98.244 251.988 98.532 251.916 97.962C251.844 97.392 251.916 96.804 251.64 96.804C251.364 96.804 246.294 96.972 246.114 97.2Z" fill="#236DC8"/>
<path d="M251.43 98.454C251.774 98.5653 252.137 98.6101 252.498 98.586C252.727 98.6521 252.921 98.805 253.038 99.012C253.088 98.6659 253.006 98.3136 252.806 98.0262C252.607 97.7388 252.306 97.5379 251.964 97.464C250.686 97.116 251.016 98.286 251.43 98.454Z" fill="#236DC8"/>
<path d="M250.848 97.128C251.184 96.45 252.048 96.162 252.312 96.612C252.576 97.062 252.102 97.44 251.502 97.5C250.902 97.56 250.614 97.602 250.848 97.128Z" fill="#236DC8"/>
<path d="M251.172 97.164C251.772 96.714 252.666 96.834 252.714 97.362C252.762 97.89 252.15 98.004 251.586 97.788C251.022 97.572 250.746 97.482 251.172 97.164Z" fill="#236DC8"/>
<path d="M242.142 82.476C242.104 82.4704 242.068 82.4561 242.037 82.4342C242.006 82.4123 241.98 82.3835 241.962 82.35C241.833 82.0814 241.642 81.847 241.405 81.6657C241.169 81.4843 240.893 81.3611 240.6 81.306C240.566 81.3067 240.532 81.3002 240.501 81.2869C240.47 81.2736 240.442 81.2538 240.419 81.2289C240.396 81.2039 240.378 81.1743 240.367 81.1421C240.356 81.1098 240.353 81.0757 240.356 81.0419C240.36 81.0081 240.37 80.9754 240.387 80.9459C240.404 80.9165 240.427 80.891 240.455 80.8712C240.482 80.8514 240.514 80.8376 240.547 80.8309C240.58 80.8241 240.615 80.8245 240.648 80.832C241.02 80.8968 241.371 81.0485 241.674 81.2748C241.976 81.501 242.221 81.7954 242.388 82.134C242.416 82.1899 242.42 82.2543 242.401 82.3137C242.382 82.373 242.341 82.4226 242.286 82.452C242.242 82.4744 242.191 82.4828 242.142 82.476V82.476Z" fill="#2E3033"/>
<path d="M240.39 85.104C239.929 85.9806 239.347 86.7884 238.662 87.504C238.851 87.6742 239.076 87.801 239.319 87.8756C239.563 87.9502 239.82 87.9708 240.072 87.936L240.39 85.104Z" fill="#630F0F"/>
<path d="M240.828 84.456C240.786 84.858 240.534 85.158 240.27 85.128C240.006 85.098 239.832 84.75 239.874 84.348C239.916 83.946 240.168 83.64 240.432 83.67C240.696 83.7 240.876 84.054 240.828 84.456Z" fill="#2E3033"/>
<path d="M240.546 83.706L239.61 83.316C239.61 83.316 240 84.132 240.546 83.706Z" fill="#2E3033"/>
<path d="M258.642 244.614H253.614L254.01 232.974H259.032L258.642 244.614Z" fill="#7F3E3B"/>
<path d="M253.2 244.032H258.846C258.943 244.03 259.038 244.063 259.112 244.126C259.186 244.189 259.235 244.278 259.248 244.374L259.89 248.838C259.903 248.951 259.891 249.065 259.857 249.173C259.822 249.282 259.765 249.381 259.689 249.466C259.613 249.55 259.52 249.618 259.416 249.663C259.312 249.709 259.2 249.733 259.086 249.732C257.112 249.702 256.164 249.582 253.686 249.582C252.162 249.582 249.93 249.744 247.818 249.744C245.706 249.744 245.598 247.656 246.474 247.47C250.416 246.618 251.04 245.454 252.366 244.338C252.601 244.143 252.895 244.035 253.2 244.032V244.032Z" fill="#2E3033"/>
<g opacity="0.2">
<path d="M259.038 232.974H254.01L253.806 238.974H258.834L259.038 232.974Z" fill="black"/>
</g>
<path d="M254.526 84.6C253.668 89.514 253.41 91.614 250.626 93.87C246.426 97.266 240.588 95.136 239.964 90.066C239.4 85.5 240.906 78.234 245.964 76.806C247.079 76.4864 248.258 76.4573 249.388 76.7214C250.517 76.9856 251.561 77.5342 252.419 78.3152C253.277 79.0962 253.921 80.0836 254.289 81.1836C254.658 82.2836 254.74 83.4597 254.526 84.6V84.6Z" fill="#7F3E3B"/>
<path d="M242.652 131.472C242.652 131.472 245.568 165.966 248.592 185.406C251.04 201.108 252.966 237.816 252.966 237.816H259.8C259.8 237.816 262.068 202.458 261.198 186.9C259.134 150 264.684 142.098 257.652 131.472H242.652Z" fill="#236DC8"/>
<path opacity="0.2" d="M250.332 150.09C250.044 160.41 248.094 166.8 246.564 170.244C245.76 163.512 245.022 156.486 244.404 150.288C246.51 143.268 250.554 142.32 250.332 150.09Z" fill="black"/>
<path d="M245.904 242.472C245.913 242.453 245.917 242.433 245.917 242.412C245.917 242.391 245.913 242.371 245.904 242.352C245.896 242.329 245.882 242.309 245.862 242.294C245.843 242.279 245.82 242.27 245.796 242.268C245.544 242.268 243.294 242.184 242.88 242.748C242.84 242.8 242.815 242.862 242.807 242.928C242.798 242.993 242.807 243.059 242.832 243.12C242.863 243.223 242.92 243.316 242.996 243.391C243.073 243.467 243.167 243.522 243.27 243.552C243.972 243.768 245.196 242.952 245.862 242.484L245.904 242.472ZM243.114 242.868C243.378 242.574 244.566 242.49 245.454 242.496C244.524 243.138 243.756 243.444 243.366 243.324C243.298 243.304 243.237 243.268 243.187 243.219C243.136 243.17 243.099 243.109 243.078 243.042C243.063 243.02 243.055 242.994 243.055 242.967C243.055 242.94 243.063 242.914 243.078 242.892L243.114 242.868Z" fill="#236DC8"/>
<path d="M245.904 242.472C245.916 242.454 245.922 242.433 245.922 242.412C245.922 242.391 245.916 242.37 245.904 242.352C245.904 242.304 245.202 241.152 244.404 240.918C244.289 240.887 244.17 240.879 244.052 240.896C243.935 240.912 243.822 240.952 243.72 241.014C243.438 241.182 243.42 241.374 243.456 241.506C243.612 242.064 245.148 242.538 245.802 242.532C245.823 242.532 245.843 242.526 245.861 242.515C245.879 242.505 245.894 242.49 245.904 242.472ZM243.738 241.272L243.852 241.188C243.926 241.141 244.01 241.11 244.097 241.099C244.184 241.088 244.272 241.095 244.356 241.122C244.877 241.358 245.309 241.753 245.592 242.25C244.884 242.178 243.792 241.746 243.696 241.41C243.692 241.386 243.694 241.362 243.702 241.339C243.709 241.316 243.721 241.295 243.738 241.278V241.272Z" fill="#236DC8"/>
<path d="M251.436 240.984L246.684 242.64L244.992 238.224L242.784 232.44L242.526 231.768L247.272 230.106L247.566 230.862L249.702 236.466L251.436 240.984Z" fill="#7F3E3B"/>
<path opacity="0.2" d="M249.702 236.466L244.992 238.224L242.784 232.44L247.566 230.862L249.702 236.466Z" fill="black"/>
<path d="M237.264 131.472C237.264 131.472 229.74 165.756 229.746 183.402C229.746 199.344 243.162 236.574 243.162 236.574L249.528 233.952C249.528 233.952 243.354 193.902 241.92 184.644C245.4 170.244 251.4 150 251.4 131.472H237.264Z" fill="#236DC8"/>
<path d="M245.868 241.722L250.98 239.322C251.068 239.281 251.168 239.274 251.262 239.3C251.355 239.326 251.436 239.385 251.49 239.466L253.962 243.24C254.021 243.337 254.058 243.445 254.073 243.558C254.087 243.671 254.077 243.785 254.044 243.893C254.011 244.002 253.956 244.103 253.882 244.188C253.808 244.274 253.717 244.344 253.614 244.392C251.814 245.196 250.908 245.49 248.658 246.54C247.278 247.188 244.764 249.276 242.694 249.684C240.624 250.092 240.108 248.07 240.93 247.716C244.632 246.114 244.53 243.924 245.238 242.352C245.367 242.074 245.59 241.851 245.868 241.722Z" fill="#2E3033"/>
<path d="M242.67 237.84L250.86 234.816L250.086 231.51L241.314 234.744L242.67 237.84Z" fill="#2E3033"/>
<path d="M252.03 237.948H260.76L261.216 234.888L251.976 234.576L252.03 237.948Z" fill="#2E3033"/>
<path d="M265.614 108.966L260.568 112.986L257.568 115.386C257.568 115.386 257.25 114.54 256.866 113.328C256.128 110.988 255.18 107.28 255.84 105.576C256.878 102.876 258.84 100.44 261.324 100.98C263.4 101.454 265.614 108.966 265.614 108.966Z" fill="#2E3033"/>
<path opacity="0.2" d="M259.908 113.508L257.538 115.404C257.538 115.404 257.22 114.558 256.836 113.346L258.636 104.436L259.908 113.508Z" fill="black"/>
<path d="M234.858 101.142C234.858 101.142 232.458 101.982 237.258 131.472H257.658C257.316 123.168 257.31 118.044 261.258 100.992C258.399 100.402 255.502 100.021 252.588 99.852C249.502 99.6297 246.404 99.6297 243.318 99.852C239.4 100.2 234.858 101.142 234.858 101.142Z" fill="#2E3033"/>
<path d="M237 107.484C236.55 110.112 236.016 112.674 235.386 115.284C234.787 117.932 234.016 120.537 233.076 123.084C232.79 123.826 232.445 124.545 232.044 125.232C231.899 125.47 231.736 125.696 231.558 125.91C231.386 126.125 231.198 126.326 230.994 126.51C230.551 126.908 230.041 127.225 229.488 127.446C228.914 127.664 228.302 127.77 227.688 127.758C227.149 127.739 226.615 127.642 226.104 127.47C225.281 127.182 224.513 126.758 223.83 126.216C222.693 125.304 221.683 124.242 220.83 123.06C220.41 122.502 220.026 121.932 219.666 121.35C219.291 120.768 218.947 120.167 218.634 119.55L220.758 118.146C221.574 119.046 222.474 119.946 223.374 120.786C224.211 121.582 225.132 122.284 226.122 122.88C226.495 123.1 226.9 123.262 227.322 123.36C227.652 123.414 227.748 123.36 227.76 123.288C227.772 123.216 227.814 123.234 227.874 123.156C227.911 123.11 227.945 123.062 227.976 123.012C227.976 123.012 227.976 123.012 228.036 122.886C228.253 122.426 228.438 121.95 228.588 121.464C228.954 120.354 229.272 119.13 229.566 117.906C229.86 116.682 230.166 115.434 230.424 114.186C230.952 111.684 231.468 109.14 231.96 106.638L237 107.484Z" fill="#7F3E3B"/>
<path d="M234.858 101.142C232.362 101.742 229.35 110.802 229.35 110.802L237.948 116.898C237.948 116.898 241.374 107.532 240.552 104.898C239.7 102.114 237.888 100.404 234.858 101.142Z" fill="#2E3033"/>
<path d="M243.252 85.104C240.75 83.976 241.398 81.096 243 81.654C237.264 77.532 240.354 75.6 242.082 76.608C241.326 75.498 238.752 72.336 238.998 69.372C239.244 66.408 244.74 67.8 247.242 71.55C246.252 68.598 249.462 68.31 251.85 71.904C252.812 73.3892 253.521 75.0233 253.95 76.74C253.95 76.74 256.698 72.402 257.4 76.56C258.174 81.168 255.852 82.806 255.852 82.806C255.852 82.806 259.878 83.166 257.856 85.848C257.265 86.5126 256.591 87.0993 255.852 87.594C255.852 87.594 257.328 88.602 255.348 90.552C253.698 92.178 252.048 93.648 249.198 93.798C246 93.972 241.848 90.462 243.252 85.104Z" fill="#2E3033"/>
<path d="M253.95 76.89C253.912 76.8901 253.876 76.876 253.848 76.8504C253.82 76.8248 253.803 76.7897 253.8 76.752C253.614 75.0111 253.144 73.3125 252.408 71.724C251.322 69.468 249.72 68.436 248.808 68.724C248.208 68.91 248.004 69.624 248.208 70.626C248.213 70.646 248.215 70.667 248.212 70.6875C248.209 70.7081 248.201 70.7278 248.19 70.7454C248.179 70.7629 248.165 70.778 248.147 70.7897C248.13 70.8013 248.111 70.8093 248.09 70.8131C248.07 70.8168 248.049 70.8163 248.029 70.8115C248.009 70.8067 247.99 70.7978 247.973 70.7853C247.956 70.7728 247.943 70.757 247.932 70.7388C247.922 70.7207 247.916 70.7007 247.914 70.68C247.692 69.516 248.004 68.676 248.736 68.436C249.768 68.1 251.508 69.084 252.708 71.574C253.462 73.1958 253.943 74.9312 254.13 76.71C254.132 76.7297 254.129 76.7496 254.123 76.7684C254.117 76.7872 254.108 76.8047 254.095 76.8197C254.082 76.8348 254.066 76.8471 254.049 76.8561C254.031 76.8651 254.012 76.8705 253.992 76.872L253.95 76.89Z" fill="#2E3033"/>
<path d="M244.926 85.554C244.7 86.4705 244.169 87.2829 243.42 87.858C242.406 88.632 241.578 87.966 241.59 86.868C241.59 85.884 242.136 84.288 243.288 83.934C244.44 83.58 245.166 84.468 244.926 85.554Z" fill="#7F3E3B"/>
<path d="M221.322 118.128L218.952 116.928L218.01 121.188C218.01 121.188 220.878 121.68 222.102 119.91L221.322 118.128Z" fill="#7F3E3B"/>
<path d="M216.168 117.426L215.7 121.032L218.016 121.176L218.952 116.916L216.168 117.426Z" fill="#7F3E3B"/>
<path d="M258 130.278L258.924 132.078C258.996 132.222 258.828 132.366 258.588 132.366H237.162C236.976 132.366 236.826 132.276 236.814 132.156L236.628 130.356C236.628 130.23 236.778 130.122 236.976 130.122H257.646C257.714 130.111 257.783 130.12 257.846 130.147C257.909 130.175 257.962 130.22 258 130.278V130.278Z" fill="#236DC8"/>
<path opacity="0.2" d="M258 130.278L258.924 132.078C258.996 132.222 258.828 132.366 258.588 132.366H237.162C236.976 132.366 236.826 132.276 236.814 132.156L236.628 130.356C236.628 130.23 236.778 130.122 236.976 130.122H257.646C257.714 130.111 257.783 130.12 257.846 130.147C257.909 130.175 257.962 130.22 258 130.278V130.278Z" fill="white"/>
<path d="M255.204 132.6H255.756C255.864 132.6 255.948 132.54 255.942 132.474L255.684 130.074C255.684 130.002 255.582 129.948 255.468 129.948H254.916C254.808 129.948 254.724 130.002 254.73 130.074L254.988 132.474C255 132.528 255.09 132.6 255.204 132.6Z" fill="#236DC8"/>
<path d="M241.8 132.6H242.358C242.466 132.6 242.55 132.54 242.544 132.474L242.28 130.074C242.28 130.002 242.178 129.948 242.07 129.948H241.518C241.404 129.948 241.32 130.002 241.326 130.074L241.59 132.474C241.578 132.528 241.674 132.6 241.8 132.6Z" fill="#236DC8"/>
<path d="M199.8 79.074C200.148 80.562 201.696 82.362 203.52 82.074C202.05 81.384 201.588 77.988 201.588 77.988L199.8 79.074Z" fill="#2E3033"/>
<path d="M199.98 79.074C199.98 80.598 201.036 82.716 202.872 82.866C201.618 81.846 201.288 78.666 201.288 78.666L199.98 79.074Z" fill="#2E3033"/>
<path d="M162.45 241.458L157.692 240.726L158.118 229.506L162.876 230.238L162.45 241.458Z" fill="#FFC3BD"/>
<path d="M192.168 244.824H187.356L186.072 233.67H190.89L192.168 244.824Z" fill="#FFC3BD"/>
<path d="M186.894 244.266H192.768C192.862 244.266 192.953 244.299 193.026 244.359C193.098 244.419 193.147 244.503 193.164 244.596L193.938 248.88C193.955 248.986 193.948 249.094 193.918 249.198C193.889 249.301 193.837 249.396 193.767 249.477C193.696 249.558 193.609 249.623 193.511 249.667C193.414 249.711 193.307 249.733 193.2 249.732C191.31 249.702 189.936 249.588 187.554 249.588C186.09 249.588 181.674 249.744 179.652 249.744C177.63 249.744 177.444 247.746 178.284 247.56C182.028 246.75 184.884 245.634 186.084 244.56C186.308 244.365 186.597 244.26 186.894 244.266Z" fill="#2E3033"/>
<path d="M157.8 240.18L163.002 240.978C163.097 240.993 163.183 241.04 163.248 241.111C163.312 241.182 163.35 241.272 163.356 241.368L163.644 245.742C163.651 245.848 163.634 245.953 163.594 246.051C163.554 246.149 163.493 246.237 163.414 246.308C163.336 246.379 163.242 246.431 163.141 246.461C163.039 246.491 162.932 246.497 162.828 246.48C160.962 246.162 158.268 245.634 155.91 245.28C153.156 244.854 151.53 244.68 148.296 244.182C146.346 243.882 146.106 241.824 146.952 241.782C150.798 241.536 153.072 241.884 156.6 240.39C156.972 240.208 157.388 240.135 157.8 240.18V240.18Z" fill="#2E3033"/>
<path d="M182.31 101.508C181.548 103.398 180.72 105.108 179.868 106.908C179.016 108.708 178.068 110.4 177.09 112.098C176.112 113.796 175.062 115.494 173.892 117.144C172.71 118.838 171.405 120.443 169.986 121.944L169.92 122.016L169.806 122.13L169.578 122.352C169.428 122.496 169.23 122.646 169.056 122.79C168.882 122.934 168.654 123.072 168.456 123.198C168.226 123.333 167.988 123.454 167.742 123.558C166.707 123.998 165.561 124.111 164.46 123.882C163.6 123.694 162.785 123.342 162.06 122.844C161.504 122.463 160.987 122.026 160.518 121.542C159.728 120.728 159.021 119.837 158.406 118.884C157.806 117.99 157.308 117.084 156.834 116.196C155.044 112.671 153.62 108.972 152.586 105.156L155.964 103.878C156.822 105.492 157.71 107.16 158.652 108.744C159.594 110.328 160.53 111.912 161.55 113.364C162.443 114.734 163.505 115.986 164.712 117.09C164.924 117.269 165.153 117.425 165.396 117.558C165.582 117.654 165.69 117.642 165.618 117.606C165.456 117.552 165.282 117.552 165.12 117.606C165.091 117.611 165.062 117.622 165.036 117.636H165.006C165.006 117.636 165.006 117.636 165.006 117.606L165.072 117.528C167.234 114.725 169.132 111.728 170.742 108.576C171.6 106.968 172.422 105.324 173.226 103.668C174.03 102.012 174.816 100.302 175.548 98.7L182.31 101.508Z" fill="#FFC3BD"/>
<path d="M184.392 99.12C185.25 103.638 179.634 110.1 179.634 110.1L171.384 106.548C171.384 106.548 172.236 101.37 175.536 97.632C179.574 93.054 183.45 94.2 184.392 99.12Z" fill="#2E3033"/>
<path opacity="0.2" d="M179.934 100.716C182.184 99.912 183.846 100.176 184.446 100.716C184.038 105.012 179.646 110.076 179.646 110.076L173.802 107.562C174.234 105.564 176.4 102 179.934 100.716Z" fill="black"/>
<path d="M156.252 105.174L156.066 101.574L151.23 102.366C151.23 102.366 150.336 105.804 153.762 106.566L156.252 105.174Z" fill="#FFC3BD"/>
<path d="M155.574 100.098L151.578 100.902L151.23 102.336L156.066 101.544L155.574 100.098Z" fill="#FFC3BD"/>
<path opacity="0.2" d="M158.118 229.512L157.896 235.29L162.66 236.022L162.882 230.244L158.118 229.512Z" fill="black"/>
<path opacity="0.2" d="M190.89 233.676H186.072L186.732 239.424H191.55L190.89 233.676Z" fill="black"/>
<path d="M206.004 99.186C199.056 116.892 198.204 136.32 197.364 140.184L171.978 135.78C171.378 111.852 177.378 98.628 178.986 95.526C179.101 95.3038 179.273 95.1155 179.483 94.9798C179.694 94.844 179.936 94.7655 180.186 94.752C184.458 94.55 188.739 94.7106 192.984 95.232C197.184 95.802 206.022 99.186 206.022 99.186" fill="#2E3033"/>
<path d="M183.114 136.668C183.114 136.452 182.742 114.636 187.656 100.872L187.944 100.968C183.042 114.684 183.414 136.446 183.414 136.662L183.114 136.668Z" fill="white"/>
<path d="M189.18 102.84C189.054 103.266 188.796 103.578 188.58 103.53C188.364 103.482 188.31 103.092 188.43 102.66C188.55 102.228 188.814 101.922 189.03 101.97C189.246 102.018 189.3 102.408 189.18 102.84Z" fill="white"/>
<path d="M187.998 107.814C187.902 108.252 187.662 108.576 187.452 108.54C187.242 108.504 187.152 108.12 187.248 107.682C187.344 107.244 187.584 106.926 187.794 106.962C188.004 106.998 188.094 107.4 187.998 107.814Z" fill="white"/>
<path d="M187.08 112.974C186.99 113.412 186.756 113.736 186.546 113.706C186.336 113.676 186.24 113.292 186.324 112.854C186.408 112.416 186.648 112.086 186.858 112.122C187.068 112.158 187.164 112.536 187.08 112.974Z" fill="white"/>
<path d="M186.3 118.026C186.24 118.47 186.024 118.812 185.814 118.794C185.604 118.776 185.484 118.398 185.544 117.954C185.604 117.51 185.82 117.168 186.03 117.192C186.24 117.216 186.36 117.6 186.3 118.026Z" fill="white"/>
<path opacity="0.2" d="M203.538 106.308C202.698 109.08 201.978 111.84 201.372 114.516C200.574 109.674 200.22 104.7 200.22 104.7L203.538 106.308Z" fill="black"/>
<path d="M198.672 84.378C197.388 87.732 195.732 93.642 197.754 96.378C196.602 98.052 192.498 100.578 187.8 100.92C184.446 99.51 185.55 96.048 186.9 94.74C190.932 94.482 191.274 91.698 191.07 88.884L198.672 84.378Z" fill="#FFC3BD"/>
<path opacity="0.2" d="M195.6 86.22L191.1 88.884C191.157 89.5408 191.157 90.2012 191.1 90.858C192.612 90.9 194.928 89.628 195.354 88.104C195.55 87.4963 195.634 86.8578 195.6 86.22V86.22Z" fill="black"/>
<path d="M189.966 72.492C185.34 71.892 186.414 78.264 188.208 80.664C194.166 76.926 192.768 72.864 189.966 72.492Z" fill="#2E3033"/>
<path d="M188.964 73.896C188.862 76.146 187.098 79.158 184.38 79.224C185.593 78.2903 186.489 77.0063 186.948 75.546L188.964 73.896Z" fill="#2E3033"/>
<path d="M199.992 79.23C198.888 83.88 198.48 86.658 195.684 88.656C191.484 91.656 186.054 88.506 185.748 83.622C185.472 79.224 187.326 72.354 192.252 71.286C193.337 71.0438 194.466 71.0832 195.531 71.4004C196.596 71.7176 197.563 72.3021 198.339 73.0983C199.114 73.8945 199.673 74.8758 199.963 75.9491C200.252 77.0223 200.262 78.1518 199.992 79.23V79.23Z" fill="#FFC3BD"/>
<path d="M200.436 74.436C195.804 73.836 196.878 80.202 198.672 82.602C204.45 79.422 203.232 74.802 200.436 74.436Z" fill="#2E3033"/>
<path d="M200.178 75.168C197.52 76.782 194.748 74.4 193.476 73.368C192.204 72.336 189.342 74.352 185.952 73.548C183.948 73.068 183.666 71.094 183.666 69.834C185.124 72.51 187.536 72.906 188.97 71.772C190.404 70.638 192.132 68.568 194.202 69.636C196.272 70.704 199.206 72.036 200.532 71.706C202.842 71.124 203.178 73.344 200.178 75.168Z" fill="#2E3033"/>
<path d="M193.134 72.6C191.412 74.634 187.584 76.2 184.992 74.28C186.803 74.281 188.571 73.726 190.056 72.69L193.134 72.6Z" fill="#2E3033"/>
<path d="M195.636 73.368C195.342 75.6 196.542 78.876 199.206 79.422C198.177 78.2889 197.521 76.8666 197.328 75.348L195.636 73.368Z" fill="#2E3033"/>
<path d="M200.802 79.002C200.01 81.108 197.406 83.43 194.802 82.65C197.076 81.924 198.114 79.224 198.114 79.224L200.802 79.002Z" fill="#2E3033"/>
<path d="M189.522 70.848C189.768 70.362 191.322 68.58 194.766 67.998C200.01 67.122 203.004 71.418 205.65 69.024C206.424 68.328 207.198 69.852 206.298 70.824C205.506 71.706 205.968 78.444 202.524 77.802C200.4 77.4 189.522 70.848 189.522 70.848Z" fill="#236DC8"/>
<path opacity="0.2" d="M189.522 70.848C189.768 70.362 191.322 68.58 194.766 67.998C200.01 67.122 203.004 71.418 205.65 69.024C206.424 68.328 207.198 69.852 206.298 70.824C205.506 71.706 205.968 78.444 202.524 77.802C200.4 77.4 189.522 70.848 189.522 70.848Z" fill="white"/>
<path d="M187.398 72.39C186.432 72.174 188.976 70.374 189.648 70.35C190.32 70.326 202.752 74.4 203.052 78C202.859 78.5609 202.603 79.0982 202.29 79.602C202.26 79.6474 202.222 79.6864 202.177 79.7165C202.132 79.7467 202.081 79.7674 202.028 79.7775C201.975 79.7876 201.92 79.7868 201.867 79.7752C201.814 79.7636 201.764 79.7414 201.72 79.71C200.154 78.6 193.254 73.704 187.398 72.39Z" fill="#236DC8"/>
<path d="M206.706 71.904C208.104 71.904 209.238 70.7704 209.238 69.372C209.238 67.9736 208.104 66.84 206.706 66.84C205.308 66.84 204.174 67.9736 204.174 69.372C204.174 70.7704 205.308 71.904 206.706 71.904Z" fill="#236DC8"/>
<path d="M201.186 83.724C200.58 84.6458 199.636 85.2923 198.558 85.524C197.154 85.8 196.614 84.474 197.136 83.166C197.616 81.966 198.936 80.436 200.262 80.766C201.588 81.096 201.942 82.584 201.186 83.724Z" fill="#FFC3BD"/>
<path d="M156.684 233.91L164.748 235.146C164.748 235.146 166.41 207.054 169.332 192.336C170.226 187.854 172.692 182.136 174.888 175.536C177.654 167.238 180.978 158.304 183.66 151.314C186.492 143.952 188.58 138.666 188.58 138.666L171.978 135.78C171.978 135.78 157.668 174.546 155.676 189.108C153.6 204.252 156.684 233.91 156.684 233.91Z" fill="#236DC8"/>
<path opacity="0.3" d="M156.684 233.91L164.748 235.146C164.748 235.146 166.41 207.054 169.332 192.336C170.226 187.854 172.692 182.136 174.888 175.536C177.654 167.238 180.978 158.304 183.66 151.314C186.492 143.952 188.58 138.666 188.58 138.666L171.978 135.78C171.978 135.78 157.668 174.546 155.676 189.108C153.6 204.252 156.684 233.91 156.684 233.91Z" fill="black"/>
<path opacity="0.2" d="M174.888 175.536C177.654 167.238 180.978 158.304 183.66 151.314L182.304 147.378C177.63 151.902 174.936 167.124 174.888 175.536Z" fill="black"/>
<path d="M179.886 137.154C179.886 137.154 178.536 178.626 179.136 192.72C179.796 208.164 184.506 238.32 184.506 238.32H193.326C193.326 238.32 191.364 210.978 191.526 195.912C191.742 178.752 197.34 140.196 197.34 140.196L179.886 137.154Z" fill="#236DC8"/>
<path opacity="0.3" d="M179.886 137.154C179.886 137.154 178.536 178.626 179.136 192.72C179.796 208.164 184.506 238.32 184.506 238.32H193.326C193.326 238.32 191.364 210.978 191.526 195.912C191.742 178.752 197.34 140.196 197.34 140.196L179.886 137.154Z" fill="black"/>
<path d="M183.45 238.5H193.836V235.398L182.226 235.194L183.45 238.5Z" fill="#236DC8"/>
<path d="M155.646 233.94L165.252 235.416L165.726 232.314L155.016 230.502L155.646 233.94Z" fill="#236DC8"/>
<path d="M193.032 79.374C192.966 79.758 192.708 80.028 192.432 79.974C192.156 79.92 192.03 79.584 192.096 79.206C192.162 78.828 192.42 78.546 192.696 78.606C192.972 78.666 193.098 78.99 193.032 79.374Z" fill="#2E3033"/>
<path d="M188.706 78.6C188.64 78.984 188.382 79.254 188.136 79.2C187.89 79.146 187.734 78.81 187.8 78.432C187.866 78.054 188.124 77.772 188.4 77.832C188.676 77.892 188.772 78.24 188.706 78.6Z" fill="#2E3033"/>
<path d="M189.648 78.984C188.99 80.0752 188.182 81.0689 187.248 81.936C187.481 82.1725 187.763 82.3548 188.074 82.47C188.385 82.5851 188.717 82.6302 189.048 82.602L189.648 78.984Z" fill="#ED847E"/>
<path d="M190.458 83.904C190.897 83.9293 191.337 83.864 191.75 83.7123C192.162 83.5606 192.54 83.3256 192.858 83.022C192.869 83.0114 192.877 82.9988 192.883 82.9849C192.889 82.971 192.892 82.9561 192.892 82.941C192.892 82.9259 192.889 82.911 192.883 82.8971C192.877 82.8832 192.869 82.8706 192.858 82.86C192.836 82.8398 192.807 82.8285 192.777 82.8285C192.747 82.8285 192.718 82.8398 192.696 82.86C192.341 83.1876 191.913 83.4268 191.448 83.5581C190.983 83.6895 190.494 83.7093 190.02 83.616C189.99 83.6124 189.96 83.6203 189.935 83.6381C189.911 83.6559 189.894 83.6823 189.888 83.712C189.883 83.7414 189.889 83.7717 189.906 83.7964C189.923 83.8211 189.949 83.8382 189.978 83.844C190.137 83.8742 190.297 83.8942 190.458 83.904V83.904Z" fill="#2E3033"/>
<path d="M194.208 78.138C194.245 78.1469 194.285 78.1469 194.322 78.138C194.375 78.1098 194.415 78.0623 194.434 78.0054C194.453 77.9484 194.449 77.8864 194.424 77.832C194.265 77.5067 194.03 77.2239 193.74 77.007C193.45 76.79 193.113 76.645 192.756 76.584C192.696 76.5776 192.635 76.5956 192.588 76.6338C192.54 76.6721 192.51 76.7275 192.504 76.788C192.498 76.8485 192.516 76.909 192.554 76.9563C192.592 77.0035 192.648 77.0336 192.708 77.04C192.989 77.0902 193.255 77.2067 193.482 77.3799C193.71 77.5531 193.893 77.778 194.016 78.036C194.037 78.068 194.065 78.0943 194.099 78.1121C194.132 78.13 194.17 78.1389 194.208 78.138V78.138Z" fill="#2E3033"/>
<path d="M186.702 76.74C186.739 76.7422 186.776 76.7351 186.809 76.7194C186.843 76.7037 186.872 76.6798 186.894 76.65C187.054 76.4112 187.268 76.2142 187.52 76.0754C187.772 75.9365 188.053 75.8599 188.34 75.852C188.401 75.8536 188.46 75.8313 188.505 75.7899C188.55 75.7484 188.577 75.691 188.58 75.63C188.58 75.57 188.557 75.5122 188.516 75.4686C188.474 75.4251 188.418 75.3991 188.358 75.396C187.996 75.4014 187.641 75.4935 187.323 75.6648C187.004 75.836 186.732 76.0813 186.528 76.38C186.51 76.4038 186.496 76.431 186.489 76.4601C186.481 76.4892 186.479 76.5195 186.484 76.5493C186.488 76.579 186.499 76.6075 186.515 76.6331C186.53 76.6587 186.551 76.6807 186.576 76.698C186.612 76.7253 186.657 76.74 186.702 76.74V76.74Z" fill="#2E3033"/>
<path d="M185.268 245.112C185.695 245.1 186.12 245.042 186.534 244.938C186.556 244.931 186.576 244.919 186.592 244.902C186.608 244.885 186.619 244.864 186.624 244.842C186.627 244.82 186.624 244.798 186.616 244.778C186.607 244.758 186.594 244.741 186.576 244.728C186.402 244.62 184.89 243.666 184.344 243.936C184.285 243.967 184.235 244.014 184.199 244.071C184.163 244.128 184.143 244.193 184.14 244.26C184.122 244.37 184.131 244.482 184.168 244.587C184.205 244.692 184.267 244.786 184.35 244.86C184.618 245.046 184.942 245.135 185.268 245.112V245.112ZM186.21 244.776C185.382 244.938 184.758 244.908 184.5 244.686C184.445 244.635 184.403 244.571 184.379 244.5C184.355 244.428 184.349 244.352 184.362 244.278C184.362 244.25 184.369 244.223 184.383 244.199C184.397 244.175 184.416 244.154 184.44 244.14C184.722 243.996 185.592 244.41 186.21 244.8V244.776Z" fill="#236DC8"/>
<path d="M186.504 244.938C186.526 244.944 186.548 244.944 186.57 244.938C186.589 244.921 186.602 244.899 186.607 244.874C186.613 244.849 186.61 244.823 186.6 244.8C186.6 244.74 186.54 243.348 186 242.892C185.935 242.835 185.859 242.792 185.776 242.768C185.693 242.743 185.606 242.736 185.52 242.748C185.434 242.747 185.35 242.776 185.282 242.829C185.215 242.883 185.167 242.958 185.148 243.042C185.022 243.582 185.94 244.638 186.426 244.908L186.504 244.938ZM185.616 243C185.712 242.999 185.804 243.036 185.874 243.102C186.196 243.539 186.373 244.065 186.378 244.608C185.898 244.23 185.316 243.408 185.394 243.12C185.394 243.09 185.394 243.018 185.562 243H185.616V243Z" fill="#236DC8"/>
<path d="M157.236 240.768C157.257 240.763 157.276 240.752 157.292 240.738C157.308 240.723 157.319 240.705 157.326 240.684C157.332 240.661 157.331 240.637 157.324 240.615C157.317 240.592 157.303 240.573 157.284 240.558C157.086 240.414 155.322 239.154 154.692 239.388C154.633 239.41 154.581 239.446 154.54 239.493C154.5 239.54 154.471 239.597 154.458 239.658V239.658C154.429 239.761 154.425 239.87 154.448 239.975C154.471 240.079 154.52 240.177 154.59 240.258C155.04 240.798 156.432 240.822 157.224 240.786L157.236 240.768ZM154.836 239.568C155.214 239.502 156.192 240.054 156.888 240.528C155.814 240.528 155.034 240.378 154.782 240.072C154.738 240.02 154.708 239.957 154.694 239.89C154.68 239.823 154.684 239.753 154.704 239.688C154.707 239.664 154.716 239.641 154.731 239.622C154.746 239.603 154.765 239.589 154.788 239.58L154.836 239.568Z" fill="#236DC8"/>
<path d="M157.236 240.768H157.272C157.289 240.758 157.304 240.744 157.314 240.728C157.324 240.711 157.331 240.692 157.332 240.672C157.332 240.618 157.404 239.316 156.876 238.722C156.801 238.636 156.709 238.566 156.606 238.516C156.503 238.467 156.39 238.439 156.276 238.434C155.964 238.434 155.85 238.56 155.808 238.686C155.64 239.208 156.618 240.414 157.158 240.762C157.183 240.77 157.21 240.772 157.236 240.768V240.768ZM156.15 238.656H156.264C156.348 238.659 156.431 238.68 156.506 238.717C156.581 238.755 156.648 238.807 156.702 238.872C156.996 239.339 157.137 239.887 157.104 240.438C156.576 239.994 155.904 239.064 156.03 238.752C156.036 238.722 156.048 238.674 156.15 238.656Z" fill="#236DC8"/>
<path d="M206.778 102.114C207.528 103.692 208.14 105.198 208.77 106.758C209.4 108.318 209.97 109.884 210.498 111.474C211.601 114.703 212.459 118.01 213.066 121.368C213.204 122.244 213.342 123.108 213.414 124.014L213.48 124.686V124.854V125.196C213.495 125.438 213.495 125.68 213.48 125.922C213.37 126.914 212.993 127.858 212.388 128.652C211.905 129.27 211.313 129.795 210.642 130.2C210.127 130.511 209.582 130.77 209.016 130.974C208.072 131.312 207.094 131.547 206.1 131.676C204.344 131.91 202.57 131.977 200.802 131.874C199.092 131.793 197.39 131.593 195.708 131.274L195.9 127.674C198.939 127.381 201.949 126.841 204.9 126.06C205.502 125.876 206.086 125.639 206.646 125.352C207.114 125.124 207.378 124.782 207.192 124.896C207.072 125.032 206.991 125.198 206.958 125.376C206.958 125.418 206.958 125.466 206.958 125.496V125.532V125.4L206.862 124.866C206.754 124.158 206.58 123.432 206.418 122.706C206.07 121.254 205.662 119.778 205.182 118.308C204.702 116.838 204.198 115.356 203.664 113.892C203.13 112.428 202.548 110.952 201.978 109.488C201.408 108.024 200.778 106.542 200.178 105.162L206.778 102.114Z" fill="#FFC3BD"/>
<path d="M206.004 99.186C208.494 100.536 210.204 108.648 210.204 108.648L202.824 113.184C202.824 113.184 200.916 109.44 199.512 106.35C196.848 100.452 201.096 96.534 206.004 99.186Z" fill="#2E3033"/>
<path d="M196.524 127.59L191.67 127.38L193.8 132C193.8 132 198.378 131.724 197.772 129.534L196.524 127.59Z" fill="#FFC3BD"/>
<path d="M188.472 130.56L190.89 133.572L193.818 131.976L191.664 127.374L188.472 130.56Z" fill="#FFC3BD"/>
<path d="M75.342 105.072C75.636 106.602 75.942 108.246 76.344 109.818C76.746 111.39 77.1 112.992 77.544 114.552C77.76 115.338 77.994 116.118 78.234 116.886C78.474 117.654 78.714 118.428 78.972 119.196C79.23 119.964 79.5 120.714 79.794 121.452C79.938 121.83 80.082 122.202 80.244 122.562L80.478 123.108L80.598 123.378L80.658 123.516V123.588L80.628 123.534C80.58 123.456 80.526 123.39 80.448 123.288C80.3613 123.202 80.2691 123.122 80.172 123.048C79.99 122.925 79.7864 122.837 79.572 122.79C79.242 122.748 79.188 122.79 79.2 122.79C79.4094 122.733 79.611 122.651 79.8 122.544C80.4436 122.195 81.0576 121.793 81.636 121.344C82.89 120.42 84.15 119.376 85.38 118.296C86.61 117.216 87.852 116.112 89.064 114.984C90.276 113.856 91.5 112.71 92.706 111.576L94.608 113.256C93.588 114.63 92.526 115.932 91.44 117.24C90.354 118.548 89.214 119.808 88.05 121.068C86.8633 122.344 85.6095 123.556 84.294 124.698C83.5778 125.322 82.8157 125.892 82.014 126.402C81.4892 126.735 80.9194 126.992 80.322 127.164C79.7975 127.314 79.246 127.345 78.708 127.254C78.2757 127.18 77.8657 127.01 77.508 126.756C77.1513 126.511 76.854 126.189 76.638 125.814L76.566 125.688L76.518 125.598L76.482 125.52L76.41 125.376L76.26 125.076L75.972 124.476C75.768 124.08 75.588 123.684 75.414 123.276C75.042 122.478 74.712 121.674 74.388 120.876C73.746 119.262 73.188 117.624 72.672 115.974C72.156 114.324 71.7 112.668 71.298 110.994C70.896 109.32 70.548 107.67 70.266 105.894L75.342 105.072Z" fill="#B55B52"/>
<path d="M73.326 99.498C76.224 100.098 78 114.3 78 114.3L70.506 114.612C70.506 114.612 67.596 105.81 68.466 102.276C69.096 99.702 70.284 98.892 73.326 99.498Z" fill="#236DC8"/>
<path d="M70.2 114.156C70.166 114.574 70.2191 114.995 70.356 115.392C70.536 115.728 77.31 114.924 77.862 114.756C78.414 114.588 78.462 113.556 78.462 113.358C78.462 113.16 70.2 113.64 70.2 114.156Z" fill="#236DC8"/>
<path opacity="0.1" d="M70.2 114.156C70.166 114.574 70.2191 114.995 70.356 115.392C70.536 115.728 77.31 114.924 77.862 114.756C78.414 114.588 78.462 113.556 78.462 113.358C78.462 113.16 70.2 113.64 70.2 114.156Z" fill="black"/>
<path opacity="0.2" d="M76.164 114.378L75.906 113.394L74.154 106.626L73.608 113.556L73.536 114.486L73.47 115.314C74.454 115.224 75.498 115.104 76.326 114.996L76.164 114.378Z" fill="black"/>
<path d="M91.962 112.8L92.238 110.73L95.904 110.082C95.904 110.082 95.526 113.274 93.588 114.036L91.962 112.8Z" fill="#B55B52"/>
<path d="M92.436 107.784L96.222 107.49L95.904 110.052L92.238 110.7L92.436 107.784Z" fill="#B55B52"/>
<path d="M68.166 243.534H73.17L73.926 231.942H68.922L68.166 243.534Z" fill="#B55B52"/>
<path d="M39.09 233.364L43.962 234.51L48.18 223.596L43.308 222.45L39.09 233.364Z" fill="#B55B52"/>
<path d="M44.718 234.096L39.678 231.6C39.592 231.556 39.4932 231.545 39.3996 231.568C39.3059 231.591 39.2238 231.647 39.168 231.726L36.6 235.44C36.5395 235.535 36.4998 235.642 36.4835 235.754C36.4671 235.866 36.4744 235.98 36.505 236.088C36.5356 236.197 36.5887 236.298 36.6609 236.385C36.7331 236.472 36.8227 236.542 36.924 236.592C38.724 237.432 39.594 237.744 41.814 238.842C43.176 239.514 46.446 241.932 48.33 242.862C50.214 243.792 51.234 241.98 50.532 241.428C48.2604 239.672 46.4656 237.374 45.312 234.744C45.1951 234.466 44.9851 234.237 44.718 234.096V234.096Z" fill="#2E3033"/>
<path d="M73.554 242.952H67.932C67.835 242.951 67.7409 242.985 67.667 243.048C67.5931 243.111 67.5445 243.198 67.53 243.294L66.888 247.746C66.8762 247.858 66.8882 247.972 66.9233 248.08C66.9584 248.187 67.0157 248.286 67.0916 248.37C67.1675 248.453 67.2602 248.52 67.3636 248.566C67.4671 248.611 67.579 248.635 67.692 248.634C69.654 248.598 70.596 248.484 73.092 248.484C74.616 248.484 77.76 248.64 79.86 248.64C81.96 248.64 82.074 246.564 81.198 246.378C77.28 245.532 75.732 244.368 74.412 243.258C74.1716 243.057 73.8673 242.948 73.554 242.952Z" fill="#2E3033"/>
<g opacity="0.2">
<path d="M73.926 231.942L73.536 237.918H68.532L68.922 231.942H73.926Z" fill="black"/>
<path d="M43.308 222.45L48.18 223.602L45.858 229.602L41.13 228.078L43.308 222.45Z" fill="black"/>
</g>
<path d="M73.326 99.498C73.326 99.498 75.768 100.17 73.062 129.798L52.8 131.226C52.56 122.946 52.2 117.858 47.082 101.226C49.878 100.44 52.7275 99.8582 55.608 99.486C58.6518 99.0405 61.7238 98.8159 64.8 98.814C68.778 98.898 73.326 99.498 73.326 99.498Z" fill="#236DC8"/>
<path opacity="0.2" d="M48.468 105.222L48.36 105.516C50.658 113.352 51.708 118.266 52.224 122.52C53.1129 121.025 53.6237 119.337 53.712 117.6C54.036 111.6 51.204 105.6 48.468 105.222Z" fill="black"/>
<path d="M50.13 80.364C48.192 82.116 50.196 84.294 49.698 86.526C49.2 88.758 50.298 89.292 50.094 90.726C49.9344 92.1124 49.489 93.4505 48.786 94.656C48.786 94.656 66.132 96.126 69.468 93.456C71.136 92.124 67.236 86.628 67.8 84.558C68.364 82.488 69.942 79.758 68.064 77.022C65.664 73.542 58.512 71.292 52.866 76.056C49.032 76.602 50.13 80.364 50.13 80.364Z" fill="#2E3033"/>
<path d="M56.148 89.028C56.94 91.95 58.548 97.752 56.598 99.876C56.598 99.876 58.698 100.476 61.602 101.202C63.702 100.224 64.224 99.474 64.224 99.474C61.824 98.832 61.728 95.802 62.142 93.474L56.148 89.028Z" fill="#B55B52"/>
<path d="M56.148 99.396C56.466 98.838 55.878 97.476 55.776 96.324C55.674 95.172 56.898 95.502 58.35 95.85C59.802 96.198 63.504 94.65 63.654 95.976C63.804 97.302 63.9 98.874 64.452 99.102C65.004 99.33 64.074 101.076 61.548 101.628C59.022 102.18 55.428 100.656 56.148 99.396Z" fill="#236DC8"/>
<path opacity="0.1" d="M56.352 97.092C58.2649 97.4265 60.2126 97.5152 62.148 97.356C61.326 97.902 57.912 98.202 56.352 97.092Z" fill="black"/>
<path opacity="0.2" d="M58.596 90.834L62.142 93.456C62.0343 94.0016 61.976 94.5559 61.968 95.112C60.696 95.016 58.638 94.08 58.266 92.712C58.092 92.088 58.506 91.152 58.596 90.834Z" fill="black"/>
<path d="M52.404 83.508C53.514 88.35 53.88 90.42 56.766 92.508C61.11 95.67 66.81 93.246 67.17 88.17C67.494 83.604 65.622 76.452 60.51 75.3C59.3832 75.0395 58.2085 75.0719 57.0978 75.394C55.987 75.7161 54.9772 76.3172 54.1646 77.1401C53.3519 77.9629 52.7635 78.9802 52.4553 80.0948C52.1471 81.2095 52.1295 82.3845 52.404 83.508V83.508Z" fill="#B55B52"/>
<path d="M54.45 75.852C57.168 75.102 62.526 72.126 66.24 78.21C65.892 79.044 62.214 79.41 62.214 79.41C62.214 79.41 61.698 77.256 60.66 76.572C61.0104 77.5754 61.2734 78.6073 61.446 79.656C61.446 79.656 57.054 81.21 55.008 81.072C52.962 80.934 52.002 76.524 54.45 75.852Z" fill="#2E3033"/>
<path d="M73.062 129.798C73.062 129.798 79.704 167.982 80.442 183.198C81.216 199.062 74.604 236.73 74.604 236.73H67.836C67.836 236.73 69.798 200.79 68.106 185.28C66.264 168.402 58.2 130.842 58.2 130.842L73.062 129.798Z" fill="#2E3033"/>
<path d="M67.254 237.006H75.192L75.774 234.474L66.882 234.162L67.254 237.006Z" fill="#236DC8"/>
<path opacity="0.2" d="M64.986 139.986C70.674 149.652 67.986 168.186 66.69 175.134C65.07 164.982 62.67 152.604 60.84 143.52C61.23 138.282 62.364 135.528 64.986 139.986Z" fill="black"/>
<path d="M67.704 130.2C67.704 130.2 65.904 170.508 63.354 183.6C60.306 199.128 47.448 228.408 47.448 228.408L40.986 226.062C40.986 226.062 48.048 195.462 50.232 185.562C54.198 167.562 48.198 142.818 52.782 131.262L67.704 130.2Z" fill="#2E3033"/>
<path d="M39.918 226.362L47.844 229.326L49.626 227.148L40.452 223.236L39.918 226.362Z" fill="#236DC8"/>
<path d="M60.42 83.514C60.486 83.91 60.75 84.198 61.02 84.156C61.29 84.114 61.44 83.754 61.374 83.358C61.308 82.962 61.044 82.668 60.774 82.716C60.504 82.764 60.354 83.112 60.42 83.514Z" fill="#2E3033"/>
<path d="M64.92 82.8C64.986 83.196 65.25 83.484 65.52 83.442C65.79 83.4 65.94 83.04 65.874 82.644C65.808 82.248 65.544 81.954 65.274 81.996C65.004 82.038 64.854 82.368 64.92 82.8Z" fill="#2E3033"/>
<path d="M65.16 82.008L66.072 81.576C66.072 81.576 65.706 82.404 65.16 82.008Z" fill="#2E3033"/>
<path d="M63.654 83.712C64.1553 84.5638 64.7733 85.3413 65.49 86.022C65.311 86.2 65.0954 86.3368 64.858 86.4228C64.6207 86.5088 64.3675 86.542 64.116 86.52L63.654 83.712Z" fill="#A02724"/>
<path d="M62.202 88.44C62.4032 88.4392 62.6039 88.4211 62.802 88.386C62.817 88.3836 62.8313 88.3784 62.8443 88.3704C62.8572 88.3625 62.8684 88.3521 62.8773 88.3399C62.8863 88.3276 62.8927 88.3137 62.8962 88.299C62.8998 88.2843 62.9004 88.269 62.898 88.254C62.8956 88.239 62.8903 88.2247 62.8824 88.2117C62.8745 88.1988 62.8641 88.1876 62.8519 88.1787C62.8396 88.1697 62.8257 88.1633 62.811 88.1598C62.7963 88.1562 62.781 88.1556 62.766 88.158C62.2719 88.2494 61.7632 88.2238 61.2808 88.0831C60.7983 87.9424 60.3556 87.6907 59.988 87.348C59.9781 87.334 59.9654 87.3222 59.9506 87.3135C59.9358 87.3048 59.9194 87.2994 59.9023 87.2976C59.8853 87.2958 59.868 87.2977 59.8518 87.3032C59.8355 87.3086 59.8206 87.3175 59.808 87.3292C59.7955 87.3408 59.7856 87.3551 59.779 87.3709C59.7724 87.3867 59.7693 87.4038 59.7699 87.4209C59.7704 87.4381 59.7747 87.4549 59.7823 87.4703C59.7899 87.4856 59.8007 87.4992 59.814 87.51C60.1301 87.8162 60.5042 88.0561 60.9142 88.2158C61.3243 88.3755 61.7621 88.4517 62.202 88.44V88.44Z" fill="#2E3033"/>
<path d="M53.928 86.928C56.274 84.126 57.048 79.476 53.802 76.602C51.702 78.726 49.848 85.2 53.928 86.928Z" fill="#2E3033"/>
<path d="M51.6 87.564C52.0246 88.4245 52.7701 89.0838 53.676 89.4C54.876 89.802 55.548 88.74 55.266 87.564C55.014 86.508 54.066 85.032 52.866 85.134C52.5955 85.1611 52.336 85.2551 52.1109 85.4075C51.8858 85.5599 51.7022 85.7659 51.5766 86.007C51.451 86.2481 51.3874 86.5167 51.3914 86.7885C51.3955 87.0603 51.4672 87.3268 51.6 87.564V87.564Z" fill="#B55B52"/>
<path d="M58.626 82.32C58.6763 82.3261 58.7272 82.3152 58.7707 82.2892C58.8142 82.2631 58.8477 82.2233 58.866 82.176C59.304 81.174 60.666 80.88 60.702 80.874C60.7323 80.8683 60.7611 80.8566 60.7867 80.8395C60.8123 80.8224 60.8341 80.8002 60.851 80.7745C60.8678 80.7487 60.8792 80.7197 60.8845 80.6894C60.8899 80.6591 60.889 80.628 60.882 80.598C60.8778 80.5659 60.8669 80.535 60.8501 80.5073C60.8333 80.4796 60.811 80.4557 60.7845 80.4371C60.758 80.4185 60.7279 80.4056 60.6961 80.3992C60.6644 80.3928 60.6316 80.3931 60.6 80.4C60.534 80.4 58.962 80.748 58.428 81.978C58.4151 82.0063 58.4079 82.0369 58.407 82.068C58.406 82.0992 58.4113 82.1302 58.4225 82.1592C58.4336 82.1883 58.4505 82.2148 58.472 82.2373C58.4936 82.2597 58.5194 82.2776 58.548 82.29C58.5709 82.3066 58.5978 82.317 58.626 82.32V82.32Z" fill="#2E3033"/>
<path d="M66.528 80.346C66.5688 80.3519 66.6104 80.3467 66.6484 80.3308C66.6865 80.315 66.7195 80.2891 66.744 80.256C66.7627 80.2313 66.7764 80.2031 66.7841 80.173C66.7919 80.143 66.7936 80.1117 66.7891 80.0809C66.7846 80.0502 66.7741 80.0207 66.7581 79.9941C66.7421 79.9675 66.721 79.9444 66.696 79.926C66.4037 79.689 66.0586 79.526 65.6899 79.4508C65.3212 79.3756 64.9398 79.3904 64.578 79.494C64.5191 79.5147 64.4709 79.5579 64.4439 79.6142C64.4169 79.6704 64.4133 79.7351 64.434 79.794C64.4547 79.8529 64.4979 79.9011 64.5542 79.9281C64.6104 79.9551 64.6751 79.9587 64.734 79.938C65.0221 79.8628 65.324 79.8568 65.6149 79.9204C65.9058 79.984 66.1775 80.1154 66.408 80.304C66.4431 80.3294 66.4848 80.344 66.528 80.346V80.346Z" fill="#2E3033"/>
<path d="M46.8 235.842H46.86C46.9694 235.808 47.0683 235.747 47.1471 235.664C47.226 235.581 47.2821 235.479 47.31 235.368C47.336 235.302 47.3442 235.23 47.3336 235.159C47.3231 235.088 47.2943 235.022 47.25 234.966C46.842 234.468 45.048 234.678 44.85 234.702C44.8261 234.703 44.8031 234.711 44.7847 234.727C44.7662 234.742 44.7533 234.763 44.748 234.786C44.7418 234.809 44.7425 234.833 44.75 234.855C44.7575 234.878 44.7714 234.897 44.79 234.912C45.258 235.302 46.2 235.962 46.8 235.842ZM45.156 234.888C45.876 234.828 46.854 234.834 47.064 235.098C47.0813 235.124 47.0905 235.154 47.0905 235.185C47.0905 235.216 47.0813 235.246 47.064 235.272C47.0477 235.347 47.012 235.416 46.9604 235.473C46.9087 235.53 46.8431 235.572 46.77 235.596C46.44 235.698 45.846 235.428 45.138 234.888H45.156Z" fill="#236DC8"/>
<path d="M45.03 234.894C45.63 234.774 46.704 234.294 46.83 233.766C46.8554 233.675 46.8483 233.578 46.81 233.491C46.7717 233.405 46.7045 233.334 46.62 233.292C46.5435 233.243 46.4574 233.21 46.3674 233.197C46.2774 233.183 46.1856 233.189 46.098 233.214C45.396 233.406 44.754 234.69 44.724 234.75C44.714 234.767 44.7087 234.787 44.7087 234.807C44.7087 234.827 44.714 234.847 44.724 234.864C44.7351 234.881 44.7503 234.895 44.7681 234.904C44.7859 234.914 44.8058 234.918 44.826 234.918C44.8946 234.916 44.9629 234.908 45.03 234.894V234.894ZM46.23 233.436C46.2791 233.424 46.3302 233.422 46.3799 233.432C46.4295 233.441 46.4766 233.461 46.518 233.49C46.65 233.574 46.644 233.652 46.632 233.706C46.542 234.042 45.672 234.522 45.078 234.648C45.318 234.234 45.774 233.556 46.194 233.448L46.23 233.436Z" fill="#236DC8"/>
<path d="M75.432 243.828C75.855 243.863 76.2775 243.755 76.632 243.522C76.7144 243.447 76.7773 243.354 76.8149 243.249C76.8526 243.144 76.864 243.032 76.848 242.922C76.8433 242.857 76.8221 242.794 76.7864 242.74C76.7507 242.685 76.7017 242.64 76.644 242.61C76.044 242.274 74.04 243.294 73.812 243.408C73.7907 243.421 73.7736 243.44 73.763 243.462C73.7523 243.484 73.7485 243.509 73.752 243.534C73.7543 243.558 73.7644 243.58 73.7807 243.597C73.797 243.615 73.8185 243.626 73.842 243.63C74.3647 243.745 74.897 243.812 75.432 243.828V243.828ZM76.326 242.79C76.4009 242.788 76.4752 242.804 76.542 242.838C76.5668 242.849 76.5879 242.866 76.6028 242.888C76.6178 242.911 76.6258 242.937 76.626 242.964C76.6359 243.033 76.6285 243.104 76.6044 243.17C76.5804 243.236 76.5404 243.295 76.488 243.342C76.182 243.618 75.36 243.666 74.25 243.48C74.8979 243.134 75.5999 242.901 76.326 242.79V242.79Z" fill="#236DC8"/>
<path d="M73.878 243.654H73.926C74.526 243.384 75.726 242.304 75.612 241.734C75.612 241.602 75.498 241.434 75.168 241.404C75.0498 241.39 74.93 241.4 74.8162 241.436C74.7025 241.471 74.5975 241.529 74.508 241.608C73.908 242.13 73.764 243.48 73.764 243.534C73.7606 243.555 73.7634 243.576 73.7719 243.595C73.7804 243.614 73.7944 243.631 73.812 243.642C73.8325 243.652 73.8553 243.656 73.878 243.654V243.654ZM75.078 241.62H75.15C75.366 241.62 75.378 241.728 75.384 241.758C75.438 242.1 74.64 242.958 74.034 243.312C74.0779 242.744 74.3006 242.204 74.67 241.77C74.7823 241.675 74.9246 241.621 75.072 241.62H75.078Z" fill="#236DC8"/>
<path d="M60.66 82.752L61.572 82.32C61.572 82.32 61.2 83.148 60.66 82.752Z" fill="#2E3033"/>
<path d="M52.398 130.056L52.008 131.91C51.942 132.054 52.122 132.186 52.356 132.168L73.2 130.704C73.386 130.704 73.53 130.59 73.53 130.476L73.59 128.646C73.59 128.52 73.428 128.424 73.224 128.436L52.692 129.882C52.6324 129.884 52.5744 129.902 52.523 129.932C52.4717 129.962 52.4288 130.005 52.398 130.056V130.056Z" fill="white"/>
<path d="M55.386 132.156L54.834 132.192C54.726 132.192 54.636 132.15 54.642 132.078L54.732 129.678C54.732 129.612 54.828 129.546 54.936 129.54L55.488 129.498C55.596 129.498 55.68 129.546 55.68 129.612L55.59 132.012C55.584 132.084 55.494 132.144 55.386 132.156Z" fill="#2E3033"/>
<path d="M71.694 131.01L71.142 131.046C71.034 131.046 70.944 131.004 70.95 130.932L71.04 128.532C71.04 128.466 71.136 128.4 71.244 128.394L71.796 128.352C71.904 128.352 71.994 128.394 71.988 128.466L71.898 130.866C71.892 130.938 71.802 130.998 71.694 131.01Z" fill="#2E3033"/>
<path d="M63.6 131.58L63.054 131.616C62.94 131.616 62.856 131.574 62.856 131.502L62.952 129.102C62.952 129.036 63.042 128.97 63.156 128.964L63.702 128.922C63.816 128.922 63.9 128.97 63.9 129.036L63.804 131.436C63.774 131.508 63.684 131.568 63.6 131.58Z" fill="#2E3033"/>
<path d="M50.22 107.22C50.424 108.75 50.616 110.346 50.862 111.9C51.108 113.454 51.324 115.026 51.618 116.556C51.912 118.086 52.218 119.598 52.638 120.996C52.8143 121.624 53.039 122.238 53.31 122.832C53.37 122.97 53.424 123.03 53.472 123.126C53.4972 123.17 53.5253 123.212 53.556 123.252C53.6656 123.371 53.7983 123.467 53.946 123.534C54.469 123.775 55.0251 123.937 55.596 124.014C56.2951 124.12 57.0009 124.177 57.708 124.182C59.2335 124.191 60.7582 124.109 62.274 123.936C63.822 123.774 65.382 123.54 66.942 123.258C68.502 122.976 70.074 122.658 71.604 122.358L72.372 124.758C70.818 125.388 69.27 125.898 67.692 126.396C66.114 126.894 64.512 127.29 62.892 127.644C61.2186 128.019 59.5201 128.272 57.81 128.4C56.9032 128.466 55.9928 128.466 55.086 128.4C54.0554 128.329 53.0426 128.094 52.086 127.704C51.4903 127.452 50.9391 127.106 50.454 126.678C50.1924 126.439 49.9515 126.178 49.734 125.898C49.566 125.652 49.374 125.388 49.254 125.166C48.7702 124.331 48.3683 123.451 48.054 122.538C47.497 120.922 47.0421 119.273 46.692 117.6C46.332 115.968 46.032 114.342 45.768 112.716C45.504 111.09 45.294 109.47 45.168 107.796L50.22 107.22Z" fill="#B55B52"/>
<path d="M47.064 101.202C42.45 102.498 45.45 118.848 45.45 118.848L52.602 116.892C52.602 116.892 53.868 108.168 52.83 105.6C51.75 102.93 49.398 100.542 47.064 101.202Z" fill="#236DC8"/>
<path d="M45.126 117.936C45.1423 118.37 45.2442 118.796 45.426 119.19C45.636 119.502 51.99 117.588 52.488 117.324C52.986 117.06 52.914 115.974 52.89 115.788C52.866 115.602 45.066 117.408 45.126 117.936Z" fill="#236DC8"/>
<path opacity="0.1" d="M45.126 117.936C45.1423 118.37 45.2442 118.796 45.426 119.19C45.636 119.502 51.99 117.588 52.488 117.324C52.986 117.06 52.914 115.974 52.89 115.788C52.866 115.602 45.066 117.408 45.126 117.936Z" fill="black"/>
<path d="M169.842 108.75C162.508 103.446 153.368 101.272 144.432 102.707C135.495 104.141 127.495 109.067 122.19 116.4C114.853 111.13 105.727 108.983 96.8099 110.431C87.8933 111.878 79.9143 116.802 74.6217 124.123C69.3292 131.443 67.1549 140.563 68.5755 149.484C69.996 158.405 74.8955 166.399 82.2 171.714L137.508 211.71L177.504 156.402C182.807 149.067 184.979 139.926 183.542 130.989C182.105 122.053 177.177 114.053 169.842 108.75V108.75Z" fill="#236DC8"/>
<path opacity="0.2" d="M169.842 108.75C162.508 103.446 153.368 101.272 144.432 102.707C135.495 104.141 127.495 109.067 122.19 116.4C114.853 111.13 105.727 108.983 96.8099 110.431C87.8933 111.878 79.9143 116.802 74.6217 124.123C69.3292 131.443 67.1549 140.563 68.5755 149.484C69.996 158.405 74.8955 166.399 82.2 171.714L137.508 211.71L177.504 156.402C182.807 149.067 184.979 139.926 183.542 130.989C182.105 122.053 177.177 114.053 169.842 108.75V108.75Z" fill="white"/>
<path d="M79.44 123.096L77.286 126.774L73.302 125.826L75.636 121.302L79.44 123.096Z" fill="#B55B52"/>
<path d="M70.854 122.4L75.654 121.308L73.32 125.832C73.32 125.832 70.104 125.916 69.078 124.11L70.062 122.91C70.262 122.657 70.5407 122.477 70.854 122.4V122.4Z" fill="#B55B52"/>
</g>
<defs>
<filter id="filter0_d_81_191" x="-16" y="-12" width="332" height="332" filterUnits="userSpaceOnUse" color-interpolation-filters="sRGB">
<feFlood flood-opacity="0" result="BackgroundImageFix"/>
<feColorMatrix in="SourceAlpha" type="matrix" values="0 0 0 0 0 0 0 0 0 0 0 0 0 0 0 0 0 0 127 0" result="hardAlpha"/>
<feOffset dy="4"/>
<feGaussianBlur stdDeviation="8"/>
<feComposite in2="hardAlpha" operator="out"/>
<feColorMatrix type="matrix" values="0 0 0 0 0 0 0 0 0 0 0 0 0 0 0 0 0 0 0.25 0"/>
<feBlend mode="normal" in2="BackgroundImageFix" result="effect1_dropShadow_81_191"/>
<feBlend mode="normal" in="SourceGraphic" in2="effect1_dropShadow_81_191" result="shape"/>
</filter>
</defs>
</svg>
