<svg width="34" height="50" viewBox="0 0 34 50" fill="none" xmlns="http://www.w3.org/2000/svg">
<path d="M24.7312 8.6021L18.2796 2.94619C17.6882 2.4172 16.9225 2.12476 16.1291 2.12476C15.3356 2.12476 14.5699 2.4172 13.9785 2.94619L7.52691 8.6021C7.18537 8.90756 6.91282 9.28227 6.72742 9.70129C6.54201 10.1203 6.448 10.574 6.45164 11.0322V20.4301C6.45164 21.2856 6.7915 22.1061 7.39646 22.7111C8.00141 23.316 8.82191 23.6559 9.67745 23.6559H22.5807C23.4362 23.6559 24.2567 23.316 24.8617 22.7111C25.4666 22.1061 25.8065 21.2856 25.8065 20.4301V11.0215C25.8086 10.5651 25.7138 10.1134 25.5285 9.69638C25.3431 9.27933 25.0714 8.90636 24.7312 8.6021ZM18.2796 21.5053H13.9785V16.129C13.9785 15.8438 14.0918 15.5703 14.2935 15.3687C14.4951 15.167 14.7686 15.0537 15.0538 15.0537H17.2043C17.4895 15.0537 17.763 15.167 17.9647 15.3687C18.1663 15.5703 18.2796 15.8438 18.2796 16.129V21.5053ZM23.6559 20.4301C23.6559 20.7152 23.5427 20.9887 23.341 21.1904C23.1394 21.392 22.8659 21.5053 22.5807 21.5053H20.4301V16.129C20.4301 15.2734 20.0903 14.4529 19.4853 13.848C18.8804 13.243 18.0599 12.9032 17.2043 12.9032H15.0538C14.1983 12.9032 13.3778 13.243 12.7728 13.848C12.1678 14.4529 11.828 15.2734 11.828 16.129V21.5053H9.67745C9.39227 21.5053 9.11877 21.392 8.91712 21.1904C8.71547 20.9887 8.60218 20.7152 8.60218 20.4301V11.0215C8.60237 10.8688 8.63507 10.7179 8.69811 10.5789C8.76115 10.4398 8.85307 10.3158 8.96777 10.215L15.4194 4.56984C15.6156 4.39746 15.8679 4.30239 16.1291 4.30239C16.3903 4.30239 16.6425 4.39746 16.8387 4.56984L23.2903 10.215C23.405 10.3158 23.497 10.4398 23.56 10.5789C23.623 10.7179 23.6557 10.8688 23.6559 11.0215V20.4301Z" fill="#2E3033"/>
<path d="M7.04036 39.0322H7.82531V46.5591H7.04036V39.0322ZM2.33069 46.5591H1.53499V39.0322H2.33069V46.5591ZM7.11563 43.086H2.24467V42.387H7.11563V43.086ZM12.4218 46.6128C11.877 46.6128 11.386 46.491 10.9487 46.2473C10.5186 45.9964 10.1781 45.6559 9.92721 45.2257C9.67631 44.7885 9.55086 44.2903 9.55086 43.7311C9.55086 43.1648 9.67631 42.6666 9.92721 42.2365C10.1781 41.8064 10.5186 41.4695 10.9487 41.2257C11.3788 40.982 11.8699 40.8602 12.4218 40.8602C12.981 40.8602 13.4756 40.982 13.9057 41.2257C14.343 41.4695 14.6835 41.8064 14.9272 42.2365C15.1781 42.6666 15.3036 43.1648 15.3036 43.7311C15.3036 44.2903 15.1781 44.7885 14.9272 45.2257C14.6835 45.6559 14.343 45.9964 13.9057 46.2473C13.4684 46.491 12.9738 46.6128 12.4218 46.6128ZM12.4218 45.9354C12.8304 45.9354 13.1924 45.8458 13.5079 45.6666C13.8233 45.4802 14.0706 45.2222 14.2498 44.8924C14.4362 44.5555 14.5294 44.1684 14.5294 43.7311C14.5294 43.2867 14.4362 42.8996 14.2498 42.5698C14.0706 42.2401 13.8233 41.9856 13.5079 41.8064C13.1924 41.62 12.834 41.5268 12.4326 41.5268C12.0312 41.5268 11.6727 41.62 11.3573 41.8064C11.0419 41.9856 10.791 42.2401 10.6046 42.5698C10.4182 42.8996 10.3251 43.2867 10.3251 43.7311C10.3251 44.1684 10.4182 44.5555 10.6046 44.8924C10.791 45.2222 11.0419 45.4802 11.3573 45.6666C11.6727 45.8458 12.0276 45.9354 12.4218 45.9354ZM23.916 40.8602C24.3747 40.8602 24.7726 40.9498 25.1095 41.129C25.4536 41.301 25.7188 41.5663 25.9052 41.9247C26.0987 42.2831 26.1955 42.7347 26.1955 43.2795V46.5591H25.4321V43.3548C25.4321 42.7598 25.2887 42.3118 25.002 42.0107C24.7224 41.7025 24.3246 41.5483 23.8084 41.5483C23.4213 41.5483 23.0844 41.6308 22.7977 41.7956C22.5181 41.9533 22.2995 42.1863 22.1418 42.4946C21.9912 42.7956 21.916 43.1612 21.916 43.5913V46.5591H21.1525V43.3548C21.1525 42.7598 21.0091 42.3118 20.7224 42.0107C20.4357 41.7025 20.0342 41.5483 19.5181 41.5483C19.1382 41.5483 18.8048 41.6308 18.5181 41.7956C18.2314 41.9533 18.0091 42.1863 17.8514 42.4946C17.7009 42.7956 17.6256 43.1612 17.6256 43.5913V46.5591H16.8622V40.9139H17.5934V42.4408L17.4751 42.172C17.6471 41.7634 17.9231 41.4444 18.303 41.215C18.6901 40.9784 19.1453 40.8602 19.6686 40.8602C20.2206 40.8602 20.6901 40.9999 21.0772 41.2795C21.4643 41.5519 21.7152 41.9641 21.8299 42.5161L21.5289 42.3978C21.6937 41.939 21.9841 41.5698 22.3998 41.2903C22.8228 41.0035 23.3281 40.8602 23.916 40.8602ZM30.6638 46.6128C30.076 46.6128 29.5598 46.491 29.1154 46.2473C28.6709 45.9964 28.3233 45.6559 28.0724 45.2257C27.8215 44.7885 27.696 44.2903 27.696 43.7311C27.696 43.172 27.8143 42.6774 28.0509 42.2473C28.2946 41.8171 28.6243 41.4802 29.0401 41.2365C29.4631 40.9856 29.9362 40.8602 30.4595 40.8602C30.9899 40.8602 31.4595 40.982 31.8681 41.2257C32.2838 41.4623 32.61 41.7992 32.8466 42.2365C33.0831 42.6666 33.2014 43.1648 33.2014 43.7311C33.2014 43.767 33.1978 43.8064 33.1907 43.8494C33.1907 43.8852 33.1907 43.9247 33.1907 43.9677H28.2767V43.3978H32.782L32.481 43.6236C32.481 43.215 32.3914 42.853 32.2122 42.5376C32.0401 42.215 31.8036 41.9641 31.5025 41.7849C31.2014 41.6057 30.8537 41.5161 30.4595 41.5161C30.0724 41.5161 29.7247 41.6057 29.4165 41.7849C29.1082 41.9641 28.8681 42.215 28.696 42.5376C28.524 42.8602 28.438 43.2293 28.438 43.6451V43.7634C28.438 44.1935 28.5312 44.5734 28.7175 44.9032C28.9111 45.2257 29.1763 45.4802 29.5132 45.6666C29.8573 45.8458 30.248 45.9354 30.6853 45.9354C31.0294 45.9354 31.3484 45.8745 31.6423 45.7526C31.9433 45.6308 32.2014 45.4444 32.4165 45.1935L32.8466 45.6881C32.5957 45.9892 32.2803 46.2186 31.9003 46.3763C31.5276 46.534 31.1154 46.6128 30.6638 46.6128Z" fill="#2E3033"/>
</svg>
