<svg width="300" height="300" viewBox="0 0 300 300" fill="none" xmlns="http://www.w3.org/2000/svg">
<g filter="url(#filter0_d_81_375)">
<path d="M178.494 78C196.602 67.35 219.552 55.62 238.302 78.996C253.512 97.95 243.384 125.91 230.952 140.742C216.642 157.812 193.554 154.05 174.552 164.058C155.172 174.258 161.46 204.258 142.008 212.874C123.09 221.274 95.862 201.618 84.858 185.874C71.37 166.578 72.378 142.968 76.494 123.138C80.88 102.012 91.284 81.366 116.304 77.688C139.464 74.268 157.026 90.6 178.494 78Z" fill="#236DC8"/>
<path opacity="0.9" d="M178.494 78C196.602 67.35 219.552 55.62 238.302 78.996C253.512 97.95 243.384 125.91 230.952 140.742C216.642 157.812 193.554 154.05 174.552 164.058C155.172 174.258 161.46 204.258 142.008 212.874C123.09 221.274 95.862 201.618 84.858 185.874C71.37 166.578 72.378 142.968 76.494 123.138C80.88 102.012 91.284 81.366 116.304 77.688C139.464 74.268 157.026 90.6 178.494 78Z" fill="white"/>
<path d="M150 256.536C214.249 256.536 266.334 253.495 266.334 249.744C266.334 245.993 214.249 242.952 150 242.952C85.7505 242.952 33.666 245.993 33.666 249.744C33.666 253.495 85.7505 256.536 150 256.536Z" fill="#F5F5F5"/>
<path d="M167.592 238.698L163.26 237.414L165.072 227.034L169.41 228.312L167.592 238.698Z" fill="#FFB573"/>
<path d="M205.236 245.124H200.712L199.584 234.654H204.108L205.236 245.124Z" fill="#FFB573"/>
<path d="M200.34 244.602H205.854C205.944 244.6 206.031 244.63 206.101 244.686C206.171 244.741 206.22 244.82 206.238 244.908L207.132 248.928C207.154 249.026 207.153 249.127 207.13 249.225C207.107 249.322 207.062 249.413 206.998 249.491C206.934 249.568 206.854 249.63 206.763 249.672C206.672 249.714 206.572 249.734 206.472 249.732C204.672 249.702 203.4 249.6 201.168 249.6C199.794 249.6 195.648 249.744 193.752 249.744C191.856 249.744 191.604 247.866 192.378 247.698C195.864 246.936 198.492 245.898 199.608 244.878C199.809 244.698 200.07 244.6 200.34 244.602Z" fill="#263238"/>
<path d="M163.434 236.922L168.174 238.326C168.259 238.352 168.334 238.405 168.385 238.478C168.436 238.551 168.461 238.639 168.456 238.728L168.168 242.838C168.163 242.938 168.136 243.036 168.087 243.125C168.039 243.213 167.971 243.289 167.889 243.346C167.807 243.404 167.712 243.443 167.613 243.458C167.514 243.474 167.412 243.467 167.316 243.438C165.618 242.904 163.182 242.07 161.034 241.44C158.52 240.696 156.312 240.192 153.366 239.322C151.566 238.794 151.626 236.85 152.418 236.922C156.018 237.186 158.826 237.924 162.294 236.982C162.661 236.857 163.056 236.837 163.434 236.922V236.922Z" fill="#263238"/>
<path d="M194.94 107.064C192.618 108.714 190.29 110.226 187.884 111.702C185.478 113.178 183.042 114.564 180.504 115.866L179.55 116.352L179.286 116.484L178.848 116.688C178.551 116.808 178.246 116.908 177.936 116.988C176.803 117.268 175.619 117.268 174.486 116.988C172.776 116.531 171.185 115.712 169.818 114.588C167.487 112.688 165.485 110.415 163.896 107.862L166.518 105.708C168.444 107.414 170.535 108.925 172.758 110.22C173.629 110.741 174.593 111.088 175.596 111.24C175.824 111.276 176.057 111.238 176.262 111.132C176.284 111.119 176.305 111.103 176.322 111.084L176.352 111.054L176.538 110.94L177.396 110.406C179.676 108.972 181.956 107.478 184.224 105.966L191.04 101.448L194.94 107.064Z" fill="#FFB573"/>
<path d="M181.962 105.714L186.882 116.334C208.656 109.134 201.948 92.4 181.962 105.714Z" fill="#263238"/>
<path opacity="0.2" d="M193.524 106.254C190.731 108.972 188.68 112.359 187.566 116.094C191.994 114.558 195.174 112.614 197.262 110.64L193.524 106.254Z" fill="black"/>
<path d="M167.004 106.704L165.402 102.156L161.574 105.756C161.847 106.383 162.248 106.945 162.753 107.406C163.257 107.867 163.853 108.217 164.502 108.432L167.004 106.704Z" fill="#FFB573"/>
<path d="M162.81 100.938L159.828 104.244L161.574 105.75L165.402 102.156L162.81 100.938Z" fill="#FFB573"/>
<path opacity="0.2" d="M165.072 227.034L164.136 232.386L168.474 233.67L169.41 228.318L165.072 227.034Z" fill="black"/>
<path opacity="0.2" d="M204.108 234.654H199.584L200.166 240.054H204.69L204.108 234.654Z" fill="black"/>
<path d="M215.592 104.616C215.922 104.735 216.226 104.92 216.484 105.158C216.742 105.396 216.951 105.683 217.096 106.003C217.242 106.322 217.323 106.668 217.333 107.019C217.344 107.37 217.284 107.72 217.158 108.048C215.686 111.953 214.442 115.939 213.432 119.988C212.574 123.414 211.902 126.702 211.362 129.69C210.102 136.698 209.562 142.092 209.142 143.886L185.4 139.2C189.834 103.926 193.23 100.896 193.23 100.896C195.168 100.775 197.112 100.775 199.05 100.896C199.45 100.92 199.864 100.956 200.292 101.004C203.692 101.47 207.061 102.133 210.384 102.99C210.984 103.146 211.65 103.32 212.268 103.506C213.486 103.884 214.638 104.274 215.592 104.616Z" fill="#263238"/>
<path opacity="0.2" d="M211.284 111.288C210.78 114.955 211.358 118.69 212.946 122.034C213.096 121.356 213.264 120.678 213.432 119.994C214.08 117.42 214.836 114.768 215.724 112.104L211.284 111.288Z" fill="black"/>
<path d="M211.638 91.458L204.396 95.526C204.534 98.172 204.096 100.872 200.304 101.022C199.47 101.982 198.636 104.244 201.372 106.254L200.772 108.12C206.172 107.724 209.25 104.778 210.372 103.014C208.548 100.398 210.36 94.578 211.638 91.458Z" fill="#FFB573"/>
<path d="M193.8 141C193.761 140.994 193.726 140.973 193.703 140.942C193.679 140.91 193.669 140.871 193.674 140.832C196.272 120.72 201.174 106.332 201.222 106.188C201.237 106.151 201.264 106.121 201.3 106.104C201.335 106.086 201.376 106.082 201.414 106.092C201.452 106.106 201.482 106.133 201.5 106.169C201.518 106.205 201.522 106.246 201.51 106.284C201.456 106.428 196.566 120.792 193.968 140.868C193.967 140.888 193.961 140.908 193.952 140.925C193.942 140.943 193.929 140.959 193.913 140.971C193.898 140.984 193.879 140.993 193.86 140.998C193.84 141.003 193.82 141.003 193.8 141V141Z" fill="white"/>
<path d="M197.85 108C198.957 107.292 200.138 106.707 201.372 106.254C200.724 105.564 200.328 102.324 200.826 100.824H199.626C199.626 100.824 196.878 101.802 197.85 108Z" fill="white"/>
<path d="M205.566 109.926C205.16 108.921 204.486 108.047 203.616 107.4C205.566 106.8 208.902 105.132 210.036 102.168C210.498 102.546 211.236 103.074 211.236 103.074C211.236 103.074 212.4 107.526 205.566 109.926Z" fill="white"/>
<path d="M202.062 109.554C201.984 109.926 201.738 110.226 201.516 110.226C201.294 110.226 201.168 109.92 201.24 109.548C201.312 109.176 201.558 108.876 201.786 108.876C202.014 108.876 202.134 109.2 202.062 109.554Z" fill="white"/>
<path opacity="0.2" d="M208.686 93.12L204.402 95.52C204.442 96.138 204.428 96.7584 204.36 97.374C205.782 97.446 207.96 96.306 208.416 94.884C208.611 94.3169 208.702 93.7194 208.686 93.12V93.12Z" fill="black"/>
<path d="M204.372 77.922C201.276 78.672 199.8 85.014 203.676 87.162C211.242 85.458 213.102 75.804 204.372 77.922Z" fill="#263238"/>
<path d="M214.056 86.358C212.778 90.66 212.256 93.24 209.526 94.974C205.434 97.578 200.526 94.332 200.472 89.736C200.442 85.596 202.536 79.254 207.21 78.504C208.24 78.3348 209.296 78.4315 210.278 78.785C211.26 79.1384 212.135 79.7369 212.821 80.5237C213.507 81.3104 213.98 82.2594 214.196 83.2804C214.413 84.3015 214.364 85.3609 214.056 86.358V86.358Z" fill="#FFB573"/>
<path d="M214.914 80.4C210.516 79.338 209.196 88.584 213.066 90.732C222 88.71 219.546 81.498 214.914 80.4Z" fill="#263238"/>
<path d="M213.852 77.796C209.022 76.896 206.052 72.996 206.052 72.996C206.052 72.996 202.014 76.116 203.166 78.54C204.318 80.964 209.73 83.694 212.328 83.796C212.328 83.796 211.128 89.508 216.27 86.292C223.164 82.002 218.4 78.648 213.852 77.796Z" fill="#263238"/>
<path d="M217.926 83.736C219.145 84.4022 220.087 85.4806 220.584 86.778C220.962 83.4 218.622 83.646 217.926 83.736Z" fill="#263238"/>
<path d="M206.64 81C204.45 80.3267 202.573 78.8923 201.348 76.956C201.84 82.506 205.548 81.354 206.64 81Z" fill="#263238"/>
<path d="M204.492 90.486C205.004 90.6143 205.54 90.6186 206.054 90.4986C206.569 90.3786 207.047 90.1378 207.45 89.796C207.47 89.7739 207.481 89.745 207.481 89.715C207.481 89.685 207.47 89.6561 207.45 89.634C207.439 89.6233 207.427 89.6148 207.413 89.609C207.399 89.6032 207.384 89.6002 207.369 89.6002C207.354 89.6002 207.339 89.6032 207.325 89.609C207.311 89.6148 207.299 89.6233 207.288 89.634C206.913 89.9468 206.469 90.1669 205.992 90.2763C205.516 90.3858 205.02 90.3816 204.546 90.264C204.519 90.2636 204.492 90.2725 204.471 90.2893C204.449 90.3061 204.434 90.3298 204.428 90.3563C204.421 90.3829 204.424 90.4108 204.436 90.4355C204.448 90.4602 204.467 90.4801 204.492 90.492V90.486Z" fill="#263238"/>
<path d="M214.452 90.816C213.79 91.5373 212.878 91.981 211.902 92.058C210.672 92.124 210.474 90.858 211.164 89.784C211.764 88.8 213.18 87.588 214.248 88.038C215.316 88.488 215.304 89.898 214.452 90.816Z" fill="#FFB573"/>
<path d="M162.804 230.904L170.154 233.076C170.154 233.076 177.504 208.056 182.07 192.546C183.27 188.436 185.13 182.652 187.332 176.52C190.11 168.792 193.422 160.476 196.098 153.972C198.912 147.12 201.012 142.284 201.012 142.284L185.4 139.2C185.4 139.2 172.296 175.02 169.398 188.52C166.398 202.566 162.804 230.904 162.804 230.904Z" fill="#236DC8"/>
<path opacity="0.2" d="M187.332 176.52C190.11 168.792 193.422 160.476 196.098 153.972L194.898 150.246C190.416 154.398 187.56 168.6 187.332 176.52Z" fill="black"/>
<path d="M193.8 140.868C193.8 140.868 190.662 179.622 190.65 192.876C190.65 207.384 198.054 239.01 198.054 239.01H206.34C206.34 239.01 203.1 211.026 203.034 196.794C202.962 180.678 209.118 143.892 209.118 143.892L193.8 140.868Z" fill="#236DC8"/>
<path d="M197.088 239.184H206.844V236.274L195.936 236.082L197.088 239.184Z" fill="#263238"/>
<path d="M162.294 230.94L170.586 233.394L171.84 230.544L162.39 227.736L162.294 230.94Z" fill="#263238"/>
<path d="M207.15 86.046C207.072 86.4 206.814 86.646 206.58 86.592C206.346 86.538 206.226 86.208 206.31 85.854C206.394 85.5 206.646 85.254 206.88 85.308C207.114 85.362 207.234 85.692 207.15 86.046Z" fill="#263238"/>
<path d="M203.136 85.116C203.052 85.476 202.8 85.716 202.566 85.662C202.332 85.608 202.212 85.278 202.296 84.924C202.38 84.57 202.632 84.324 202.86 84.378C203.088 84.432 203.214 84.762 203.136 85.116Z" fill="#263238"/>
<path d="M204.372 85.59C203.697 86.578 202.89 87.4683 201.972 88.236C202.464 88.968 203.664 88.872 203.664 88.872L204.372 85.59Z" fill="#ED893E"/>
<path d="M208.698 85.038C208.659 85.0348 208.621 85.0216 208.588 84.9995C208.556 84.9774 208.529 84.9473 208.512 84.912C208.409 84.6594 208.245 84.4357 208.036 84.2601C207.827 84.0845 207.579 83.9623 207.312 83.904C207.257 83.8937 207.208 83.8623 207.175 83.8164C207.143 83.7704 207.129 83.7136 207.138 83.658C207.147 83.6016 207.178 83.5509 207.224 83.5172C207.27 83.4835 207.328 83.4694 207.384 83.478C207.716 83.553 208.025 83.7058 208.285 83.9239C208.546 84.1419 208.751 84.4189 208.884 84.732C208.907 84.7847 208.908 84.8441 208.888 84.8977C208.868 84.9514 208.828 84.9952 208.776 85.02C208.751 85.0294 208.725 85.0354 208.698 85.038Z" fill="#263238"/>
<path d="M201.732 83.334C201.687 83.331 201.644 83.3165 201.606 83.292C201.563 83.2547 201.535 83.2021 201.53 83.145C201.524 83.088 201.541 83.031 201.576 82.986C201.787 82.7125 202.06 82.4942 202.374 82.35C202.687 82.2057 203.031 82.1398 203.376 82.158C203.407 82.1569 203.438 82.1623 203.466 82.174C203.495 82.1857 203.52 82.2034 203.541 82.2259C203.562 82.2483 203.579 82.2751 203.588 82.3042C203.598 82.3334 203.602 82.3644 203.599 82.395C203.596 82.4257 203.586 82.4554 203.571 82.4821C203.556 82.5087 203.535 82.5318 203.509 82.5497C203.484 82.5676 203.456 82.5799 203.425 82.5858C203.395 82.5918 203.364 82.5911 203.334 82.584C203.065 82.5779 202.799 82.6356 202.557 82.7524C202.315 82.8692 202.104 83.0418 201.942 83.256C201.918 83.287 201.885 83.3106 201.848 83.3243C201.811 83.3381 201.771 83.3414 201.732 83.334V83.334Z" fill="#263238"/>
<path d="M198.846 245.4C198.538 245.424 198.231 245.341 197.976 245.166C197.895 245.098 197.832 245.011 197.793 244.912C197.755 244.814 197.741 244.707 197.754 244.602C197.754 244.54 197.77 244.478 197.802 244.424C197.834 244.37 197.879 244.326 197.934 244.296C198.438 244.038 199.896 244.938 200.058 245.04C200.076 245.051 200.091 245.067 200.099 245.086C200.108 245.106 200.11 245.127 200.106 245.148C200.103 245.169 200.094 245.189 200.081 245.205C200.067 245.221 200.048 245.232 200.028 245.238C199.641 245.335 199.245 245.389 198.846 245.4V245.4ZM198.174 244.464C198.129 244.453 198.081 244.453 198.036 244.464C198.013 244.476 197.994 244.494 197.981 244.516C197.968 244.539 197.962 244.564 197.964 244.59C197.956 244.662 197.966 244.735 197.992 244.803C198.018 244.871 198.06 244.932 198.114 244.98C198.619 245.208 199.191 245.236 199.716 245.058C199.246 244.76 198.722 244.556 198.174 244.458V244.464Z" fill="#236DC8"/>
<path d="M200.004 245.232H199.95C199.482 244.98 198.576 243.984 198.672 243.48C198.69 243.402 198.733 243.333 198.795 243.282C198.857 243.232 198.934 243.205 199.014 243.204C199.095 243.192 199.179 243.198 199.257 243.222C199.336 243.246 199.409 243.287 199.47 243.342C199.998 243.768 200.106 245.076 200.112 245.142C200.113 245.157 200.111 245.171 200.106 245.185C200.1 245.199 200.093 245.212 200.083 245.222C200.072 245.233 200.06 245.241 200.047 245.247C200.033 245.253 200.019 245.256 200.004 245.256V245.232ZM199.092 243.396H199.044C198.9 243.396 198.888 243.474 198.888 243.504C198.828 243.804 199.404 244.548 199.872 244.902C199.838 244.388 199.652 243.895 199.338 243.486C199.268 243.43 199.182 243.398 199.092 243.396Z" fill="#236DC8"/>
<path d="M162.834 237.396C162.096 237.33 160.8 237.132 160.434 236.568C160.382 236.487 160.351 236.394 160.342 236.298C160.334 236.202 160.349 236.105 160.386 236.016C160.405 235.96 160.438 235.91 160.482 235.871C160.527 235.832 160.58 235.806 160.638 235.794C161.238 235.662 162.732 237.054 162.9 237.21C162.912 237.229 162.919 237.251 162.919 237.273C162.919 237.295 162.912 237.317 162.9 237.336C162.895 237.351 162.886 237.364 162.874 237.374C162.863 237.385 162.849 237.392 162.834 237.396V237.396ZM160.716 235.998H160.686C160.664 236.003 160.643 236.014 160.626 236.03C160.609 236.046 160.597 236.066 160.59 236.088C160.559 236.145 160.543 236.209 160.543 236.274C160.543 236.339 160.559 236.403 160.59 236.46C160.788 236.772 161.49 237.024 162.492 237.15C161.922 236.61 161.07 235.962 160.716 235.998V235.998Z" fill="#236DC8"/>
<path d="M162.834 237.396C162.809 237.406 162.781 237.406 162.756 237.396C162.306 237.006 161.556 235.764 161.766 235.296C161.82 235.182 161.946 235.068 162.234 235.122C162.339 235.14 162.439 235.179 162.528 235.238C162.617 235.297 162.693 235.374 162.75 235.464C163.17 236.064 162.942 237.264 162.93 237.336C162.928 237.354 162.92 237.371 162.908 237.384C162.897 237.398 162.881 237.409 162.864 237.414L162.834 237.396ZM162.072 235.296C162.049 235.296 162.026 235.302 162.006 235.314C161.986 235.325 161.97 235.342 161.958 235.362C161.826 235.644 162.312 236.562 162.75 237.066C162.85 236.558 162.79 236.032 162.576 235.56C162.488 235.43 162.352 235.339 162.198 235.308C162.157 235.299 162.114 235.295 162.072 235.296V235.296Z" fill="#236DC8"/>
<path d="M216.6 105.84C216.948 106.188 217.2 106.44 217.464 106.734C217.728 107.028 217.986 107.334 218.238 107.61C218.742 108.21 219.234 108.81 219.708 109.41C220.655 110.633 221.535 111.907 222.342 113.226C223.162 114.567 223.893 115.96 224.532 117.396C225.193 118.869 225.72 120.4 226.104 121.968L226.248 122.568L226.386 123.27C226.446 123.732 226.506 124.194 226.524 124.644C226.564 125.515 226.534 126.388 226.434 127.254C226.242 128.86 225.878 130.442 225.348 131.97C224.335 134.874 222.922 137.623 221.148 140.136L218.148 138.498L218.796 136.566C219.012 135.912 219.192 135.246 219.396 134.592C219.76 133.298 220.058 131.986 220.29 130.662C220.515 129.421 220.63 128.162 220.632 126.9C220.632 126.333 220.583 125.767 220.488 125.208C220.45 124.951 220.398 124.697 220.332 124.446L220.23 124.098L220.086 123.672C219.215 121.265 218.043 118.977 216.6 116.862C215.868 115.77 215.082 114.696 214.26 113.652C213.86 113.124 213.44 112.608 213 112.104L212.4 111.36L211.8 110.682L216.6 105.84Z" fill="#FFB573"/>
<path d="M209.886 112.386C211.296 116.364 212.94 119.388 215.256 121.614L223.938 113.34C216 97.842 207.732 106.32 209.886 112.386Z" fill="#263238"/>
<path d="M218.73 137.784L215.34 140.88L220.656 143.136C220.656 143.136 222.96 139.86 221.358 138.444L218.73 137.784Z" fill="#FFB573"/>
<path d="M214.686 144.6L219.168 146.256L220.656 143.136L215.34 140.88L214.686 144.6Z" fill="#FFB573"/>
<path d="M134.352 56.904L99.186 65.544L96.882 60.648C96.7858 60.4412 96.6206 60.2743 96.4149 60.1758C96.2091 60.0773 95.9755 60.0533 95.754 60.108L73.974 65.46C73.7527 65.5151 73.5573 65.6449 73.4206 65.8274C73.284 66.01 73.2145 66.2342 73.224 66.462L73.452 71.862L59.4 75.318C59.0075 75.4159 58.6697 75.6653 58.4605 76.0116C58.2514 76.3579 58.1879 76.773 58.284 77.166L69.876 124.332C69.9231 124.527 70.0084 124.711 70.1269 124.874C70.2455 125.036 70.3949 125.173 70.5666 125.277C70.7384 125.382 70.9291 125.451 71.1277 125.481C71.3263 125.512 71.529 125.502 71.724 125.454L146.664 107.034C147.058 106.937 147.397 106.689 147.607 106.342C147.818 105.996 147.882 105.58 147.786 105.186L136.2 58.02C136.102 57.6274 135.853 57.2896 135.506 57.0805C135.16 56.8714 134.745 56.8079 134.352 56.904V56.904Z" fill="#236DC8"/>
<path opacity="0.5" d="M134.352 56.904L99.186 65.544L96.882 60.648C96.7858 60.4412 96.6206 60.2743 96.4149 60.1758C96.2091 60.0773 95.9755 60.0533 95.754 60.108L73.974 65.46C73.7527 65.5151 73.5573 65.6449 73.4206 65.8274C73.284 66.01 73.2145 66.2342 73.224 66.462L73.452 71.862L59.4 75.318C59.0075 75.4159 58.6697 75.6653 58.4605 76.0116C58.2514 76.3579 58.1879 76.773 58.284 77.166L69.876 124.332C69.9231 124.527 70.0084 124.711 70.1269 124.874C70.2455 125.036 70.3949 125.173 70.5666 125.277C70.7384 125.382 70.9291 125.451 71.1277 125.481C71.3263 125.512 71.529 125.502 71.724 125.454L146.664 107.034C147.058 106.937 147.397 106.689 147.607 106.342C147.818 105.996 147.882 105.58 147.786 105.186L136.2 58.02C136.102 57.6274 135.853 57.2896 135.506 57.0805C135.16 56.8714 134.745 56.8079 134.352 56.904V56.904Z" fill="white"/>
<path d="M94.3501 62.3111L76.2412 66.7624L76.8327 69.1688L94.9417 64.7174L94.3501 62.3111Z" fill="white"/>
<path d="M135.402 72.6L97.6021 81.888L95.2981 76.992C95.2018 76.7852 95.0367 76.6183 94.8309 76.5198C94.6251 76.4213 94.3915 76.3973 94.1701 76.452L72.3901 81.804C72.1693 81.8579 71.9739 81.9865 71.8372 82.1681C71.7005 82.3496 71.6308 82.5729 71.6401 82.8L71.8681 88.2L60.4681 91.002C60.0744 91.0986 59.7352 91.3474 59.5248 91.6939C59.3144 92.0404 59.2502 92.4562 59.3461 92.85L70.9381 140.016C71.0347 140.41 71.2835 140.749 71.63 140.959C71.9764 141.17 72.3922 141.234 72.7861 141.138L147.732 122.718C147.927 122.67 148.11 122.585 148.272 122.466C148.433 122.347 148.57 122.197 148.674 122.026C148.777 121.854 148.846 121.664 148.876 121.465C148.906 121.267 148.896 121.065 148.848 120.87L137.262 73.704C137.162 73.311 136.909 72.974 136.561 72.767C136.212 72.56 135.795 72.4999 135.402 72.6V72.6Z" fill="#236DC8"/>
<path opacity="0.4" d="M135.402 72.6L97.6021 81.888L95.2981 76.992C95.2018 76.7852 95.0367 76.6183 94.8309 76.5198C94.6251 76.4213 94.3915 76.3973 94.1701 76.452L72.3901 81.804C72.1693 81.8579 71.9739 81.9865 71.8372 82.1681C71.7005 82.3496 71.6308 82.5729 71.6401 82.8L71.8681 88.2L60.4681 91.002C60.0744 91.0986 59.7352 91.3474 59.5248 91.6939C59.3144 92.0404 59.2502 92.4562 59.3461 92.85L70.9381 140.016C71.0347 140.41 71.2835 140.749 71.63 140.959C71.9764 141.17 72.3922 141.234 72.7861 141.138L147.732 122.718C147.927 122.67 148.11 122.585 148.272 122.466C148.433 122.347 148.57 122.197 148.674 122.026C148.777 121.854 148.846 121.664 148.876 121.465C148.906 121.267 148.896 121.065 148.848 120.87L137.262 73.704C137.162 73.311 136.909 72.974 136.561 72.767C136.212 72.56 135.795 72.4999 135.402 72.6V72.6Z" fill="white"/>
<path d="M92.7656 78.6334L74.6566 83.0847L75.2481 85.4911L93.3571 81.0398L92.7656 78.6334Z" fill="white"/>
<path d="M136.458 88.248L96 98.184L93.696 93.288C93.5997 93.0812 93.4346 92.9143 93.2288 92.8158C93.0231 92.7173 92.7895 92.6933 92.568 92.748L70.8 98.1C70.5782 98.1541 70.382 98.2836 70.2452 98.4664C70.1083 98.6492 70.0394 98.8739 70.05 99.102L70.278 104.502L61.512 106.656C61.1184 106.753 60.7791 107.001 60.5687 107.348C60.3584 107.694 60.2941 108.11 60.39 108.504L72 155.676C72.0966 156.07 72.3454 156.409 72.6919 156.619C73.0384 156.83 73.4542 156.894 73.848 156.798L148.8 138.378C148.995 138.331 149.179 138.246 149.342 138.127C149.504 138.009 149.641 137.859 149.745 137.687C149.85 137.516 149.919 137.325 149.949 137.126C149.98 136.928 149.97 136.725 149.922 136.53L138.33 89.364C138.283 89.1662 138.197 88.9798 138.077 88.8159C137.957 88.652 137.805 88.514 137.63 88.4099C137.456 88.3058 137.262 88.2378 137.061 88.21C136.859 88.1822 136.654 88.1951 136.458 88.248V88.248Z" fill="#236DC8"/>
<path opacity="0.3" d="M136.458 88.248L96 98.184L93.696 93.288C93.5997 93.0812 93.4346 92.9143 93.2288 92.8158C93.0231 92.7173 92.7895 92.6933 92.568 92.748L70.8 98.1C70.5782 98.1541 70.382 98.2836 70.2452 98.4664C70.1083 98.6492 70.0394 98.8739 70.05 99.102L70.278 104.502L61.512 106.656C61.1184 106.753 60.7791 107.001 60.5687 107.348C60.3584 107.694 60.2941 108.11 60.39 108.504L72 155.676C72.0966 156.07 72.3454 156.409 72.6919 156.619C73.0384 156.83 73.4542 156.894 73.848 156.798L148.8 138.378C148.995 138.331 149.179 138.246 149.342 138.127C149.504 138.009 149.641 137.859 149.745 137.687C149.85 137.516 149.919 137.325 149.949 137.126C149.98 136.928 149.97 136.725 149.922 136.53L138.33 89.364C138.283 89.1662 138.197 88.9798 138.077 88.8159C137.957 88.652 137.805 88.514 137.63 88.4099C137.456 88.3058 137.262 88.2378 137.061 88.21C136.859 88.1822 136.654 88.1951 136.458 88.248V88.248Z" fill="white"/>
<path d="M91.1869 94.9497L73.078 99.4011L73.6695 101.807L91.7784 97.3561L91.1869 94.9497Z" fill="white"/>
<path d="M166.554 105.15L122.256 107.4L120.918 102.156C120.862 101.935 120.73 101.74 120.547 101.604C120.363 101.469 120.138 101.401 119.91 101.412L97.512 102.552C97.2839 102.563 97.0667 102.653 96.8972 102.806C96.7277 102.959 96.6163 103.166 96.582 103.392L95.784 108.744L89.484 109.068C89.2832 109.077 89.0863 109.126 88.9045 109.212C88.7227 109.297 88.5597 109.418 88.4247 109.567C88.2898 109.716 88.1856 109.89 88.1182 110.079C88.0508 110.269 88.0215 110.469 88.032 110.67L90.504 159.174C90.5242 159.579 90.7042 159.959 91.0046 160.231C91.3049 160.504 91.7011 160.646 92.106 160.626L169.2 156.708C169.605 156.688 169.985 156.508 170.257 156.207C170.53 155.907 170.672 155.511 170.652 155.106L168.18 106.596C168.17 106.394 168.12 106.195 168.032 106.013C167.945 105.83 167.822 105.666 167.671 105.532C167.519 105.397 167.342 105.294 167.151 105.228C166.959 105.163 166.756 105.136 166.554 105.15V105.15Z" fill="#236DC8"/>
<path opacity="0.2" d="M166.554 105.15L122.256 107.4L120.918 102.156C120.862 101.935 120.73 101.74 120.547 101.604C120.363 101.469 120.138 101.401 119.91 101.412L97.512 102.552C97.2839 102.563 97.0667 102.653 96.8972 102.806C96.7277 102.959 96.6163 103.166 96.582 103.392L95.784 108.744L89.484 109.068C89.2832 109.077 89.0863 109.126 88.9045 109.212C88.7227 109.297 88.5597 109.418 88.4247 109.567C88.2898 109.716 88.1856 109.89 88.1182 110.079C88.0508 110.269 88.0215 110.469 88.032 110.67L90.504 159.174C90.5242 159.579 90.7042 159.959 91.0046 160.231C91.3049 160.504 91.7011 160.646 92.106 160.626L169.2 156.708C169.605 156.688 169.985 156.508 170.257 156.207C170.53 155.907 170.672 155.511 170.652 155.106L168.18 106.596C168.17 106.394 168.12 106.195 168.032 106.013C167.945 105.83 167.822 105.666 167.671 105.532C167.519 105.397 167.342 105.294 167.151 105.228C166.959 105.163 166.756 105.136 166.554 105.15V105.15Z" fill="white"/>
<path d="M118.109 103.33L99.485 104.277L99.6108 106.752L118.235 105.805L118.109 103.33Z" fill="white"/>
<path d="M138.564 119.586L92.85 130.8L90.552 125.904C90.4472 125.7 90.2755 125.539 90.0656 125.447C89.8558 125.355 89.6207 125.339 89.4 125.4L67.62 130.752C67.3982 130.806 67.202 130.936 67.0652 131.118C66.9284 131.301 66.8594 131.526 66.87 131.754L67.098 137.154L63.6 138C63.2064 138.097 62.8671 138.345 62.6568 138.692C62.4464 139.038 62.3821 139.454 62.478 139.848L74.07 187.014C74.168 187.408 74.418 187.747 74.7654 187.958C75.1129 188.168 75.5294 188.232 75.924 188.136L150.864 169.716C151.257 169.618 151.594 169.369 151.804 169.022C152.013 168.676 152.076 168.261 151.98 167.868L140.4 120.708C140.302 120.318 140.055 119.982 139.711 119.772C139.368 119.562 138.956 119.495 138.564 119.586V119.586Z" fill="#236DC8"/>
<path opacity="0.1" d="M138.564 119.586L92.85 130.8L90.552 125.904C90.4472 125.7 90.2755 125.539 90.0656 125.447C89.8558 125.355 89.6207 125.339 89.4 125.4L67.62 130.752C67.3982 130.806 67.202 130.936 67.0652 131.118C66.9284 131.301 66.8594 131.526 66.87 131.754L67.098 137.154L63.6 138C63.2064 138.097 62.8671 138.345 62.6568 138.692C62.4464 139.038 62.3821 139.454 62.478 139.848L74.07 187.014C74.168 187.408 74.418 187.747 74.7654 187.958C75.1129 188.168 75.5294 188.232 75.924 188.136L150.864 169.716C151.257 169.618 151.594 169.369 151.804 169.022C152.013 168.676 152.076 168.261 151.98 167.868L140.4 120.708C140.302 120.318 140.055 119.982 139.711 119.772C139.368 119.562 138.956 119.495 138.564 119.586V119.586Z" fill="white"/>
<path d="M88.0177 127.594L69.9088 132.046L70.5003 134.452L88.6093 130.001L88.0177 127.594Z" fill="white"/>
<path d="M139.621 135.256L64.6858 153.676C63.8653 153.877 63.3636 154.706 63.5653 155.527L75.1577 202.687C75.3594 203.507 76.1881 204.009 77.0086 203.807L151.944 185.387C152.765 185.186 153.266 184.357 153.065 183.536L141.472 136.376C141.27 135.556 140.442 135.054 139.621 135.256Z" fill="#236DC8"/>
<path d="M90.672 148.656L66.762 154.53C66.6215 154.561 66.476 154.56 66.3357 154.529C66.1953 154.498 66.0634 154.436 65.9492 154.349C65.835 154.262 65.7412 154.151 65.6744 154.023C65.6075 153.896 65.5691 153.756 65.562 153.612L65.328 148.062C65.3173 147.834 65.3863 147.609 65.5231 147.426C65.66 147.244 65.8561 147.114 66.078 147.06L87.858 141.708C88.0803 141.654 88.3143 141.678 88.5208 141.777C88.7273 141.875 88.8937 142.041 88.992 142.248L91.356 147.27C91.4176 147.405 91.4485 147.551 91.4464 147.699C91.4443 147.847 91.4092 147.993 91.3437 148.126C91.2782 148.258 91.1839 148.375 91.0677 148.467C90.9515 148.558 90.8163 148.623 90.672 148.656V148.656Z" fill="#236DC8"/>
<path d="M86.4332 143.911L68.3242 148.362L68.9157 150.768L87.0247 146.317L86.4332 143.911Z" fill="white"/>
</g>
<defs>
<filter id="filter0_d_81_375" x="-16" y="-12" width="332" height="332" filterUnits="userSpaceOnUse" color-interpolation-filters="sRGB">
<feFlood flood-opacity="0" result="BackgroundImageFix"/>
<feColorMatrix in="SourceAlpha" type="matrix" values="0 0 0 0 0 0 0 0 0 0 0 0 0 0 0 0 0 0 127 0" result="hardAlpha"/>
<feOffset dy="4"/>
<feGaussianBlur stdDeviation="8"/>
<feComposite in2="hardAlpha" operator="out"/>
<feColorMatrix type="matrix" values="0 0 0 0 0 0 0 0 0 0 0 0 0 0 0 0 0 0 0.25 0"/>
<feBlend mode="normal" in2="BackgroundImageFix" result="effect1_dropShadow_81_375"/>
<feBlend mode="normal" in="SourceGraphic" in2="effect1_dropShadow_81_375" result="shape"/>
</filter>
</defs>
</svg>
