<svg width="54" height="50" viewBox="0 0 54 50" fill="none" xmlns="http://www.w3.org/2000/svg">
<path d="M31.5053 9.23662L32.4838 8.26888C32.6863 8.0664 32.8001 7.79178 32.8001 7.50544C32.8001 7.21909 32.6863 6.94447 32.4838 6.742C32.2814 6.53952 32.0067 6.42577 31.7204 6.42577C31.434 6.42577 31.1594 6.53952 30.957 6.742L29.9892 7.72049C28.4823 6.55474 26.631 5.92225 24.7258 5.92225C22.8206 5.92225 20.9693 6.55474 19.4623 7.72049L18.4838 6.73124C18.2799 6.52877 18.0039 6.41558 17.7166 6.41659C17.4292 6.4176 17.1541 6.53272 16.9516 6.73662C16.7491 6.94052 16.6359 7.21651 16.6369 7.50386C16.6379 7.79122 16.753 8.0664 16.957 8.26888L17.9462 9.24737C16.7666 10.7501 16.1266 12.6058 16.129 14.5162C16.1255 15.8876 16.4499 17.24 17.0753 18.4606C17.7006 19.6811 18.6087 20.7345 19.7238 21.5328C20.839 22.3311 22.1288 22.8512 23.4858 23.0497C24.8428 23.2483 26.2275 23.1195 27.5246 22.6741C28.8217 22.2288 29.9936 21.4797 30.9424 20.4895C31.8912 19.4992 32.5894 18.2965 32.979 16.9815C33.3685 15.6666 33.438 14.2776 33.1817 12.9303C32.9253 11.5831 32.3506 10.3166 31.5053 9.23662V9.23662ZM24.7311 20.9678C23.4551 20.9678 22.2078 20.5894 21.1468 19.8805C20.0859 19.1716 19.2589 18.164 18.7706 16.9851C18.2823 15.8062 18.1546 14.509 18.4035 13.2575C18.6524 12.0061 19.2669 10.8565 20.1692 9.95421C21.0714 9.05194 22.221 8.43748 23.4725 8.18854C24.724 7.93961 26.0212 8.06737 27.2001 8.55568C28.379 9.04398 29.3866 9.8709 30.0955 10.9319C30.8044 11.9928 31.1828 13.2402 31.1828 14.5162C31.1828 16.2273 30.503 17.8683 29.2931 19.0782C28.0832 20.2881 26.4422 20.9678 24.7311 20.9678ZM22.5806 4.83877H26.8817C27.1669 4.83877 27.4404 4.72548 27.642 4.52383C27.8437 4.32218 27.957 4.04868 27.957 3.7635C27.957 3.47832 27.8437 3.20482 27.642 3.00317C27.4404 2.80152 27.1669 2.68823 26.8817 2.68823H22.5806C22.2954 2.68823 22.0219 2.80152 21.8203 3.00317C21.6186 3.20482 21.5053 3.47832 21.5053 3.7635C21.5053 4.04868 21.6186 4.32218 21.8203 4.52383C22.0219 4.72548 22.2954 4.83877 22.5806 4.83877V4.83877ZM25.8064 11.2904C25.8064 11.0052 25.6931 10.7317 25.4915 10.5301C25.2898 10.3284 25.0163 10.2151 24.7311 10.2151C24.446 10.2151 24.1725 10.3284 23.9708 10.5301C23.7692 10.7317 23.6559 11.0052 23.6559 11.2904V13.3226C23.4124 13.5404 23.2408 13.827 23.1637 14.1444C23.0867 14.4618 23.1079 14.7952 23.2244 15.1003C23.341 15.4055 23.5474 15.6681 23.8165 15.8533C24.0855 16.0385 24.4045 16.1377 24.7311 16.1377C25.0578 16.1377 25.3768 16.0385 25.6458 15.8533C25.9149 15.6681 26.1213 15.4055 26.2379 15.1003C26.3544 14.7952 26.3756 14.4618 26.2985 14.1444C26.2215 13.827 26.0499 13.5404 25.8064 13.3226V11.2904Z" fill="#C1C3C5"/>
<path d="M1.27058 46.5591V39.0322H4.08778C4.72578 39.0322 5.27416 39.1361 5.73295 39.344C6.19173 39.5447 6.54298 39.8387 6.78671 40.2257C7.03761 40.6057 7.16305 41.068 7.16305 41.6128C7.16305 42.1433 7.03761 42.6021 6.78671 42.9892C6.54298 43.3691 6.19173 43.663 5.73295 43.8709C5.27416 44.0716 4.72578 44.172 4.08778 44.172H1.71144L2.06628 43.8064V46.5591H1.27058ZM6.41036 46.5591L4.47488 43.8279H5.3351L7.28133 46.5591H6.41036ZM2.06628 43.8709L1.71144 43.4946H4.06628C4.81897 43.4946 5.38886 43.3297 5.77596 42.9999C6.17022 42.6702 6.36735 42.2078 6.36735 41.6128C6.36735 41.0107 6.17022 40.5447 5.77596 40.215C5.38886 39.8852 4.81897 39.7204 4.06628 39.7204H1.71144L2.06628 39.344V43.8709ZM11.2776 46.6128C10.6898 46.6128 10.1737 46.491 9.72925 46.2473C9.2848 45.9964 8.93713 45.6559 8.68624 45.2257C8.43534 44.7885 8.30989 44.2903 8.30989 43.7311C8.30989 43.172 8.42817 42.6774 8.66473 42.2473C8.90846 41.8171 9.23821 41.4802 9.65398 41.2365C10.0769 40.9856 10.55 40.8602 11.0733 40.8602C11.6038 40.8602 12.0733 40.982 12.4819 41.2257C12.8977 41.4623 13.2239 41.7992 13.4604 42.2365C13.697 42.6666 13.8153 43.1648 13.8153 43.7311C13.8153 43.767 13.8117 43.8064 13.8045 43.8494C13.8045 43.8852 13.8045 43.9247 13.8045 43.9677H8.89054V43.3978H13.3959L13.0948 43.6236C13.0948 43.215 13.0052 42.853 12.826 42.5376C12.654 42.215 12.4174 41.9641 12.1163 41.7849C11.8153 41.6057 11.4676 41.5161 11.0733 41.5161C10.6862 41.5161 10.3386 41.6057 10.0303 41.7849C9.72208 41.9641 9.48194 42.215 9.30989 42.5376C9.13785 42.8602 9.05183 43.2293 9.05183 43.6451V43.7634C9.05183 44.1935 9.14502 44.5734 9.3314 44.9032C9.52495 45.2257 9.79018 45.4802 10.1271 45.6666C10.4712 45.8458 10.8619 45.9354 11.2991 45.9354C11.6432 45.9354 11.9622 45.8745 12.2561 45.7526C12.5572 45.6308 12.8153 45.4444 13.0303 45.1935L13.4604 45.6881C13.2095 45.9892 12.8941 46.2186 12.5142 46.3763C12.1414 46.534 11.7292 46.6128 11.2776 46.6128ZM22.423 40.8602C22.8817 40.8602 23.2796 40.9498 23.6165 41.129C23.9606 41.301 24.2258 41.5663 24.4122 41.9247C24.6058 42.2831 24.7025 42.7347 24.7025 43.2795V46.5591H23.9391V43.3548C23.9391 42.7598 23.7957 42.3118 23.509 42.0107C23.2294 41.7025 22.8316 41.5483 22.3154 41.5483C21.9283 41.5483 21.5914 41.6308 21.3047 41.7956C21.0251 41.9533 20.8065 42.1863 20.6488 42.4946C20.4982 42.7956 20.423 43.1612 20.423 43.5913V46.5591H19.6595V43.3548C19.6595 42.7598 19.5162 42.3118 19.2294 42.0107C18.9427 41.7025 18.5412 41.5483 18.0251 41.5483C17.6452 41.5483 17.3119 41.6308 17.0251 41.7956C16.7384 41.9533 16.5162 42.1863 16.3584 42.4946C16.2079 42.7956 16.1326 43.1612 16.1326 43.5913V46.5591H15.3692V40.9139H16.1004V42.4408L15.9821 42.172C16.1541 41.7634 16.4301 41.4444 16.8101 41.215C17.1972 40.9784 17.6524 40.8602 18.1757 40.8602C18.7276 40.8602 19.1972 40.9999 19.5843 41.2795C19.9714 41.5519 20.2222 41.9641 20.3369 42.5161L20.0359 42.3978C20.2007 41.939 20.4911 41.5698 20.9068 41.2903C21.3298 41.0035 21.8352 40.8602 22.423 40.8602ZM26.7729 46.5591V40.9139H27.5364V46.5591H26.7729ZM27.16 39.6666C27.0023 39.6666 26.8697 39.6128 26.7622 39.5053C26.6547 39.3978 26.6009 39.2688 26.6009 39.1182C26.6009 38.9677 26.6547 38.8422 26.7622 38.7419C26.8697 38.6344 27.0023 38.5806 27.16 38.5806C27.3177 38.5806 27.4504 38.6308 27.5579 38.7311C27.6654 38.8315 27.7192 38.9569 27.7192 39.1075C27.7192 39.2652 27.6654 39.3978 27.5579 39.5053C27.4575 39.6128 27.3249 39.6666 27.16 39.6666ZM32.5423 40.8602C33.0011 40.8602 33.4026 40.9498 33.7466 41.129C34.0979 41.301 34.3703 41.5663 34.5638 41.9247C34.7646 42.2831 34.8649 42.7347 34.8649 43.2795V46.5591H34.1015V43.3548C34.1015 42.7598 33.9509 42.3118 33.6499 42.0107C33.356 41.7025 32.9402 41.5483 32.4026 41.5483C32.0011 41.5483 31.6499 41.6308 31.3488 41.7956C31.0549 41.9533 30.8255 42.1863 30.6606 42.4946C30.5029 42.7956 30.4241 43.1612 30.4241 43.5913V46.5591H29.6606V40.9139H30.3918V42.4623L30.2735 42.172C30.4527 41.7634 30.7395 41.4444 31.1337 41.215C31.528 40.9784 31.9975 40.8602 32.5423 40.8602ZM39.1744 46.6128C38.6368 46.6128 38.1529 46.491 37.7228 46.2473C37.2998 46.0035 36.9665 45.6666 36.7228 45.2365C36.4791 44.7992 36.3572 44.2974 36.3572 43.7311C36.3572 43.1576 36.4791 42.6559 36.7228 42.2257C36.9665 41.7956 37.2998 41.4623 37.7228 41.2257C38.1529 40.982 38.6368 40.8602 39.1744 40.8602C39.669 40.8602 40.1099 40.9713 40.497 41.1935C40.8912 41.4157 41.2031 41.7419 41.4325 42.172C41.669 42.5949 41.7873 43.1146 41.7873 43.7311C41.7873 44.3404 41.6726 44.8602 41.4432 45.2903C41.2138 45.7204 40.902 46.0501 40.5077 46.2795C40.1206 46.5017 39.6762 46.6128 39.1744 46.6128ZM39.2282 45.9354C39.6296 45.9354 39.988 45.8458 40.3034 45.6666C40.626 45.4802 40.8769 45.2222 41.0561 44.8924C41.2425 44.5555 41.3357 44.1684 41.3357 43.7311C41.3357 43.2867 41.2425 42.8996 41.0561 42.5698C40.8769 42.2401 40.626 41.9856 40.3034 41.8064C39.988 41.62 39.6296 41.5268 39.2282 41.5268C38.8339 41.5268 38.4791 41.62 38.1636 41.8064C37.8482 41.9856 37.5973 42.2401 37.411 42.5698C37.2246 42.8996 37.1314 43.2867 37.1314 43.7311C37.1314 44.1684 37.2246 44.5555 37.411 44.8924C37.5973 45.2222 37.8482 45.4802 38.1636 45.6666C38.4791 45.8458 38.8339 45.9354 39.2282 45.9354ZM41.3572 46.5591V44.8602L41.4325 43.7204L41.3249 42.5806V38.5806H42.0884V46.5591H41.3572ZM46.6124 46.6128C46.0246 46.6128 45.5085 46.491 45.064 46.2473C44.6196 45.9964 44.2719 45.6559 44.021 45.2257C43.7701 44.7885 43.6447 44.2903 43.6447 43.7311C43.6447 43.172 43.7629 42.6774 43.9995 42.2473C44.2432 41.8171 44.573 41.4802 44.9887 41.2365C45.4117 40.9856 45.8848 40.8602 46.4081 40.8602C46.9386 40.8602 47.4081 40.982 47.8167 41.2257C48.2325 41.4623 48.5586 41.7992 48.7952 42.2365C49.0318 42.6666 49.15 43.1648 49.15 43.7311C49.15 43.767 49.1464 43.8064 49.1393 43.8494C49.1393 43.8852 49.1393 43.9247 49.1393 43.9677H44.2253V43.3978H48.7307L48.4296 43.6236C48.4296 43.215 48.34 42.853 48.1608 42.5376C47.9887 42.215 47.7522 41.9641 47.4511 41.7849C47.15 41.6057 46.8024 41.5161 46.4081 41.5161C46.021 41.5161 45.6733 41.6057 45.3651 41.7849C45.0568 41.9641 44.8167 42.215 44.6447 42.5376C44.4726 42.8602 44.3866 43.2293 44.3866 43.6451V43.7634C44.3866 44.1935 44.4798 44.5734 44.6662 44.9032C44.8597 45.2257 45.1249 45.4802 45.4619 45.6666C45.8059 45.8458 46.1966 45.9354 46.6339 45.9354C46.978 45.9354 47.297 45.8745 47.5909 45.7526C47.892 45.6308 48.15 45.4444 48.3651 45.1935L48.7952 45.6881C48.5443 45.9892 48.2289 46.2186 47.849 46.3763C47.4762 46.534 47.064 46.6128 46.6124 46.6128ZM50.704 46.5591V40.9139H51.4351V42.4516L51.3599 42.1827C51.5176 41.7526 51.7828 41.4265 52.1556 41.2042C52.5283 40.9749 52.9907 40.8602 53.5427 40.8602V41.6021C53.514 41.6021 53.4853 41.6021 53.4567 41.6021C53.428 41.5949 53.3993 41.5913 53.3706 41.5913C52.7757 41.5913 52.3097 41.7741 51.9728 42.1397C51.6359 42.4981 51.4674 43.0107 51.4674 43.6774V46.5591H50.704Z" fill="#C1C3C5"/>
</svg>
