<svg width="112" height="25" viewBox="0 0 112 25" fill="none" xmlns="http://www.w3.org/2000/svg">
<rect width="24" height="24" fill="white"/>
<path d="M20.16 4.99998C19.1 3.93719 17.6948 3.28852 16.1984 3.17115C14.7019 3.05378 13.2128 3.47545 12 4.35998C10.7277 3.41362 9.14402 2.98449 7.56795 3.15902C5.99188 3.33355 4.54047 4.09876 3.506 5.30057C2.47154 6.50237 1.93085 8.0515 1.99283 9.636C2.05481 11.2205 2.71485 12.7227 3.84003 13.84L10.05 20.06C10.57 20.5718 11.2704 20.8586 12 20.8586C12.7296 20.8586 13.43 20.5718 13.95 20.06L20.16 13.84C21.3276 12.6652 21.983 11.0763 21.983 9.41998C21.983 7.76371 21.3276 6.17472 20.16 4.99998V4.99998ZM18.75 12.46L12.54 18.67C12.4694 18.7413 12.3853 18.798 12.2926 18.8366C12.1999 18.8753 12.1005 18.8952 12 18.8952C11.8996 18.8952 11.8002 18.8753 11.7075 18.8366C11.6148 18.798 11.5307 18.7413 11.46 18.67L5.25003 12.43C4.46579 11.6283 4.02664 10.5514 4.02664 9.42998C4.02664 8.30852 4.46579 7.23164 5.25003 6.42998C6.04919 5.64097 7.127 5.19855 8.25003 5.19855C9.37306 5.19855 10.4509 5.64097 11.25 6.42998C11.343 6.52371 11.4536 6.59811 11.5755 6.64887C11.6973 6.69964 11.828 6.72578 11.96 6.72578C12.092 6.72578 12.2227 6.69964 12.3446 6.64887C12.4665 6.59811 12.5771 6.52371 12.67 6.42998C13.4692 5.64097 14.547 5.19855 15.67 5.19855C16.7931 5.19855 17.8709 5.64097 18.67 6.42998C19.4651 7.22113 19.9186 8.29217 19.9336 9.41367C19.9485 10.5352 19.5237 11.6179 18.75 12.43V12.46Z" fill="#C1C3C5"/>
<rect x="32" width="80" height="24.3137" rx="12.1569" fill="#236DC8"/>
<path d="M53.9881 16.9216V7.12157H57.6561C58.4868 7.12157 59.2008 7.2569 59.7981 7.52757C60.3954 7.7889 60.8528 8.17157 61.1701 8.67557C61.4968 9.17024 61.6601 9.77224 61.6601 10.4816C61.6601 11.1722 61.4968 11.7696 61.1701 12.2736C60.8528 12.7682 60.3954 13.1509 59.7981 13.4216C59.2008 13.6829 58.4868 13.8136 57.6561 13.8136H54.5621L55.0241 13.3376V16.9216H53.9881ZM60.6801 16.9216L58.1601 13.3656H59.2801L61.8141 16.9216H60.6801ZM55.0241 13.4216L54.5621 12.9316H57.6281C58.6081 12.9316 59.3501 12.7169 59.8541 12.2876C60.3674 11.8582 60.6241 11.2562 60.6241 10.4816C60.6241 9.69757 60.3674 9.0909 59.8541 8.66157C59.3501 8.23224 58.6081 8.01757 57.6281 8.01757H54.5621L55.0241 7.52757V13.4216ZM67.0173 16.9916C66.2519 16.9916 65.5799 16.8329 65.0013 16.5156C64.4226 16.1889 63.9699 15.7456 63.6433 15.1856C63.3166 14.6162 63.1533 13.9676 63.1533 13.2396C63.1533 12.5116 63.3073 11.8676 63.6153 11.3076C63.9326 10.7476 64.3619 10.3089 64.9033 9.99157C65.4539 9.6649 66.0699 9.50157 66.7513 9.50157C67.4419 9.50157 68.0533 9.66024 68.5853 9.97757C69.1266 10.2856 69.5513 10.7242 69.8593 11.2936C70.1673 11.8536 70.3213 12.5022 70.3213 13.2396C70.3213 13.2862 70.3166 13.3376 70.3073 13.3936C70.3073 13.4402 70.3073 13.4916 70.3073 13.5476H63.9093V12.8056H69.7753L69.3833 13.0996C69.3833 12.5676 69.2666 12.0962 69.0333 11.6856C68.8093 11.2656 68.5013 10.9389 68.1093 10.7056C67.7173 10.4722 67.2646 10.3556 66.7513 10.3556C66.2473 10.3556 65.7946 10.4722 65.3933 10.7056C64.9919 10.9389 64.6793 11.2656 64.4553 11.6856C64.2313 12.1056 64.1193 12.5862 64.1193 13.1276V13.2816C64.1193 13.8416 64.2406 14.3362 64.4833 14.7656C64.7353 15.1856 65.0806 15.5169 65.5193 15.7596C65.9673 15.9929 66.4759 16.1096 67.0453 16.1096C67.4933 16.1096 67.9086 16.0302 68.2913 15.8716C68.6833 15.7129 69.0193 15.4702 69.2993 15.1436L69.8593 15.7876C69.5326 16.1796 69.1219 16.4782 68.6273 16.6836C68.1419 16.8889 67.6053 16.9916 67.0173 16.9916ZM76.1385 16.9916C75.5038 16.9916 74.9298 16.8469 74.4165 16.5576C73.9032 16.2589 73.4925 15.8342 73.1845 15.2836C72.8858 14.7236 72.7365 14.0422 72.7365 13.2396C72.7365 12.4369 72.8858 11.7602 73.1845 11.2096C73.4832 10.6496 73.8892 10.2249 74.4025 9.93557C74.9158 9.64624 75.4945 9.50157 76.1385 9.50157C76.8385 9.50157 77.4638 9.66024 78.0145 9.97757C78.5745 10.2856 79.0132 10.7242 79.3305 11.2936C79.6478 11.8536 79.8065 12.5022 79.8065 13.2396C79.8065 13.9862 79.6478 14.6396 79.3305 15.1996C79.0132 15.7596 78.5745 16.1982 78.0145 16.5156C77.4638 16.8329 76.8385 16.9916 76.1385 16.9916ZM72.3445 19.6376V9.57157H73.2965V11.7836L73.1985 13.2536L73.3385 14.7376V19.6376H72.3445ZM76.0685 16.1096C76.5912 16.1096 77.0578 15.9929 77.4685 15.7596C77.8792 15.5169 78.2058 15.1809 78.4485 14.7516C78.6912 14.3129 78.8125 13.8089 78.8125 13.2396C78.8125 12.6702 78.6912 12.1709 78.4485 11.7416C78.2058 11.3122 77.8792 10.9762 77.4685 10.7336C77.0578 10.4909 76.5912 10.3696 76.0685 10.3696C75.5458 10.3696 75.0745 10.4909 74.6545 10.7336C74.2438 10.9762 73.9172 11.3122 73.6745 11.7416C73.4412 12.1709 73.3245 12.6702 73.3245 13.2396C73.3245 13.8089 73.4412 14.3129 73.6745 14.7516C73.9172 15.1809 74.2438 15.5169 74.6545 15.7596C75.0745 15.9929 75.5458 16.1096 76.0685 16.1096ZM81.8328 16.9216V6.53357H82.8268V16.9216H81.8328ZM85.6485 19.7076C85.3032 19.7076 84.9719 19.6516 84.6545 19.5396C84.3465 19.4276 84.0805 19.2596 83.8565 19.0356L84.3185 18.2936C84.5052 18.4709 84.7059 18.6062 84.9205 18.6996C85.1445 18.8022 85.3919 18.8536 85.6625 18.8536C85.9892 18.8536 86.2692 18.7602 86.5025 18.5736C86.7452 18.3962 86.9739 18.0789 87.1885 17.6216L87.6645 16.5436L87.7765 16.3896L90.8005 9.57157H91.7805L88.0985 17.8036C87.8932 18.2796 87.6645 18.6576 87.4125 18.9376C87.1699 19.2176 86.9039 19.4136 86.6145 19.5256C86.3252 19.6469 86.0032 19.7076 85.6485 19.7076ZM87.6085 17.1316L84.2205 9.57157H85.2565L88.2525 16.3196L87.6085 17.1316Z" fill="#F6F9FD"/>
</svg>
