<svg width="20" height="20" viewBox="0 0 20 20" fill="none" xmlns="http://www.w3.org/2000/svg">
<path d="M18.0917 16.9083L15 13.8416C16.2001 12.3453 16.7812 10.4461 16.624 8.5344C16.4668 6.62273 15.5831 4.84397 14.1546 3.56385C12.7261 2.28374 10.8615 1.59957 8.9441 1.65204C7.0267 1.70451 5.20226 2.48962 3.84595 3.84593C2.48963 5.20225 1.70452 7.02668 1.65206 8.94408C1.59959 10.8615 2.28375 12.7261 3.56387 14.1546C4.84398 15.583 6.62275 16.4667 8.53441 16.624C10.4461 16.7812 12.3453 16.2001 13.8417 15L16.9083 18.0666C16.9858 18.1448 17.078 18.2068 17.1795 18.2491C17.2811 18.2914 17.39 18.3131 17.5 18.3131C17.61 18.3131 17.7189 18.2914 17.8205 18.2491C17.922 18.2068 18.0142 18.1448 18.0917 18.0666C18.2419 17.9113 18.3258 17.7036 18.3258 17.4875C18.3258 17.2714 18.2419 17.0637 18.0917 16.9083V16.9083ZM9.16666 15C8.01294 15 6.88512 14.6579 5.92584 14.0169C4.96655 13.3759 4.21888 12.4649 3.77737 11.399C3.33585 10.3331 3.22034 9.16018 3.44542 8.02862C3.6705 6.89707 4.22607 5.85767 5.04187 5.04186C5.85768 4.22605 6.89708 3.67048 8.02864 3.4454C9.16019 3.22032 10.3331 3.33584 11.399 3.77735C12.4649 4.21886 13.3759 4.96654 14.0169 5.92582C14.6579 6.88511 15 8.01292 15 9.16665C15 10.7137 14.3854 12.1975 13.2915 13.2914C12.1975 14.3854 10.7138 15 9.16666 15V15Z" fill="#2E3033"/>
</svg>
