<svg width="46" height="46" viewBox="0 0 46 46" fill="none" xmlns="http://www.w3.org/2000/svg">
<g filter="url(#filter0_d_51_170)">
<circle cx="23" cy="19" r="15" fill="#236DC8"/>
<circle cx="23" cy="19" r="13.65" stroke="white" stroke-width="2.7"/>
</g>
<g clip-path="url(#clip0_51_170)">
<g filter="url(#filter1_d_51_170)">
<path d="M32.075 17.75C31.725 16.7 30.675 16 29.625 16C28.1375 16 27 17.1375 27 18.625C27 19.7625 27.7 20.725 28.75 21.075V22.5625C28.75 24.75 27 26.5 24.8125 26.5C22.625 26.5 20.875 24.75 20.875 22.5625V22.0375C23.4125 21.6 25.25 19.4125 25.25 16.875V11.625C25.25 11.1 24.9 10.75 24.375 10.75H22.625C22.1 10.75 21.75 11.1 21.75 11.625C21.75 12.15 22.1 12.5 22.625 12.5H23.5V16.875C23.5 18.8 21.925 20.375 20 20.375C18.075 20.375 16.5 18.8 16.5 16.875V12.5H17.375C17.9 12.5 18.25 12.15 18.25 11.625C18.25 11.1 17.9 10.75 17.375 10.75H15.625C15.1 10.75 14.75 11.1 14.75 11.625V16.875C14.75 19.4125 16.5875 21.6 19.125 22.0375V22.5625C19.125 25.7125 21.6625 28.25 24.8125 28.25C27.9625 28.25 30.5 25.7125 30.5 22.5625V21.075C31.9 20.6375 32.6 19.15 32.075 17.75Z" fill="white"/>
</g>
</g>
<defs>
<filter id="filter0_d_51_170" x="0" y="0" width="46" height="46" filterUnits="userSpaceOnUse" color-interpolation-filters="sRGB">
<feFlood flood-opacity="0" result="BackgroundImageFix"/>
<feColorMatrix in="SourceAlpha" type="matrix" values="0 0 0 0 0 0 0 0 0 0 0 0 0 0 0 0 0 0 127 0" result="hardAlpha"/>
<feOffset dy="4"/>
<feGaussianBlur stdDeviation="4"/>
<feComposite in2="hardAlpha" operator="out"/>
<feColorMatrix type="matrix" values="0 0 0 0 0 0 0 0 0 0 0 0 0 0 0 0 0 0 0.25 0"/>
<feBlend mode="normal" in2="BackgroundImageFix" result="effect1_dropShadow_51_170"/>
<feBlend mode="normal" in="SourceGraphic" in2="effect1_dropShadow_51_170" result="shape"/>
</filter>
<filter id="filter1_d_51_170" x="10.75" y="10.75" width="25.4993" height="25.5" filterUnits="userSpaceOnUse" color-interpolation-filters="sRGB">
<feFlood flood-opacity="0" result="BackgroundImageFix"/>
<feColorMatrix in="SourceAlpha" type="matrix" values="0 0 0 0 0 0 0 0 0 0 0 0 0 0 0 0 0 0 127 0" result="hardAlpha"/>
<feOffset dy="4"/>
<feGaussianBlur stdDeviation="2"/>
<feComposite in2="hardAlpha" operator="out"/>
<feColorMatrix type="matrix" values="0 0 0 0 1 0 0 0 0 1 0 0 0 0 1 0 0 0 0.25 0"/>
<feBlend mode="normal" in2="BackgroundImageFix" result="effect1_dropShadow_51_170"/>
<feBlend mode="normal" in="SourceGraphic" in2="effect1_dropShadow_51_170" result="shape"/>
</filter>
<clipPath id="clip0_51_170">
<rect width="21" height="21" fill="white" transform="translate(13 9)"/>
</clipPath>
</defs>
</svg>
